<svg width="191" height="113" viewBox="0 0 191 113" fill="none" xmlns="http://www.w3.org/2000/svg">
<path d="M190.952 98.8751H175.054V98.9951H190.952V98.8751Z" fill="#EBEBEB"/>
<path d="M133.986 100.181H129.814V100.301H133.986V100.181Z" fill="#EBEBEB"/>
<path d="M174.574 94.4208H165.363V94.5408H174.574V94.4208Z" fill="#EBEBEB"/>
<path d="M20.912 95.2273H0.180801V95.3473H20.912V95.2273Z" fill="#EBEBEB"/>
<path d="M28.2272 95.2273H25.1888V95.3473H28.2272V95.2273Z" fill="#EBEBEB"/>
<path d="M83.072 97.2529H38.1056V97.3729H83.072V97.2529Z" fill="#EBEBEB"/>
<path d="M106.381 90.2639L177.138 90.2639V0.6623L106.381 0.6623L106.381 90.2639Z" fill="#F0F0F0"/>
<path d="M108.882 23.0833L174.637 23.0833V3.92165L108.882 3.92165V23.0833Z" fill="#E0E0E0"/>
<path d="M170.898 23.0833H174.632V7.02725H170.898V23.0833Z" fill="#EBEBEB"/>
<path d="M152.835 23.0833H156.57V7.02725H152.835V23.0833Z" fill="#EBEBEB"/>
<path d="M129.608 22.4482L133.288 23.0825L136.015 7.25986L132.335 6.62551L129.608 22.4482Z" fill="#EBEBEB"/>
<path d="M166.275 23.0833H170.01V9.13925H166.275V23.0833Z" fill="#EBEBEB"/>
<path d="M157.683 23.0833H161.418V9.13925H157.683V23.0833Z" fill="#EBEBEB"/>
<path d="M136.011 23.0833H139.746V9.13925H136.011V23.0833Z" fill="#EBEBEB"/>
<path d="M144.913 22.2726L148.559 23.0828L151.584 9.47087L147.939 8.66069L144.913 22.2726Z" fill="#EBEBEB"/>
<path d="M163.045 23.0833H164.912V6.22565H163.045V23.0833Z" fill="#EBEBEB"/>
<path d="M140.826 23.0833H142.693V6.22565H140.826V23.0833Z" fill="#EBEBEB"/>
<path d="M174.632 26.1216H108.877V45.2832H174.632V26.1216Z" fill="#E0E0E0"/>
<path d="M112.611 29.2224H108.877V45.2784H112.611V29.2224Z" fill="#EBEBEB"/>
<path d="M130.674 29.2224H126.939V45.2784H130.674V29.2224Z" fill="#EBEBEB"/>
<path d="M151.181 28.8163L147.5 29.4507L150.228 45.2733L153.908 44.639L151.181 28.8163Z" fill="#EBEBEB"/>
<path d="M117.243 31.3391H113.509V45.2831H117.243V31.3391Z" fill="#EBEBEB"/>
<path d="M125.826 31.3391H122.091V45.2831H125.826V31.3391Z" fill="#EBEBEB"/>
<path d="M147.498 31.3391H143.763V45.2831H147.498V31.3391Z" fill="#EBEBEB"/>
<path d="M135.586 30.8536L131.94 31.6638L134.966 45.2757L138.611 44.4655L135.586 30.8536Z" fill="#EBEBEB"/>
<path d="M120.474 28.4255H118.606V45.2831H120.474V28.4255Z" fill="#EBEBEB"/>
<path d="M142.688 28.4255H140.821V45.2831H142.688V28.4255Z" fill="#EBEBEB"/>
<path d="M170.898 45.2783H174.632V29.2223H170.898V45.2783Z" fill="#EBEBEB"/>
<path d="M166.275 45.2783H170.01V31.3343H166.275V45.2783Z" fill="#EBEBEB"/>
<path d="M157.683 45.2783H161.418V31.3343H157.683V45.2783Z" fill="#EBEBEB"/>
<path d="M163.045 45.2783H164.912V28.4207H163.045V45.2783Z" fill="#EBEBEB"/>
<path d="M108.882 67.4736L174.637 67.4736V48.312L108.882 48.312V67.4736Z" fill="#E0E0E0"/>
<path d="M133.155 67.4736H136.89V51.4176H133.155V67.4736Z" fill="#EBEBEB"/>
<path d="M109.929 66.8329L113.609 67.4673L116.337 51.6446L112.656 51.0103L109.929 66.8329Z" fill="#EBEBEB"/>
<path d="M146.595 67.4736H150.33V53.5296H146.595V67.4736Z" fill="#EBEBEB"/>
<path d="M138.008 67.4736H141.742V53.5296H138.008V67.4736Z" fill="#EBEBEB"/>
<path d="M116.331 67.4736H120.066V53.5296H116.331V67.4736Z" fill="#EBEBEB"/>
<path d="M125.237 66.657L128.882 67.4672L131.907 53.8553L128.262 53.0451L125.237 66.657Z" fill="#EBEBEB"/>
<path d="M143.365 67.4736H145.232V50.616H143.365V67.4736Z" fill="#EBEBEB"/>
<path d="M121.146 67.4736H123.013V50.616H121.146V67.4736Z" fill="#EBEBEB"/>
<path d="M152.904 66.834L156.584 67.4684L159.312 51.6457L155.631 51.0114L152.904 66.834Z" fill="#EBEBEB"/>
<path d="M159.31 67.4736H163.045V53.5296H159.31V67.4736Z" fill="#EBEBEB"/>
<path d="M168.212 66.6553L171.858 67.4655L174.883 53.8536L171.238 53.0434L168.212 66.6553Z" fill="#EBEBEB"/>
<path d="M164.115 67.4736H165.982V50.616H164.115V67.4736Z" fill="#EBEBEB"/>
<path d="M59.672 35.1743H18.6032C17.5428 35.1724 16.4924 35.3796 15.5121 35.7839C14.5318 36.1883 13.6408 36.7819 12.8901 37.5308C12.1394 38.2798 11.5436 39.1693 11.137 40.1487C10.7303 41.128 10.5206 42.1779 10.52 43.2383V75.3119H67.7408V43.2383C67.7408 42.1789 67.5321 41.13 67.1265 40.1513C66.721 39.1726 66.1265 38.2834 65.3772 37.5345C64.6279 36.7857 63.7384 36.1918 62.7594 35.7868C61.7805 35.3818 60.7314 35.1737 59.672 35.1743Z" fill="#E6E6E6"/>
<path d="M79.8848 58.944H72.536C71.263 58.944 70.0421 59.4497 69.1419 60.3499C68.2417 61.25 67.736 62.4709 67.736 63.744V90.264H84.6704V63.7392C84.6691 62.4695 84.1648 61.252 83.2679 60.3532C82.371 59.4545 81.1545 58.9478 79.8848 58.944Z" fill="#E0E0E0"/>
<path d="M79.8848 58.944H79.7264C78.4534 58.944 77.2325 59.4497 76.3323 60.3499C75.4321 61.25 74.9264 62.4709 74.9264 63.744V90.264H84.6656V63.7392C84.6643 62.4703 84.1607 61.2535 83.2648 60.3549C82.3689 59.4563 81.1537 58.949 79.8848 58.944Z" fill="#EBEBEB"/>
<path d="M72.8864 78.0769H16.52V90.2593H72.8864V78.0769Z" fill="#E6E6E6"/>
<path d="M72.9632 66.936H18.6032C15.9125 66.936 13.7312 69.1173 13.7312 71.808V74.8464C13.7312 77.5372 15.9125 79.7184 18.6032 79.7184H72.9632C75.6539 79.7184 77.8352 77.5372 77.8352 74.8464V71.808C77.8352 69.1173 75.6539 66.936 72.9632 66.936Z" fill="#F5F5F5"/>
<path d="M25.4384 66.936H18.6944C16.0037 66.936 13.8224 69.1173 13.8224 71.808V74.8464C13.8224 77.5372 16.0037 79.7184 18.6944 79.7184H25.4384C28.1291 79.7184 30.3104 77.5372 30.3104 74.8464V71.808C30.3104 69.1173 28.1291 66.936 25.4384 66.936Z" fill="#E0E0E0"/>
<path d="M17.9648 58.944H10.616C9.34297 58.944 8.12207 59.4497 7.2219 60.3499C6.32172 61.25 5.81601 62.4709 5.81601 63.744V90.264H22.76V63.7392C22.7587 62.4678 22.2531 61.2489 21.3541 60.3499C20.4551 59.4509 19.2362 58.9452 17.9648 58.944Z" fill="#E0E0E0"/>
<path d="M17.9648 58.944H17.8112C16.5382 58.944 15.3173 59.4497 14.4171 60.3499C13.5169 61.25 13.0112 62.4709 13.0112 63.744V90.264H22.76V63.7392C22.7587 62.4678 22.2531 61.2489 21.3541 60.3499C20.4551 59.4509 19.2362 58.9452 17.9648 58.944Z" fill="#F0F0F0"/>
<path d="M95 112.834C146.4 112.834 188.067 109.874 188.067 106.224C188.067 102.574 146.4 99.6145 95 99.6145C43.6004 99.6145 1.9328 102.574 1.9328 106.224C1.9328 109.874 43.6004 112.834 95 112.834Z" fill="#F5F5F5"/>
<path d="M161.557 6.3938H148.597C147.417 6.3938 146.285 6.86259 145.45 7.69706C144.616 8.53152 144.147 9.66329 144.147 10.8434V16.2098C144.147 17.3899 144.616 18.5217 145.45 19.3561C146.285 20.1906 147.417 20.6594 148.597 20.6594H154.136L155.624 25.3586L157.126 20.6594H161.533C162.713 20.6594 163.845 20.1906 164.679 19.3561C165.514 18.5217 165.982 17.3899 165.982 16.2098V10.8434C165.982 9.66743 165.517 8.53928 164.688 7.70551C163.858 6.87173 162.733 6.40014 161.557 6.3938Z" fill="#82DDFF"/>
<path d="M150.046 13.2001C150.046 13.3776 149.994 13.5512 149.895 13.6988C149.796 13.8464 149.656 13.9614 149.492 14.0294C149.328 14.0973 149.148 14.1151 148.974 14.0804C148.8 14.0458 148.64 13.9603 148.514 13.8348C148.389 13.7093 148.303 13.5493 148.268 13.3752C148.234 13.2011 148.252 13.0206 148.32 12.8566C148.387 12.6926 148.503 12.5524 148.65 12.4538C148.798 12.3551 148.971 12.3025 149.149 12.3025C149.267 12.3025 149.383 12.3257 149.492 12.3708C149.601 12.4159 149.7 12.482 149.784 12.5654C149.867 12.6487 149.933 12.7477 149.978 12.8566C150.023 12.9655 150.046 13.0822 150.046 13.2001ZM153.109 12.3025C152.931 12.3025 152.758 12.3551 152.61 12.4538C152.463 12.5524 152.347 12.6926 152.28 12.8566C152.212 13.0206 152.194 13.2011 152.228 13.3752C152.263 13.5493 152.349 13.7093 152.474 13.8348C152.6 13.9603 152.76 14.0458 152.934 14.0804C153.108 14.1151 153.288 14.0973 153.452 14.0294C153.616 13.9614 153.756 13.8464 153.855 13.6988C153.954 13.5512 154.006 13.3776 154.006 13.2001C154.001 12.9654 153.905 12.742 153.737 12.5778C153.569 12.4136 153.344 12.3216 153.109 12.3217V12.3025ZM157.069 12.3025C156.891 12.3025 156.718 12.3551 156.57 12.4538C156.423 12.5524 156.307 12.6926 156.24 12.8566C156.172 13.0206 156.154 13.2011 156.188 13.3752C156.223 13.5493 156.309 13.7093 156.434 13.8348C156.56 13.9603 156.72 14.0458 156.894 14.0804C157.068 14.1151 157.248 14.0973 157.412 14.0294C157.576 13.9614 157.716 13.8464 157.815 13.6988C157.914 13.5512 157.966 13.3776 157.966 13.2001C157.961 12.9654 157.865 12.742 157.697 12.5778C157.529 12.4136 157.304 12.3216 157.069 12.3217V12.3025ZM161.029 12.3025C160.851 12.3025 160.678 12.3551 160.53 12.4538C160.383 12.5524 160.267 12.6926 160.2 12.8566C160.132 13.0206 160.114 13.2011 160.148 13.3752C160.183 13.5493 160.269 13.7093 160.394 13.8348C160.52 13.9603 160.68 14.0458 160.854 14.0804C161.028 14.1151 161.208 14.0973 161.372 14.0294C161.536 13.9614 161.676 13.8464 161.775 13.6988C161.874 13.5512 161.926 13.3776 161.926 13.2001C161.921 12.9654 161.825 12.742 161.657 12.5778C161.489 12.4136 161.264 12.3216 161.029 12.3217V12.3025Z" fill="white"/>
<path d="M28.52 22.2336H15.584C14.9997 22.2336 14.4211 22.3487 13.8812 22.5723C13.3414 22.796 12.8508 23.1237 12.4377 23.5369C12.0245 23.9501 11.6967 24.4406 11.4731 24.9805C11.2495 25.5203 11.1344 26.0989 11.1344 26.6832V32.0496C11.1344 33.2297 11.6032 34.3615 12.4377 35.196C13.2721 36.0304 14.4039 36.4992 15.584 36.4992H21.1232L22.6112 41.1936L24.1136 36.4992H28.52C29.7001 36.4992 30.8319 36.0304 31.6663 35.196C32.5008 34.3615 32.9696 33.2297 32.9696 32.0496V26.6832C32.9696 26.0989 32.8545 25.5203 32.6309 24.9805C32.4073 24.4406 32.0795 23.9501 31.6663 23.5369C31.2532 23.1237 30.7626 22.796 30.2228 22.5723C29.6829 22.3487 29.1043 22.2336 28.52 22.2336Z" fill="#82DDFF"/>
<path d="M17.0096 29.0402C17.0096 29.2178 16.9569 29.3913 16.8583 29.5389C16.7597 29.6865 16.6195 29.8016 16.4555 29.8695C16.2915 29.9374 16.111 29.9552 15.9369 29.9206C15.7628 29.8859 15.6028 29.8005 15.4773 29.6749C15.3518 29.5494 15.2663 29.3895 15.2316 29.2153C15.197 29.0412 15.2148 28.8607 15.2827 28.6967C15.3506 28.5327 15.4657 28.3925 15.6133 28.2939C15.7609 28.1953 15.9345 28.1426 16.112 28.1426C16.35 28.1426 16.5784 28.2372 16.7467 28.4055C16.915 28.5739 17.0096 28.8022 17.0096 29.0402ZM20.072 28.1426C19.8945 28.1426 19.7209 28.1953 19.5733 28.2939C19.4257 28.3925 19.3106 28.5327 19.2427 28.6967C19.1748 28.8607 19.157 29.0412 19.1916 29.2153C19.2263 29.3895 19.3118 29.5494 19.4373 29.6749C19.5628 29.8005 19.7228 29.8859 19.8969 29.9206C20.071 29.9552 20.2515 29.9374 20.4155 29.8695C20.5795 29.8016 20.7197 29.6865 20.8183 29.5389C20.9169 29.3913 20.9696 29.2178 20.9696 29.0402C20.9658 28.8051 20.8694 28.581 20.7013 28.4165C20.5333 28.2521 20.3071 28.1605 20.072 28.1618V28.1426ZM24.032 28.1426C23.8541 28.1407 23.6796 28.1917 23.5307 28.2892C23.3819 28.3867 23.2653 28.5262 23.1959 28.69C23.1265 28.8539 23.1073 29.0346 23.1409 29.2094C23.1744 29.3841 23.2591 29.545 23.3843 29.6715C23.5094 29.7979 23.6693 29.8844 23.8437 29.9198C24.0181 29.9552 24.1991 29.938 24.3636 29.8704C24.5282 29.8027 24.669 29.6877 24.768 29.5399C24.8671 29.3921 24.92 29.2182 24.92 29.0402C24.9162 28.8068 24.8212 28.5841 24.6552 28.4199C24.4892 28.2557 24.2655 28.1631 24.032 28.1618V28.1426ZM27.992 28.1426C27.8145 28.1426 27.6409 28.1953 27.4933 28.2939C27.3457 28.3925 27.2306 28.5327 27.1627 28.6967C27.0948 28.8607 27.077 29.0412 27.1116 29.2153C27.1463 29.3895 27.2318 29.5494 27.3573 29.6749C27.4828 29.8005 27.6428 29.8859 27.8169 29.9206C27.991 29.9552 28.1715 29.9374 28.3355 29.8695C28.4995 29.8016 28.6397 29.6865 28.7383 29.5389C28.8369 29.3913 28.8896 29.2178 28.8896 29.0402C28.8858 28.8051 28.7894 28.581 28.6213 28.4165C28.4533 28.2521 28.2271 28.1605 27.992 28.1618V28.1426Z" fill="white"/>
<path d="M173.24 106.896H112.318C100.938 106.896 100.208 93.4943 109.563 87.187C111.274 86.0498 113.167 85.2152 115.16 84.7198C133.683 79.8478 159.709 47.0974 178.04 60.8014L178.093 60.8398C196.352 74.6398 183.589 106.896 173.24 106.896Z" fill="#263238"/>
<path opacity="0.5" d="M173.24 106.896H112.318C100.938 106.896 100.208 93.4943 109.563 87.187C111.274 86.0498 113.167 85.2152 115.16 84.7198C133.683 79.8478 159.709 47.0974 178.04 60.8014L178.093 60.8398C196.352 74.6398 183.589 106.896 173.24 106.896Z" fill="white"/>
<path opacity="0.2" d="M177.992 60.7775C176.456 60.6767 174.594 61.1087 172.587 62.7887C167.379 67.1567 175.299 88.1855 162.843 96.9311C155.893 101.813 125.907 103.963 115.899 97.9775C108.512 93.5567 108.416 90.7775 109.563 87.1871C111.274 86.0499 113.167 85.2153 115.16 84.7199C133.659 79.8239 159.685 47.0735 177.992 60.7775Z" fill="black"/>
<path d="M130.626 56.8125L126.992 54.2541L129.709 51.4749C129.709 51.4749 132.498 52.9149 132.234 55.4829L130.626 56.8125Z" fill="#E4897B"/>
<path d="M125.566 51.432L128.086 49.848L129.709 51.4752L126.992 54.2544L125.566 51.432Z" fill="#E4897B"/>
<path d="M148.501 50.2031C145.059 51.2159 143.365 57.2687 140.523 62.9855L132.253 54.7679L129.622 57.1007C129.622 57.1007 137.197 69.1343 140.773 69.1343C145.237 69.1343 149.869 56.7359 149.869 56.7359L148.501 50.2031Z" fill="#263238"/>
<path opacity="0.1" d="M149.869 56.7358C149.869 56.7358 149.134 58.699 147.949 61.0558C146.821 63.3502 145.285 66.0238 143.629 67.6414C142.693 68.5486 141.709 69.1246 140.749 69.1246C137.173 69.1246 129.598 57.091 129.598 57.091L132.229 54.7581L140.499 62.9758C143.341 57.259 145.03 51.2062 148.482 50.1934L149.869 56.7358Z" fill="white"/>
<path opacity="0.2" d="M147.968 61.0654C146.84 63.3598 145.304 66.0334 143.648 67.651C143.826 62.1646 146.528 56.8126 146.528 56.8126C147.273 58.1262 147.762 59.5694 147.968 61.0654Z" fill="black"/>
<path d="M145.208 83.6398C145.208 83.6398 116 79.4446 114.454 85.8526C112.827 92.6302 136.28 97.1998 150.296 97.6798C164.312 98.1598 168.334 94.7998 166.083 77.5198H146.883L145.208 83.6398Z" fill="#82DDFF"/>
<path opacity="0.6" d="M145.208 83.6398C145.208 83.6398 116 79.4446 114.454 85.8526C112.827 92.6302 136.28 97.1998 150.296 97.6798C164.312 98.1598 168.334 94.7998 166.083 77.5198H146.883L145.208 83.6398Z" fill="white"/>
<path d="M128.941 97.0031L122.821 97.0079L119.883 97.0127L119.533 93.9167L122.25 93.5519L128.888 92.6687L128.941 97.0031Z" fill="#E4897B"/>
<path d="M120.195 93.528L120.939 97.0608C120.95 97.1072 120.951 97.1553 120.942 97.202C120.933 97.2488 120.915 97.2933 120.888 97.3329C120.862 97.3724 120.828 97.4061 120.788 97.4319C120.748 97.4578 120.703 97.4752 120.656 97.4832L118.894 97.8C118.894 97.8 116.557 98.3952 115.899 97.9776C113.979 96.7488 112.136 88.9824 112.918 88.4064C113.202 88.1952 113.696 88.5168 113.946 88.7712C114.733 89.5728 116.408 91.8144 117.075 92.4768C117.848 93.2544 119.226 93.2784 119.83 93.2448C119.915 93.2408 119.998 93.2671 120.065 93.319C120.132 93.3709 120.178 93.445 120.195 93.528Z" fill="#263238"/>
<path opacity="0.2" d="M128.941 97.0031L122.821 97.0079L122.25 93.5519L128.888 92.6687L128.941 97.0031Z" fill="black"/>
<path d="M137.888 91.5408L143.696 93.4752L146.485 94.4016L145.837 97.4448L143.144 96.9312L136.568 95.6736L137.888 91.5408Z" fill="#E4897B"/>
<path d="M145.088 97.6031L145.496 94.0175C145.502 93.9705 145.517 93.9251 145.541 93.884C145.564 93.8429 145.595 93.8068 145.633 93.7778C145.67 93.7488 145.713 93.7275 145.759 93.7151C145.805 93.7027 145.852 93.6994 145.899 93.7055L147.67 93.9647C147.67 93.9647 150.07 94.1375 150.55 94.7423C151.99 96.5135 151.28 104.467 150.358 104.765C150.018 104.875 149.653 104.414 149.494 104.097C149.014 103.085 148.122 100.425 147.699 99.5903C147.219 98.6063 145.909 98.1503 145.328 97.9871C145.249 97.9618 145.182 97.9093 145.138 97.839C145.094 97.7687 145.076 97.6851 145.088 97.6031Z" fill="#263238"/>
<path opacity="0.2" d="M137.888 91.5408L143.696 93.4752L143.144 96.9312L136.568 95.6736L137.888 91.5408Z" fill="black"/>
<path d="M142.136 97.4685L140.48 97.627L141.469 91.8958L143.37 92.899L142.136 97.4685Z" fill="#82DDFF"/>
<path opacity="0.6" d="M142.136 97.4685L140.48 97.627L141.469 91.8958L143.37 92.899L142.136 97.4685Z" fill="white"/>
<path d="M147.68 99.5471C147.723 99.8068 147.684 100.073 147.57 100.31C147.523 100.381 147.459 100.439 147.383 100.477C147.307 100.515 147.222 100.532 147.138 100.526C147.086 100.529 147.036 100.517 146.99 100.494C146.945 100.47 146.906 100.435 146.878 100.392C146.629 99.9695 147.214 98.6687 147.286 98.5247C147.291 98.5086 147.301 98.4947 147.315 98.4858C147.33 98.4769 147.347 98.4737 147.363 98.4767C147.381 98.4783 147.399 98.4857 147.413 98.4977C147.426 98.5098 147.436 98.526 147.44 98.5439C147.554 98.8693 147.634 99.2054 147.68 99.5471ZM146.989 100.171C146.992 100.214 147.005 100.255 147.027 100.291C147.036 100.309 147.051 100.325 147.069 100.334C147.087 100.344 147.108 100.347 147.128 100.344C147.186 100.351 147.245 100.341 147.298 100.315C147.351 100.29 147.395 100.25 147.426 100.2C147.565 99.7434 147.54 99.2522 147.354 98.8127C147.151 99.2399 147.028 99.7001 146.989 100.171Z" fill="#82DDFF"/>
<path d="M147.454 98.5535V98.5919C147.296 99.0095 146.576 99.8351 146.168 99.7775C146.101 99.7658 146.04 99.732 145.995 99.6815C145.95 99.631 145.923 99.5668 145.918 99.4991C145.9 99.4318 145.896 99.3613 145.908 99.2925C145.92 99.2237 145.946 99.1583 145.986 99.1007C146.283 98.6207 147.315 98.4671 147.373 98.4719C147.389 98.4689 147.405 98.471 147.42 98.4779C147.434 98.4848 147.447 98.4961 147.454 98.5103C147.458 98.5245 147.458 98.5394 147.454 98.5535ZM146.072 99.4319V99.4703C146.101 99.5903 146.149 99.5951 146.173 99.6047C146.413 99.6383 146.965 99.1007 147.205 98.6879C146.795 98.7377 146.414 98.9217 146.12 99.2111C146.079 99.2771 146.061 99.3546 146.067 99.4319H146.072Z" fill="#82DDFF"/>
<path d="M123.378 93.1055C123.378 93.1055 150.55 82.5455 158.874 84.3119C167.197 86.0783 167.235 90.4319 163.016 94.4927C158.797 98.5535 152.494 96.9887 152.494 96.9887C152.494 96.9887 157.448 94.0223 157.102 92.1887C156.757 90.3551 153.608 94.5455 153.608 94.5455C153.608 94.5455 137.187 98.5631 123.627 97.5023L123.378 93.1055Z" fill="#82DDFF"/>
<path d="M117.262 92.5344C117.105 92.3253 117.017 92.0715 117.013 91.8096C117.02 91.7252 117.05 91.6444 117.099 91.5753C117.148 91.5062 117.214 91.4512 117.291 91.416C117.336 91.3912 117.386 91.3782 117.438 91.3782C117.489 91.3782 117.539 91.3912 117.584 91.416C117.997 91.68 118.064 93.1056 118.064 93.2688C118.066 93.2851 118.062 93.3017 118.054 93.3157C118.045 93.3296 118.032 93.3402 118.016 93.3456C118.001 93.3555 117.984 93.3608 117.966 93.3608C117.948 93.3608 117.93 93.3555 117.915 93.3456C117.67 93.0987 117.451 92.8268 117.262 92.5344ZM117.589 91.6608C117.564 91.6262 117.533 91.5968 117.498 91.5744C117.481 91.563 117.462 91.5569 117.442 91.5569C117.423 91.5569 117.403 91.563 117.387 91.5744C117.332 91.5944 117.283 91.63 117.248 91.6768C117.212 91.7236 117.19 91.7797 117.186 91.8384C117.272 92.3079 117.522 92.7315 117.891 93.0336C117.873 92.5617 117.77 92.0968 117.589 91.6608Z" fill="#82DDFF"/>
<path d="M117.915 93.3119V93.2687C117.867 92.8271 118.122 91.7615 118.515 91.6223C118.58 91.602 118.65 91.6042 118.714 91.6286C118.777 91.653 118.831 91.6981 118.866 91.7567C118.956 91.8634 119.001 92.0013 118.99 92.1407C118.942 92.7023 118.098 93.3119 118.03 93.3407C118.017 93.3498 118.001 93.3546 117.985 93.3546C117.969 93.3546 117.953 93.3498 117.939 93.3407C117.929 93.3332 117.921 93.3233 117.915 93.3119ZM118.741 91.8959V91.8623C118.664 91.7711 118.616 91.7903 118.592 91.7951C118.362 91.8719 118.112 92.6015 118.112 93.0815C118.347 92.8847 118.803 92.4719 118.832 92.1215C118.837 92.0436 118.817 91.9662 118.774 91.9007L118.741 91.8959Z" fill="#82DDFF"/>
<path opacity="0.7" d="M123.378 93.1055C123.378 93.1055 150.55 82.5455 158.874 84.3119C167.197 86.0783 167.235 90.4319 163.016 94.4927C158.797 98.5535 152.494 96.9887 152.494 96.9887C152.494 96.9887 157.448 94.0223 157.102 92.1887C156.757 90.3551 153.608 94.5455 153.608 94.5455C153.608 94.5455 137.187 98.5631 123.627 97.5023L123.378 93.1055Z" fill="white"/>
<path d="M123.046 93.0239L124.573 92.3231L125.451 98.0399L123.33 97.6943L123.046 93.0239Z" fill="#82DDFF"/>
<path opacity="0.6" d="M123.046 93.0239L124.573 92.3231L125.451 98.0399L123.33 97.6943L123.046 93.0239Z" fill="white"/>
<path d="M168.013 51.1198C165.08 67.4398 166.146 77.9998 166.146 77.9998C166.146 77.9998 152.499 77.8126 146.893 77.4958C143.902 57.715 148.501 50.1982 148.501 50.1982C149.967 49.9044 151.45 49.7008 152.941 49.5886C153.253 49.5646 153.574 49.5502 153.901 49.5358C156.546 49.534 159.188 49.6831 161.816 49.9822C162.296 50.035 162.819 50.1022 163.309 50.1742C165.81 50.5534 168.013 51.1198 168.013 51.1198Z" fill="#263238"/>
<path opacity="0.1" d="M168.013 51.1198C167.648 53.1454 167.346 55.0846 167.096 56.9182C166.702 59.7982 166.438 62.467 166.266 64.8382C166.213 65.5534 166.165 66.2494 166.131 66.9118C165.992 69.3406 165.954 71.4191 165.958 73.0991C165.958 76.2575 166.146 77.9998 166.146 77.9998C166.146 77.9998 152.499 77.8127 146.893 77.4959C143.898 57.7151 148.506 50.1982 148.506 50.1982C149.97 49.9042 151.451 49.7006 152.941 49.5886C153.253 49.5646 153.574 49.5503 153.901 49.5359C156.546 49.5317 159.188 49.6807 161.816 49.9822C162.296 50.035 162.819 50.1022 163.309 50.1742C165.81 50.5486 168.013 51.1198 168.013 51.1198Z" fill="white"/>
<path opacity="0.2" d="M155.826 69.1343C159.323 68.7189 162.773 67.9765 166.131 66.9167C165.992 69.3455 165.954 71.4239 165.958 73.1039C159.445 73.7039 156.786 72.4511 156.786 72.4511L155.826 69.1343Z" fill="black"/>
<path opacity="0.2" d="M167.096 56.923C166.702 59.803 166.438 62.4718 166.266 64.843C164.398 61.0414 165.786 56.4814 165.786 56.4814L167.096 56.923Z" fill="black"/>
<path d="M156.565 75.8352H146.638C146.446 75.8321 146.261 75.757 146.12 75.6247C145.98 75.4924 145.894 75.3123 145.88 75.12L144.498 61.944C144.488 61.8555 144.497 61.7661 144.525 61.6815C144.553 61.597 144.598 61.5192 144.658 61.4534C144.718 61.3876 144.791 61.3353 144.872 61.2999C144.954 61.2645 145.042 61.2468 145.131 61.248H155.058C155.247 61.2517 155.428 61.3247 155.567 61.4529C155.705 61.5812 155.792 61.7559 155.811 61.944L157.198 75.12C157.211 75.2099 157.204 75.3015 157.178 75.3884C157.151 75.4753 157.106 75.5555 157.046 75.6234C156.986 75.6914 156.912 75.7455 156.829 75.7821C156.746 75.8186 156.656 75.8367 156.565 75.8352Z" fill="#263238"/>
<path opacity="0.6" d="M156.565 75.8352H146.638C146.446 75.8321 146.261 75.757 146.12 75.6247C145.98 75.4924 145.894 75.3123 145.88 75.12L144.498 61.944C144.488 61.8555 144.497 61.7661 144.525 61.6815C144.553 61.597 144.598 61.5192 144.658 61.4534C144.718 61.3876 144.791 61.3353 144.872 61.2999C144.954 61.2645 145.042 61.2468 145.131 61.248H155.058C155.247 61.2517 155.428 61.3247 155.567 61.4529C155.705 61.5812 155.792 61.7559 155.811 61.944L157.198 75.12C157.211 75.2099 157.204 75.3015 157.178 75.3884C157.151 75.4753 157.106 75.5555 157.046 75.6234C156.986 75.6914 156.912 75.7455 156.829 75.7821C156.746 75.8186 156.656 75.8367 156.565 75.8352Z" fill="white"/>
<path opacity="0.2" d="M156.152 75.8352H146.638C146.446 75.8321 146.261 75.757 146.12 75.6247C145.98 75.4924 145.894 75.3123 145.88 75.12L144.498 61.944C144.488 61.8555 144.497 61.7661 144.525 61.6815C144.553 61.597 144.598 61.5192 144.658 61.4534C144.718 61.3876 144.791 61.3353 144.872 61.2999C144.954 61.2645 145.042 61.2468 145.131 61.248H154.645C154.834 61.2517 155.015 61.3247 155.154 61.4529C155.293 61.5812 155.38 61.7559 155.398 61.944L156.786 75.12C156.798 75.2099 156.791 75.3015 156.765 75.3884C156.738 75.4753 156.694 75.5555 156.633 75.6234C156.573 75.6914 156.499 75.7455 156.416 75.7821C156.333 75.8186 156.243 75.8367 156.152 75.8352Z" fill="white"/>
<path d="M150.363 67.4735C150.226 67.4725 150.091 67.5006 149.966 67.5562C149.841 67.6118 149.729 67.6934 149.638 67.7957C149.547 67.898 149.479 68.0185 149.439 68.1492C149.398 68.2799 149.386 68.4178 149.403 68.5535C149.431 68.8448 149.566 69.1154 149.781 69.3137C149.996 69.5121 150.277 69.6242 150.57 69.6287C150.706 69.6297 150.841 69.6016 150.966 69.5464C151.09 69.4911 151.202 69.4099 151.293 69.3081C151.383 69.2064 151.452 69.0865 151.492 68.9564C151.533 68.8263 151.546 68.6889 151.53 68.5535C151.237 68.5478 150.956 68.4347 150.741 68.2356C150.526 68.0364 150.391 67.7653 150.363 67.4735Z" fill="#263238"/>
<path opacity="0.3" d="M152.514 62.3135H147.267C147.138 62.3117 147.012 62.2739 146.904 62.2044C146.795 62.1348 146.708 62.0363 146.653 61.9199L146.341 61.2671H153.262L153.08 61.9199C153.044 62.0401 152.969 62.1445 152.866 62.216C152.763 62.2876 152.639 62.3219 152.514 62.3135Z" fill="black"/>
<path d="M155.595 68.712L153.301 68.5248L153.397 71.5776L155.317 72.5856L159.742 72.1824L160.102 70.1232C158.648 67.992 155.595 68.712 155.595 68.712Z" fill="#E4897B"/>
<path d="M168.013 51.1199C170.37 51.8303 173.71 65.5199 173.178 68.5439C172.645 71.5679 166.832 72.8639 159.445 72.6959V69.1247L168.013 66.6239L166.573 61.3439C166.573 61.3439 165.382 57.4607 165.915 54.7439C166.208 53.3422 166.943 52.0717 168.013 51.1199Z" fill="#263238"/>
<path opacity="0.1" d="M168.013 51.1199C170.37 51.8303 173.71 65.5199 173.178 68.5439C172.645 71.5679 166.832 72.8639 159.445 72.6959V69.1247L168.013 66.6239L166.573 61.3439C166.573 61.3439 165.382 57.4607 165.915 54.7439C166.208 53.3422 166.943 52.0717 168.013 51.1199Z" fill="white"/>
<path d="M160.674 49.8287C159.478 51.0767 157.602 52.1231 154.592 52.0127C152.283 51.9215 151.962 50.4719 152.365 49.6751C153.766 49.3871 154.4 48.7775 154.597 47.9999C154.794 47.2223 154.52 46.1759 154.117 45.2063L158.01 41.9279L158.667 41.3711C158.667 41.5583 158.643 41.7551 158.634 41.9615C158.588 42.7224 158.588 43.4854 158.634 44.2463C158.763 46.3919 159.272 48.7199 160.674 49.8287Z" fill="#E4897B"/>
<path opacity="0.2" d="M158.638 44.2461C157.914 45.7293 156.642 47.5197 154.597 47.9997C154.808 47.1741 154.52 46.1757 154.117 45.2061L158.01 41.9277C158.216 41.9277 158.427 41.9277 158.634 41.9613C158.59 42.7224 158.591 43.4853 158.638 44.2461Z" fill="black"/>
<path d="M149.72 35.4096C149.149 36.7152 149.077 39.5184 151.064 38.8224C153.051 38.1264 150.68 33.168 149.72 35.4096Z" fill="#263238"/>
<path d="M159.238 38.3036C159.066 41.798 159.147 43.8572 157.4 45.6572C154.77 48.3644 150.43 46.7708 149.547 43.286C148.76 40.142 149.173 34.9532 152.581 33.5516C153.337 33.2419 154.159 33.129 154.97 33.2232C155.782 33.3174 156.556 33.6157 157.221 34.0903C157.886 34.5649 158.42 35.2002 158.772 35.937C159.125 36.6738 159.286 37.488 159.238 38.3036Z" fill="#E4897B"/>
<path d="M153.939 39.2926C153.939 39.5758 153.795 39.811 153.608 39.811C153.421 39.811 153.267 39.5806 153.262 39.2926C153.258 39.0046 153.411 38.7791 153.594 38.7791C153.776 38.7791 153.934 39.0094 153.939 39.2926Z" fill="#263238"/>
<path d="M150.714 39.3024C150.714 39.5856 150.57 39.816 150.382 39.816C150.195 39.816 150.042 39.5856 150.042 39.3024C150.042 39.0192 150.186 38.7888 150.373 38.7888C150.56 38.7888 150.714 39.0144 150.714 39.3024Z" fill="#263238"/>
<path d="M151.741 39.4414C151.401 40.2846 150.946 41.0762 150.387 41.7934C150.585 41.9237 150.809 42.0111 151.043 42.05C151.276 42.0888 151.516 42.0783 151.746 42.019L151.741 39.4414Z" fill="#DE5753"/>
<path d="M154.918 38.2511C154.89 38.2554 154.86 38.2519 154.833 38.2409C154.806 38.2299 154.782 38.2119 154.765 38.1887C154.641 38.0182 154.478 37.879 154.291 37.7823C154.103 37.6857 153.896 37.6342 153.685 37.6319C153.64 37.6347 153.597 37.6202 153.563 37.5916C153.529 37.563 153.507 37.5225 153.502 37.4783C153.5 37.4562 153.503 37.434 153.51 37.4129C153.516 37.3917 153.527 37.3721 153.541 37.3552C153.555 37.3382 153.573 37.3242 153.593 37.3141C153.612 37.3039 153.634 37.2977 153.656 37.2959C153.923 37.2942 154.186 37.3555 154.425 37.4748C154.663 37.594 154.87 37.768 155.029 37.9823C155.056 38.0174 155.068 38.0618 155.063 38.1059C155.058 38.1499 155.035 38.1901 155 38.2175C154.976 38.2356 154.948 38.2472 154.918 38.2511Z" fill="#263238"/>
<path d="M149.312 38.198C149.281 38.2071 149.247 38.2071 149.216 38.198C149.196 38.1883 149.178 38.1748 149.164 38.1582C149.149 38.1415 149.138 38.1222 149.131 38.1012C149.124 38.0803 149.121 38.0581 149.122 38.036C149.124 38.0139 149.129 37.9923 149.139 37.9724C149.246 37.7283 149.409 37.5135 149.617 37.3463C149.824 37.1792 150.068 37.0646 150.33 37.0124C150.352 37.0098 150.374 37.0115 150.395 37.0176C150.417 37.0236 150.437 37.0339 150.454 37.0477C150.472 37.0616 150.486 37.0787 150.497 37.0982C150.508 37.1177 150.514 37.1391 150.517 37.1613C150.52 37.1827 150.519 37.2046 150.514 37.2257C150.509 37.2468 150.5 37.2667 150.487 37.2841C150.474 37.3016 150.457 37.3162 150.439 37.3273C150.42 37.3383 150.399 37.3455 150.378 37.3485C150.172 37.3872 149.978 37.4763 149.815 37.6078C149.652 37.7392 149.523 37.909 149.442 38.1021C149.429 38.1271 149.411 38.1489 149.388 38.1656C149.366 38.1823 149.34 38.1934 149.312 38.198Z" fill="#263238"/>
<path d="M153.747 35.5008C153.747 35.5008 154.707 34.8096 155.149 35.5536C155.59 36.2976 155.562 38.28 155.562 38.28L155.754 37.9296C155.754 37.9296 156.997 42.3456 158.797 41.232C160.597 40.1184 163.242 35.6352 159.037 33.3504C159.037 33.3504 158.59 32.2848 155.811 31.7568C153.032 31.2288 149.672 32.9472 149.091 34.7856C148.51 36.624 149.322 37.6656 149.322 37.6656C149.411 37.2654 149.593 36.892 149.854 36.576C149.892 36.7633 149.975 36.9385 150.096 37.0859C150.218 37.2333 150.374 37.3483 150.55 37.4208C150.522 37.0451 150.6 36.6691 150.776 36.336C150.868 36.6626 151.032 36.9644 151.256 37.2192C151.458 35.328 152.744 34.944 153.147 34.9584C153.292 34.9743 153.427 35.0353 153.535 35.1326C153.643 35.23 153.717 35.3588 153.747 35.5008Z" fill="#263238"/>
<path d="M160.626 41.1984C160.497 41.6143 160.288 42.0005 160.009 42.335C159.731 42.6695 159.389 42.9455 159.003 43.1472C157.966 43.68 157.208 42.8016 157.294 41.7072C157.371 40.7136 158 39.24 159.138 39.168C159.386 39.1568 159.634 39.2072 159.859 39.3148C160.084 39.4224 160.278 39.5838 160.425 39.7847C160.573 39.9856 160.668 40.2198 160.703 40.4665C160.738 40.7131 160.711 40.9645 160.626 41.1984Z" fill="#E4897B"/>
<path d="M151.856 43.1902C152.156 43.5038 152.432 43.8391 152.682 44.1934L152.888 44.0926C153.814 43.6126 154.093 43.099 154.117 42.6526C154.123 42.4374 154.079 42.2236 153.987 42.0286C153.938 41.9175 153.874 41.814 153.795 41.7214C153.353 42.2661 152.798 42.7083 152.168 43.0174C151.981 43.1326 151.856 43.1902 151.856 43.1902Z" fill="#263238"/>
<path d="M152.168 43.027L152.422 43.315C153.291 42.8734 153.862 42.4413 153.987 42.0381C153.938 41.927 153.874 41.8236 153.795 41.731C153.353 42.2756 152.798 42.7178 152.168 43.027Z" fill="white"/>
<path d="M152.888 44.0928C153.814 43.6128 154.093 43.0992 154.117 42.6528C153.768 42.8381 153.454 43.0834 153.19 43.3776C153.016 43.578 152.911 43.8284 152.888 44.0928Z" fill="#A24E3F"/>
<path d="M68.3168 54.5668L68.5664 57.2308C68.5664 57.2308 84.1568 59.602 86.6528 62.0308C89.1488 64.4597 98.0048 102.874 98.0048 102.874L94.4336 103.354C94.4336 103.354 82.04 75.034 81.3776 70.9348C81.3776 70.9348 70.4624 71.3428 63.0128 71.3428C55.5632 71.3428 54.6752 54.5428 54.6752 54.5428L68.3168 54.5668Z" fill="#82DDFF"/>
<path opacity="0.3" d="M98.0048 102.879L94.4336 103.359C94.4336 103.359 89.3648 91.7764 85.5392 82.354C83.3744 77.0404 81.6128 72.4132 81.3776 70.9348C81.3776 70.9348 73.8224 71.2132 66.9776 71.3092C65.5952 71.3092 64.2464 71.338 62.9936 71.338C55.544 71.338 54.656 54.538 54.656 54.538H68.2976L68.5472 57.202C68.5472 57.202 84.1424 59.5684 86.6336 62.002C89.1248 64.4356 98.0048 102.879 98.0048 102.879Z" fill="white"/>
<path d="M100.76 106.32C98.36 106.32 98.0384 106.282 96.6848 106.234C95.528 106.196 95.2448 106.34 94.3232 106.32C93.5456 106.32 93.5744 105.557 93.8144 104.703C93.9344 104.271 94.1168 103.364 94.2944 102.672L97.8176 102.413C98.2976 103.373 99.4304 104.712 100.784 104.895C102.138 105.077 101.72 106.32 100.76 106.32Z" fill="#263238"/>
<path opacity="0.2" d="M85.5392 82.3733C83.3744 77.0597 81.6128 72.4325 81.3776 70.9541C81.3776 70.9541 73.8224 71.2325 66.9776 71.3285L66.2384 58.2773C66.2384 58.2773 75.8768 59.6597 82.3568 65.2421C83.1776 65.9333 84.776 76.6229 85.5392 82.3733Z" fill="black"/>
<path d="M82.1792 73.8387H54.2864V72.1252C54.2864 71.5536 54.5135 71.0054 54.9176 70.6012C55.3218 70.197 55.87 69.9699 56.4416 69.9699H80.024C80.5956 69.9699 81.1438 70.197 81.548 70.6012C81.9521 71.0054 82.1792 71.5536 82.1792 72.1252V73.8387Z" fill="#263238"/>
<path opacity="0.2" d="M82.1792 73.8387H54.2864V72.1252C54.2864 71.5536 54.5135 71.0054 54.9176 70.6012C55.3218 70.197 55.87 69.9699 56.4416 69.9699H80.024C80.5956 69.9699 81.1438 70.197 81.548 70.6012C81.9521 71.0054 82.1792 71.5536 82.1792 72.1252V73.8387Z" fill="white"/>
<path d="M81.2096 98.9188L70.4576 97.9828V83.8612H66.68V97.978L55.8896 98.938C55.4308 98.9833 55.0053 99.1975 54.6957 99.539C54.3861 99.8806 54.2145 100.325 54.2144 100.786V102.226H82.8896V100.786C82.8941 100.321 82.7241 99.8712 82.413 99.5254C82.1019 99.1797 81.6725 98.9632 81.2096 98.9188Z" fill="#263238"/>
<path d="M57.6896 103.978C57.6896 104.467 57.5446 104.945 57.273 105.351C57.0014 105.758 56.6153 106.075 56.1636 106.262C55.7119 106.449 55.2148 106.498 54.7353 106.402C54.2558 106.307 53.8153 106.072 53.4696 105.726C53.1239 105.38 52.8885 104.94 52.7931 104.46C52.6977 103.981 52.7467 103.484 52.9338 103.032C53.1209 102.58 53.4377 102.194 53.8442 101.923C54.2507 101.651 54.7287 101.506 55.2176 101.506C55.8732 101.506 56.502 101.766 56.9656 102.23C57.4291 102.694 57.6896 103.322 57.6896 103.978Z" fill="#263238"/>
<path d="M81.8768 106.45C83.242 106.45 84.3488 105.343 84.3488 103.978C84.3488 102.613 83.242 101.506 81.8768 101.506C80.5115 101.506 79.4048 102.613 79.4048 103.978C79.4048 105.343 80.5115 106.45 81.8768 106.45Z" fill="#263238"/>
<path d="M66.0272 72.9172H71.1104V84.9604C71.1104 85.4327 70.9228 85.8857 70.5888 86.2196C70.2549 86.5536 69.8019 86.7412 69.3296 86.7412H67.8128C67.3405 86.7412 66.8876 86.5536 66.5536 86.2196C66.2196 85.8857 66.032 85.4327 66.032 84.9604V72.9172H66.0272Z" fill="#263238"/>
<path opacity="0.2" d="M66.0272 72.9172H71.1104V84.9604C71.1104 85.4327 70.9228 85.8857 70.5888 86.2196C70.2549 86.5536 69.8019 86.7412 69.3296 86.7412H67.8128C67.3405 86.7412 66.8876 86.5536 66.5536 86.2196C66.2196 85.8857 66.032 85.4327 66.032 84.9604V72.9172H66.0272Z" fill="white"/>
<path d="M54.0896 74.2853H82.3712C82.851 74.2853 83.24 73.8963 83.24 73.4165V73.2197C83.24 72.7399 82.851 72.3509 82.3712 72.3509H54.0896C53.6098 72.3509 53.2208 72.7399 53.2208 73.2197V73.4165C53.2208 73.8963 53.6098 74.2853 54.0896 74.2853Z" fill="#263238"/>
<path opacity="0.2" d="M57.6896 103.978C57.6896 104.467 57.5446 104.945 57.273 105.351C57.0014 105.758 56.6153 106.075 56.1636 106.262C55.7119 106.449 55.2148 106.498 54.7353 106.402C54.2558 106.307 53.8153 106.072 53.4696 105.726C53.1239 105.38 52.8885 104.94 52.7931 104.46C52.6977 103.981 52.7467 103.484 52.9338 103.032C53.1209 102.58 53.4377 102.194 53.8442 101.923C54.2507 101.651 54.7287 101.506 55.2176 101.506C55.8732 101.506 56.502 101.766 56.9656 102.23C57.4291 102.694 57.6896 103.322 57.6896 103.978Z" fill="white"/>
<path opacity="0.2" d="M81.8768 106.45C83.242 106.45 84.3488 105.343 84.3488 103.978C84.3488 102.613 83.242 101.506 81.8768 101.506C80.5115 101.506 79.4048 102.613 79.4048 103.978C79.4048 105.343 80.5115 106.45 81.8768 106.45Z" fill="white"/>
<path d="M84.5504 50.093H75.9344C73.4096 50.093 71.5856 47.8226 71.864 45.029L72.2288 41.2946C72.5072 38.4962 74.7728 36.2258 77.2976 36.2258H85.9136C88.4384 36.2258 90.2624 38.4962 89.9888 41.2946L89.6192 45.029C89.3456 47.8226 87.0752 50.093 84.5504 50.093Z" fill="#263238"/>
<path opacity="0.2" d="M84.5504 50.093H75.9344C73.4096 50.093 71.5856 47.8226 71.864 45.029L72.2288 41.2946C72.5072 38.4962 74.7728 36.2258 77.2976 36.2258H85.9136C88.4384 36.2258 90.2624 38.4962 89.9888 41.2946L89.6192 45.029C89.3456 47.8226 87.0752 50.093 84.5504 50.093Z" fill="white"/>
<path d="M83.7584 48.2739H78.68C77.1872 48.2739 76.1072 46.9347 76.28 45.2787L76.5008 43.0755C76.6592 41.4195 78.0032 40.0803 79.496 40.0803H84.584C86.0768 40.0803 87.1568 41.4195 86.984 43.0755L86.7632 45.2787C86.5904 46.9347 85.2512 48.2739 83.7584 48.2739Z" fill="#263238"/>
<path d="M79.7168 44.981C79.7168 44.981 78.5552 68.333 73.5248 72.341H78.9056C78.9056 72.341 83.7056 64.3874 84.056 44.981H79.7168Z" fill="#263238"/>
<path d="M84.0464 35.2515L84.9728 34.7715C85.1467 34.6826 85.3391 34.6362 85.5344 34.6362C85.7297 34.6362 85.9221 34.6826 86.096 34.7715L87.7568 35.5875C88.0838 35.7482 88.3674 35.9852 88.5837 36.2784C88.8001 36.5716 88.9428 36.9124 89 37.2723L89.0768 37.7283C87.5936 38.6595 85.3088 38.5731 85.3088 38.5731L84.6512 38.6259C84.5171 38.6398 84.3815 38.6269 84.2524 38.5879C84.1234 38.549 84.0033 38.4848 83.8992 38.399C83.7952 38.3133 83.7092 38.2077 83.6463 38.0884C83.5834 37.9692 83.5448 37.8386 83.5328 37.7043L83.4176 36.4083C83.3957 36.1748 83.4438 35.9401 83.5558 35.7341C83.6678 35.5281 83.8386 35.3601 84.0464 35.2515Z" fill="#B97964"/>
<path opacity="0.2" d="M84.0464 35.2515L84.9728 34.7715C85.1467 34.6826 85.3391 34.6362 85.5344 34.6362C85.7297 34.6362 85.9221 34.6826 86.096 34.7715L87.7568 35.5875C88.0838 35.7482 88.3674 35.9852 88.5837 36.2784C88.8001 36.5716 88.9428 36.9124 89 37.2723L89.0768 37.7283C87.5936 38.6595 85.3088 38.5731 85.3088 38.5731L84.6512 38.6259C84.5171 38.6398 84.3815 38.6269 84.2524 38.5879C84.1234 38.549 84.0033 38.4848 83.8992 38.399C83.7952 38.3133 83.7092 38.2077 83.6463 38.0884C83.5834 37.9692 83.5448 37.8386 83.5328 37.7043L83.4176 36.4083C83.3957 36.1748 83.4438 35.9401 83.5558 35.7341C83.6678 35.5281 83.8386 35.3601 84.0464 35.2515Z" fill="black"/>
<path d="M77.24 36.3941L73.88 40.6421H70.6832L71.1008 34.7141C73.52 35.1797 77.24 36.3941 77.24 36.3941Z" fill="#82DDFF"/>
<path opacity="0.2" d="M73.5968 40.642H70.832L72.5504 36.394C72.5504 36.394 73.5344 37.8868 73.5968 40.642Z" fill="black"/>
<path d="M68.5232 56.17L54.4544 54.8644C54.896 53.3668 55.2848 51.898 55.6112 50.482C56.024 48.7492 56.3504 47.0884 56.6096 45.538C56.8688 43.9876 57.0896 42.5476 57.2432 41.242L57.2864 40.8724C57.2864 40.666 57.3344 40.4644 57.3536 40.2724C57.4928 39.01 57.5792 37.9108 57.6368 37.0036C57.7568 35.2324 57.7568 34.21 57.7568 34.21C62.5771 33.287 67.5516 33.5823 72.2288 35.0692C74.3216 40.9636 68.5232 56.17 68.5232 56.17Z" fill="#82DDFF"/>
<path d="M68.4752 36.0102C68.2615 36.453 67.9348 36.8315 67.528 37.1076C67.1213 37.3837 66.6488 37.5475 66.1585 37.5826C65.6681 37.6176 65.1772 37.5227 64.7352 37.3073C64.2933 37.0919 63.9161 36.7637 63.6416 36.3558L63.032 35.4486L62.2832 34.3206C63.5408 33.5766 64.0352 31.1958 64.2032 29.151C64.256 28.5078 64.2752 27.903 64.2752 27.3894L67.4336 31.7094C67.2127 32.1669 67.0513 32.6508 66.9536 33.1494C66.9136 33.3549 66.8975 33.5642 66.9056 33.7734C66.9104 34.6134 67.328 35.391 68.4752 36.0102Z" fill="#B97964"/>
<path opacity="0.2" d="M67.424 31.7334C67.2031 32.1909 67.0417 32.6748 66.944 33.1734C66.1136 34.239 64.8224 35.367 63.0416 35.439L62.2832 34.3206C63.5408 33.5766 64.0352 31.1958 64.2032 29.151C64.256 28.5078 64.2752 27.903 64.2752 27.3894L67.424 31.7334Z" fill="black"/>
<path d="M59.8352 24.5187C59.8352 24.5187 58.2752 23.9331 58.736 22.8531C59.1968 21.7731 59.7536 21.7827 59.7536 21.7827C59.5178 21.3411 59.3897 20.8501 59.3797 20.3496C59.3697 19.8491 59.4781 19.3534 59.696 18.9027C60.4688 17.4627 62.1776 18.0483 62.1776 18.0483C62.1844 17.596 62.3449 17.1594 62.6328 16.8105C62.9207 16.4615 63.3188 16.2209 63.7616 16.1283C64.2136 16.0535 64.6776 16.1284 65.0831 16.3415C65.4886 16.5547 65.8133 16.8944 66.008 17.3091C66.008 17.3091 67.0832 15.9123 68.6576 16.2963C70.232 16.6803 70.5488 18.8739 70.5488 18.8739C70.9788 18.7337 71.4463 18.7647 71.854 18.9605C72.2617 19.1563 72.5782 19.5018 72.7376 19.9251C72.9517 20.3669 73.0411 20.8588 72.9963 21.3477C72.9515 21.8366 72.7741 22.304 72.4832 22.6995C72.4832 22.6995 73.4864 22.2195 73.8176 23.8371C74.1488 25.4547 72.4592 26.8755 72.4592 26.8755C72.4592 26.8755 73.3712 26.9859 72.9008 28.1811C72.4304 29.3763 70.9472 29.3955 70.9472 29.3955C70.9472 29.3955 71.5232 29.6883 70.4336 30.6723C69.344 31.6563 65.8352 30.2499 65.8352 30.2499L59.8352 24.5187Z" fill="#263238"/>
<path d="M64.1264 21.9555C60.7664 22.1283 59.8064 23.9811 59.7248 27.4515C59.6432 31.7715 60.7616 34.8003 64.904 33.6579C70.52 32.1075 69.6944 21.6627 64.1264 21.9555Z" fill="#B97964"/>
<path d="M61.88 27.1494C61.6381 27.6639 61.3351 28.1474 60.9776 28.5894C61.0835 28.7231 61.2242 28.8252 61.3841 28.8845C61.5441 28.9437 61.7173 28.9579 61.8848 28.9254L61.88 27.1494Z" fill="#A24E3F"/>
<path d="M63.92 26.7651C63.92 27.0435 64.0832 27.2451 64.2656 27.2451C64.448 27.2451 64.592 27.0147 64.5872 26.7363C64.5824 26.4579 64.424 26.2563 64.2368 26.2563C64.0496 26.2563 63.9104 26.4915 63.92 26.7651Z" fill="#263238"/>
<path d="M64.3136 26.2708L63.7088 26.05C63.7088 26.05 64.0208 26.5492 64.3136 26.2708Z" fill="#263238"/>
<path d="M60.488 26.8086C60.488 27.087 60.6512 27.2886 60.8384 27.2886C61.0256 27.2886 61.1648 27.0582 61.1552 26.7798C61.1456 26.5014 60.992 26.2998 60.8096 26.2998C60.6272 26.2998 60.4832 26.535 60.488 26.8086Z" fill="#263238"/>
<path d="M60.8864 26.3093L60.2768 26.0933C60.2768 26.0933 60.5936 26.5877 60.8864 26.3093Z" fill="#263238"/>
<path d="M65.312 25.0227C65.2919 25.023 65.272 25.0189 65.2538 25.0106C65.2355 25.0023 65.2193 24.99 65.2064 24.9747C65.0252 24.8129 64.8097 24.6944 64.5761 24.6279C64.3425 24.5614 64.0968 24.5486 63.8576 24.5907C63.839 24.5941 63.8199 24.5939 63.8014 24.59C63.7829 24.5861 63.7653 24.5786 63.7497 24.5679C63.7341 24.5572 63.7208 24.5435 63.7105 24.5276C63.7002 24.5118 63.6931 24.4941 63.6896 24.4755C63.684 24.4386 63.6928 24.4011 63.7143 24.3706C63.7358 24.3402 63.7682 24.3193 63.8048 24.3123C64.0924 24.2597 64.3884 24.2758 64.6687 24.3592C64.9489 24.4426 65.2055 24.591 65.4176 24.7923C65.444 24.8192 65.4588 24.8554 65.4588 24.8931C65.4588 24.9307 65.444 24.9669 65.4176 24.9939C65.3873 25.0165 65.3496 25.0268 65.312 25.0227Z" fill="#263238"/>
<path d="M60.0656 24.9218C60.0437 24.9217 60.0222 24.917 60.0023 24.9079C59.9824 24.8988 59.9647 24.8855 59.9504 24.869C59.9275 24.8385 59.9176 24.8001 59.923 24.7623C59.9284 24.7245 59.9486 24.6903 59.9792 24.6674C60.1762 24.5019 60.4079 24.3828 60.6572 24.3188C60.9064 24.2549 61.1668 24.2477 61.4192 24.2978C61.4376 24.3033 61.4547 24.3124 61.4696 24.3246C61.4844 24.3368 61.4967 24.3518 61.5056 24.3688C61.5146 24.3858 61.52 24.4044 61.5217 24.4235C61.5233 24.4427 61.5211 24.462 61.5152 24.4802C61.5031 24.5154 61.4779 24.5446 61.4448 24.5616C61.4117 24.5786 61.3732 24.5821 61.3376 24.5714C61.1266 24.5335 60.9099 24.5431 60.7031 24.5995C60.4963 24.656 60.3048 24.7579 60.1424 24.8978C60.1195 24.9127 60.0929 24.921 60.0656 24.9218Z" fill="#263238"/>
<path d="M68.0864 27.4133C68.0864 27.4133 66.3728 24.7397 66.5024 22.6133C66.5024 22.6133 59.7152 20.2469 59.7392 27.0053C59.7392 27.0053 58.7792 21.0533 64.5392 20.6165C70.2992 20.1797 70.712 28.6133 67.8656 31.2821C67.8608 31.2725 69.1472 29.0837 68.0864 27.4133Z" fill="#263238"/>
<path d="M67.5776 28.1524C67.5819 27.9585 67.6246 27.7673 67.703 27.5899C67.7814 27.4124 67.8941 27.2522 68.0345 27.1184C68.175 26.9846 68.3405 26.8799 68.5216 26.8102C68.7026 26.7406 68.8957 26.7073 69.0896 26.7124C70.136 26.7748 70.7408 28.882 68.1824 29.53C67.8176 29.6308 67.5872 29.2804 67.5776 28.1524Z" fill="#B97964"/>
<path d="M62.6912 30.8785C62.5953 30.8854 62.4991 30.8854 62.4032 30.8785C62.3846 30.875 62.3669 30.8679 62.351 30.8576C62.3352 30.8473 62.3215 30.834 62.3108 30.8184C62.3001 30.8028 62.2926 30.7852 62.2887 30.7667C62.2848 30.7482 62.2845 30.7291 62.288 30.7105C62.2909 30.6921 62.2975 30.6745 62.3073 30.6586C62.3171 30.6428 62.33 30.6291 62.3452 30.6184C62.3605 30.6076 62.3777 30.6001 62.3959 30.5961C62.4141 30.5921 62.4329 30.5919 62.4512 30.5953C62.8128 30.6589 63.1852 30.5987 63.5083 30.4245C63.8314 30.2503 64.0864 29.9723 64.232 29.6353C64.2389 29.6177 64.2493 29.6015 64.2624 29.5879C64.2756 29.5742 64.2913 29.5633 64.3087 29.5557C64.3261 29.5482 64.3448 29.5441 64.3638 29.5437C64.3827 29.5434 64.4016 29.5468 64.4192 29.5537C64.4369 29.5606 64.453 29.571 64.4666 29.5841C64.4803 29.5973 64.4912 29.613 64.4988 29.6304C64.5064 29.6478 64.5104 29.6665 64.5108 29.6854C64.5111 29.7044 64.5077 29.7233 64.5008 29.7409C64.3536 30.0942 64.1006 30.3932 63.7766 30.5969C63.4526 30.8006 63.0734 30.899 62.6912 30.8785Z" fill="#263238"/>
<path d="M69.32 26.1892C68.5184 22.0276 62.3648 18.5332 60.056 23.3716C60.4431 22.1589 61.1918 21.0937 62.2016 20.3188C62.2016 20.3188 68.4416 18.538 69.5408 25.6468L69.32 26.1892Z" fill="#82DDFF"/>
<path d="M66.0416 106.32C63.6416 106.32 63.32 106.282 61.9664 106.234C60.8096 106.196 60.5264 106.34 59.6048 106.32C58.8272 106.32 58.856 105.557 59.096 104.703C59.216 104.271 59.3984 103.364 59.576 102.672L63.0992 102.413C63.5792 103.373 64.712 104.712 66.0656 104.895C67.4192 105.077 66.9968 106.32 66.0416 106.32Z" fill="#263238"/>
<path d="M54.68 54.5667C54.68 54.5667 49.88 61.7042 52.4816 67.5698C55.0832 73.4354 68.24 70.7859 68.24 70.7859L59.5712 102.687L63.7184 103.373C63.7184 103.373 78.4208 71.7555 78.7952 66.3651C79.1696 60.9747 63.296 57.5139 63.296 57.5139L54.68 54.5667Z" fill="#82DDFF"/>
<path opacity="0.3" d="M54.68 54.5667C54.68 54.5667 49.88 61.7042 52.4816 67.5698C55.0832 73.4354 68.24 70.7859 68.24 70.7859L59.5712 102.687L63.7184 103.373C63.7184 103.373 78.4208 71.7555 78.7952 66.3651C79.1696 60.9747 63.296 57.5139 63.296 57.5139L54.68 54.5667Z" fill="white"/>
<path opacity="0.2" d="M69.32 38.1602C69.32 38.1602 62.6 42.893 57.2864 40.8578C57.2864 40.6514 57.3344 40.4498 57.3536 40.2578C57.4928 38.9954 57.5792 37.8962 57.6368 36.989C59.3588 36.2022 61.1465 35.5678 62.9792 35.093C64.8658 36.5302 67.0222 37.5733 69.32 38.1602Z" fill="black"/>
<path d="M59.96 34.2196C62.9168 35.6596 65.9696 37.45 69.1904 38.1076C71.0432 37.9876 73.1168 37.234 74.9792 36.7252L80.5616 35.0356C80.8007 34.9603 81.0593 34.9769 81.2869 35.082C81.5145 35.1871 81.6947 35.3733 81.7925 35.6041C81.8902 35.835 81.8984 36.094 81.8155 36.3305C81.7326 36.5671 81.5645 36.7643 81.344 36.8836C79.6016 37.8436 77.8448 38.7268 76.0256 39.5332C73.7792 40.4548 71.7056 41.53 69.1712 41.7604C68.2617 41.7498 67.3576 41.6174 66.4832 41.3668C63.5323 40.5012 60.6912 39.298 58.016 37.7812C57.5903 37.5027 57.2847 37.0746 57.1596 36.5815C57.0345 36.0885 57.099 35.5664 57.3404 35.1187C57.5818 34.6709 57.9824 34.3301 58.4631 34.1636C58.9438 33.9971 59.4694 34.0171 59.936 34.2196H59.96Z" fill="#B97864"/>
<path d="M58.3712 33.6867C55.784 34.3011 55.6976 38.7411 58.0736 40.8243L63.8336 35.9619C63.8336 35.9619 61.4384 32.9571 58.3712 33.6867Z" fill="#82DDFF"/>
<path d="M80.7104 35.0595L83.9024 34.9827L82.4624 38.2131C82.4624 38.2131 79.5824 38.1123 79.7216 36.6435L80.7104 35.0595Z" fill="#B97964"/>
<path d="M86.6432 36.5619L84.4544 38.9187L82.4528 38.2131L83.9024 34.9827L86.6432 36.5619Z" fill="#B97964"/>
<path d="M129.502 73.9248C131.734 78.5424 133.885 83.16 135.339 88.104C136.006 91.464 136.131 94.8816 136.381 98.2176C136.554 100.978 136.654 103.733 136.693 106.502L134.221 106.762C133.438 102.869 132.704 98.5248 132.022 94.5984C131.696 92.8224 131.446 91.0752 131 89.3664C129.301 84.9648 126.944 80.4336 124.99 76.104L129.502 73.9248Z" fill="#DC897C"/>
<path d="M133.189 79.968L129.277 81.84L126.848 83.016L125.374 79.4736L123.834 75.7632L125.134 69C129.128 70.7472 133.189 79.968 133.189 79.968Z" fill="#82DDFF"/>
<path opacity="0.2" d="M129.277 81.84L126.848 83.016L125.374 79.4736C125.677 77.4672 125.931 75.7632 125.931 75.7632C125.931 75.7632 128.773 78.312 129.277 81.84Z" fill="black"/>
<path d="M117.56 56.736C117.603 57.024 117.79 57.216 117.978 57.216C118.165 57.216 118.28 56.9328 118.237 56.6448C118.194 56.3568 118.002 56.1648 117.814 56.1648C117.627 56.1648 117.488 56.4528 117.56 56.736Z" fill="#263238"/>
<path d="M117.738 57.2352C118.213 58.0569 118.8 58.8095 119.48 59.472C119.307 59.6437 119.1 59.7756 118.871 59.8586C118.642 59.9415 118.398 59.9734 118.155 59.952L117.738 57.2352Z" fill="#DE5753"/>
<path d="M116.24 55.3102C116.197 55.3087 116.156 55.2916 116.125 55.2622C116.094 55.23 116.076 55.187 116.076 55.1422C116.076 55.0974 116.094 55.0544 116.125 55.0222C116.313 54.8295 116.544 54.6852 116.8 54.6016C117.056 54.518 117.328 54.4976 117.594 54.5422C117.615 54.5467 117.636 54.5556 117.655 54.5682C117.673 54.5809 117.689 54.5971 117.701 54.6158C117.713 54.6346 117.721 54.6556 117.725 54.6775C117.729 54.6995 117.728 54.722 117.723 54.7438C117.719 54.7656 117.71 54.7864 117.697 54.8047C117.685 54.8231 117.668 54.8388 117.65 54.8509C117.631 54.8629 117.61 54.8711 117.588 54.875C117.566 54.8789 117.543 54.8783 117.522 54.8734C117.311 54.8433 117.095 54.8642 116.894 54.9344C116.693 55.0045 116.511 55.1219 116.365 55.2766C116.347 55.2902 116.327 55.3001 116.306 55.3059C116.284 55.3116 116.262 55.3131 116.24 55.3102Z" fill="#263238"/>
<path d="M118.453 61.0752C118.361 62.2339 117.867 63.324 117.056 64.1568C116.52 64.7068 115.863 65.1229 115.136 65.3712C114.441 65.6126 113.696 65.6771 112.97 65.5589C112.243 65.4408 111.557 65.1437 110.974 64.6944C108.92 63.168 108.651 61.0896 107.893 57.6096C107.706 56.8028 107.729 55.9617 107.959 55.1662C108.188 54.3706 108.618 53.647 109.206 53.0641C109.794 52.4812 110.522 52.0584 111.319 51.8357C112.117 51.6131 112.958 51.598 113.763 51.792C117.43 52.6608 118.717 57.8016 118.453 61.0752Z" fill="#E4897B"/>
<path d="M109.213 63.2881C110.653 64.1953 116.096 61.6465 115.198 57.3601C115.198 57.3601 117.344 55.0129 117.238 52.3105C117.133 49.6081 115.318 48.4705 113.341 48.9793C111.584 49.4065 111.589 50.3617 111.589 50.3617C111.589 50.3617 103.352 50.9425 104.946 54.3553C101.442 57.8401 107.442 62.1601 109.213 63.2881Z" fill="#263238"/>
<path d="M113.72 58.0272C113.914 58.8915 114.389 59.6676 115.069 60.2352C115.966 60.9744 116.696 60.3216 116.682 59.2752C116.682 58.3152 116.202 56.7936 115.16 56.4624C114.118 56.1312 113.518 56.9856 113.72 58.0272Z" fill="#E4897B"/>
<path opacity="0.2" d="M118.203 62.2849C117.964 62.9859 117.572 63.6252 117.056 64.1569C116.52 64.7069 115.863 65.123 115.136 65.3713C114.648 65.1242 114.179 64.8402 113.734 64.5217L114.464 62.7313C114.464 62.7313 116.701 63.8257 118.203 62.2849Z" fill="black"/>
<path d="M110.384 67.68L109.77 63.4704C109.77 63.4704 112.51 61.5504 115.381 62.8416L119.701 68.0496L110.384 67.68Z" fill="#E4897B"/>
<path d="M120.2 67.5313L119.197 66.0289C119.197 66.0289 111.92 63.3361 108.747 66.7873C108.747 66.7873 115.846 70.5409 120.2 67.5313Z" fill="#82DDFF"/>
<path opacity="0.2" d="M120.2 67.5313L119.197 66.0289C119.197 66.0289 111.92 63.3361 108.747 66.7873C108.747 66.7873 115.846 70.5409 120.2 67.5313Z" fill="black"/>
<path d="M92.2592 108.346L89.5184 106.579L90.5696 105.01L93.4256 100.747L96.1712 102.514L93.0128 107.223L92.2592 108.346Z" fill="#E4897B"/>
<path d="M89.72 106.354L93.56 106.315C93.6223 106.317 93.6825 106.339 93.7311 106.378C93.7797 106.417 93.814 106.471 93.8288 106.531L94.472 109.32C94.4955 109.44 94.4723 109.565 94.4072 109.668C94.3421 109.771 94.2399 109.846 94.1216 109.877H94.0208C92.7824 109.877 91.8848 109.8 90.3344 109.815C89.3744 109.815 86.4944 109.954 85.1792 109.963C83.864 109.973 83.672 108.677 84.2192 108.552C86.6192 108 88.4528 107.251 89.2208 106.546C89.3581 106.423 89.5357 106.355 89.72 106.354Z" fill="#263238"/>
<path d="M90.4592 103.949L95.48 105.302L122.734 84.6239L108.752 81.5615C107.753 81.348 106.713 81.4434 105.77 81.8353C104.827 82.2271 104.025 82.8967 103.472 83.7551L90.4592 103.949Z" fill="#263238"/>
<path opacity="0.2" d="M90.4592 103.949L95.48 105.302L122.734 84.6239L108.752 81.5615C107.753 81.348 106.713 81.4434 105.77 81.8353C104.827 82.2271 104.025 82.8967 103.472 83.7551L90.4592 103.949Z" fill="black"/>
<path d="M75.56 108.446L72.728 106.829L73.6976 105.206L76.3232 100.8L79.1552 102.418L76.2512 107.285L75.56 108.446Z" fill="#E4897B"/>
<path d="M72.8384 106.286H76.6784C76.741 106.287 76.8015 106.309 76.8503 106.348C76.899 106.387 76.9332 106.441 76.9472 106.502L77.5664 109.301C77.5882 109.421 77.563 109.546 77.4961 109.648C77.4292 109.751 77.3255 109.824 77.2064 109.853H77.1056C75.872 109.853 74.9696 109.757 73.4192 109.757C72.4592 109.757 69.5792 109.858 68.264 109.858C66.9488 109.858 66.7712 108.552 67.304 108.418C69.704 107.89 71.552 107.16 72.3296 106.464C72.4724 106.346 72.653 106.283 72.8384 106.286Z" fill="#263238"/>
<path d="M129.31 95.4815L110.254 95.5295C109.774 93.8399 109.17 87.9599 107.307 80.6879C106.803 78.7151 106.203 76.6415 105.498 74.5151C104.912 72.592 104.2 70.7096 103.366 68.8799C105.091 67.8378 106.985 67.1082 108.963 66.7247C117.397 65.2847 125.134 68.9999 125.134 68.9999C125.134 68.9999 128.48 78.3119 129.31 95.4815Z" fill="#82DDFF"/>
<path opacity="0.2" d="M107.307 80.6879C106.803 78.7151 106.203 76.6415 105.498 74.5151L106.827 73.9775C106.827 73.9775 108.92 78.6959 107.307 80.6879Z" fill="black"/>
<path d="M98.9696 83.952L101.182 84.9984L102.027 81.2736C102.027 81.2736 100.261 80.6544 98.936 81.5568L98.9696 83.952Z" fill="#E4897B"/>
<path d="M104.355 86.2609L104.456 82.8673L102.027 81.2737L101.182 84.9985L104.355 86.2609Z" fill="#E4897B"/>
<path d="M105.867 74.7119C102.186 76.7039 97.9808 78.5519 94.7792 81.1583C94.7072 81.2207 94.7312 81.2495 94.8128 80.9711C94.8281 80.7939 94.8052 80.6155 94.7456 80.4479C94.6925 80.2654 94.5748 80.1084 94.4144 80.0063C94.352 79.9823 94.3904 80.0399 94.4768 80.0975C94.5967 80.1723 94.7237 80.235 94.856 80.2847C96.3344 80.8463 98.384 81.0335 100.04 81.2447L100.29 83.7167C99.7664 83.8655 99.2768 83.9663 98.7632 84.0623C96.8432 84.3935 94.8512 84.6287 92.8304 83.9615C91.9619 83.7004 91.2292 83.1114 90.7875 82.3194C90.3458 81.5273 90.2297 80.5944 90.464 79.7183C91.4528 76.2095 100.4 71.8319 103.683 70.2047L105.867 74.7167V74.7119Z" fill="#DC897C"/>
<path d="M109.357 91.4736L108.502 93.6624C108.502 93.6624 98.2928 81.048 92.6624 80.328C87.032 79.608 73.9424 103.579 73.9424 103.579L78.9056 105.082L92.8736 92.4096C98.6336 102.461 105.522 109.834 113.71 109.834H121.707C130.65 109.834 130.75 99.8592 128.984 91.4016L109.357 91.4736Z" fill="#263238"/>
<path d="M103.366 68.88C100.165 70.0512 96.4016 73.6032 96.4016 73.6032C96.4016 73.6032 99.5696 79.0944 99.8864 78.8832C100.203 78.672 106.702 76.8096 106.702 76.8096C106.702 76.8096 108.027 75.0912 107.01 72.1824C106.745 71.361 106.269 70.6236 105.63 70.044C104.99 69.4644 104.21 69.063 103.366 68.88Z" fill="#82DDFF"/>
<path d="M135.517 104.846L138.997 105.019L137.158 108.418C137.158 108.418 134.062 108.077 134.307 106.498L135.517 104.846Z" fill="#E4897B"/>
<path d="M141.848 106.958L139.28 109.344L137.158 108.418L138.997 105.019L141.848 106.958Z" fill="#E4897B"/>
<path d="M27.6656 70.4256C29.9984 72.7776 32.2976 75.4128 35.0912 77.1936C35.0912 77.1936 35.264 77.2848 35.2784 77.2992C35.2032 77.2713 35.1233 77.2582 35.0432 77.2608C34.9712 77.2608 35.0864 77.2608 35.2112 77.2608C38.3984 76.3584 41.36 74.28 44.2928 72.6816C44.5198 72.5449 44.7892 72.4963 45.0496 72.5453C45.3101 72.5943 45.5435 72.7373 45.7053 72.9472C45.8671 73.157 45.9462 73.4191 45.9273 73.6834C45.9085 73.9478 45.7931 74.196 45.6032 74.3808C43.3184 76.4976 37.16 82.1568 33.9248 80.9712C31.9472 80.2464 30.296 78.8832 28.7408 77.5728C27.2217 76.2561 25.7899 74.8419 24.4544 73.3392C22.6256 71.1648 25.6784 68.3952 27.6656 70.4304V70.4256Z" fill="#E9B376"/>
<path d="M31.6784 73.7472C31.2704 76.8 28.7984 79.7952 28.7984 79.7952L28.28 79.44L25.7552 77.7648C25.7552 77.7648 25.7072 77.6208 25.6352 77.3664C25.5632 77.112 25.472 76.8144 25.3616 76.4064C24.7808 74.3712 23.7344 70.5648 23.6048 68.9856C26.7392 68.9136 28.1504 70.4064 31.6784 73.7472Z" fill="#82DDFF"/>
<path opacity="0.7" d="M31.6784 73.7472C31.2704 76.8 28.7984 79.7952 28.7984 79.7952L28.28 79.44L25.7552 77.7648C25.7552 77.7648 25.7072 77.6208 25.6352 77.3664C25.5632 77.112 25.472 76.8144 25.3616 76.4064C24.7808 74.3712 23.7344 70.5648 23.6048 68.9856C26.7392 68.9136 28.1504 70.4064 31.6784 73.7472Z" fill="white"/>
<path opacity="0.2" d="M28.28 79.44L25.7552 77.7648C25.7552 77.7648 25.7072 77.6208 25.6352 77.3664C25.7289 76.5937 25.8699 75.8274 26.0576 75.072C26.7228 75.5952 27.2661 76.257 27.6499 77.0113C28.0337 77.7655 28.2487 78.5943 28.28 79.44Z" fill="black"/>
<path d="M25.208 88.8002L27.3632 92.573C33.1232 91.229 51.6416 88.4066 53.912 94.757C56.7392 102.643 36.3248 108.936 25.0304 109.32C13.736 109.704 3.88161 107.016 11.024 90.5474L25.208 88.8002Z" fill="#263238"/>
<path opacity="0.2" d="M25.208 88.8002L27.3632 92.573C33.1232 91.229 51.6416 88.4066 53.912 94.757C56.7392 102.643 36.3248 108.936 25.0304 109.32C13.736 109.704 3.88161 107.016 11.024 90.5474L25.208 88.8002Z" fill="black"/>
<path d="M50.6432 105.907C50.6302 105.915 50.6153 105.92 50.6 105.92C50.5847 105.92 50.5698 105.915 50.5568 105.907C50.55 105.896 50.5463 105.884 50.5463 105.871C50.5463 105.858 50.55 105.846 50.5568 105.835C50.5952 105.71 50.9696 104.626 51.3488 104.51C51.3886 104.501 51.4302 104.501 51.4697 104.512C51.5092 104.523 51.5452 104.544 51.5744 104.573C51.6265 104.617 51.6662 104.673 51.6898 104.737C51.7133 104.801 51.7199 104.87 51.7088 104.938C51.6469 105.142 51.5227 105.321 51.3536 105.451C51.1331 105.627 50.8951 105.78 50.6432 105.907ZM50.7392 105.701C51.0919 105.547 51.3769 105.271 51.5408 104.923C51.5515 104.878 51.5485 104.831 51.5323 104.787C51.5161 104.743 51.4873 104.706 51.4496 104.678C51.4389 104.665 51.4246 104.655 51.4083 104.65C51.3921 104.645 51.3747 104.645 51.3584 104.65C51.3264 104.661 51.297 104.679 51.272 104.702C51.0352 105 50.8546 105.338 50.7392 105.701Z" fill="#263238"/>
<path d="M50.6192 105.922C50.6098 105.929 50.5979 105.934 50.5856 105.934C50.5734 105.934 50.5615 105.929 50.552 105.922C50.5136 105.893 49.9952 105.235 50.072 104.789C50.0812 104.733 50.1017 104.681 50.1323 104.634C50.1628 104.586 50.2028 104.546 50.2496 104.515C50.2902 104.479 50.3416 104.456 50.396 104.451C50.4505 104.446 50.5052 104.458 50.552 104.486C50.8256 104.683 50.792 105.562 50.6576 105.898V105.931L50.6192 105.922ZM50.3264 104.635C50.2784 104.674 50.2461 104.728 50.2352 104.789C50.2496 105.121 50.3727 105.44 50.5856 105.696C50.6672 105.322 50.6432 104.702 50.48 104.592C50.48 104.592 50.432 104.554 50.3504 104.592V104.616L50.3264 104.635Z" fill="#263238"/>
<path d="M30.7856 107.76C30.793 107.748 30.8037 107.738 30.8165 107.732C30.8293 107.726 30.8436 107.724 30.8576 107.726C30.8705 107.727 30.8827 107.733 30.8923 107.741C30.9019 107.75 30.9083 107.762 30.9104 107.774C30.9392 107.904 31.136 109.037 30.8624 109.32C30.8316 109.348 30.7941 109.367 30.7536 109.375C30.7132 109.383 30.6712 109.381 30.632 109.368C30.5644 109.357 30.5012 109.327 30.4495 109.282C30.3978 109.237 30.3596 109.179 30.3392 109.114C30.2918 108.908 30.3137 108.692 30.4016 108.499C30.5035 108.24 30.6322 107.992 30.7856 107.76ZM30.7856 107.991C30.5519 108.295 30.4345 108.673 30.4544 109.056C30.4676 109.102 30.4943 109.143 30.5311 109.174C30.5679 109.205 30.6131 109.224 30.6608 109.229C30.6743 109.238 30.6901 109.243 30.7064 109.243C30.7226 109.243 30.7385 109.238 30.752 109.229C30.7736 109.204 30.7899 109.174 30.8 109.142C30.872 108.762 30.872 108.371 30.8 107.991H30.7856Z" fill="#263238"/>
<path d="M38.1776 102.043L33.5312 103.699L31.2992 104.496L31.8704 106.939L34.0304 106.478L39.3104 105.35L38.1776 102.043Z" fill="#EBB376"/>
<path d="M32.48 107.054L32.0864 104.174C32.0811 104.136 32.0683 104.1 32.0488 104.067C32.0292 104.034 32.0032 104.005 31.9723 103.982C31.9415 103.96 31.9064 103.943 31.8691 103.934C31.8318 103.925 31.7931 103.923 31.7552 103.93L30.3152 104.17C30.3152 104.17 28.3952 104.347 27.9968 104.846C26.8736 106.286 27.5744 112.69 28.3232 112.915C28.5968 112.997 28.8848 112.622 29.0048 112.363C29.384 111.538 30.0512 109.382 30.3776 108.701C30.752 107.899 31.8176 107.51 32.2592 107.371C32.3287 107.355 32.3898 107.314 32.4306 107.255C32.4714 107.197 32.489 107.125 32.48 107.054Z" fill="#82DDFF"/>
<path d="M30.7952 107.76C30.8057 107.753 30.8183 107.749 30.8312 107.749C30.8441 107.749 30.8567 107.753 30.8672 107.76C30.9104 107.76 31.688 108.096 31.8272 108.523C31.8441 108.577 31.8503 108.633 31.8453 108.689C31.8404 108.745 31.8244 108.8 31.7984 108.85C31.7831 108.903 31.7499 108.949 31.7044 108.981C31.6589 109.012 31.6039 109.027 31.5488 109.022C31.2176 108.984 30.8192 108.197 30.776 107.842V107.76C30.7823 107.759 30.7889 107.759 30.7952 107.76ZM31.6784 108.744C31.6975 108.685 31.6975 108.621 31.6784 108.562C31.5872 108.288 31.1552 108.048 30.9344 107.938C31.04 108.307 31.3616 108.835 31.5584 108.854C31.5584 108.854 31.616 108.854 31.6592 108.773V108.744H31.6784Z" fill="#263238"/>
<path opacity="0.2" d="M38.1776 102.043L33.5312 103.699L34.0304 106.478L39.3104 105.35L38.1776 102.043Z" fill="black"/>
<path d="M34.856 106.896L36.1904 106.992L35.2976 102.394L33.7808 103.229L34.856 106.896Z" fill="#82DDFF"/>
<path opacity="0.6" d="M34.856 106.896L36.1904 106.992L35.2976 102.394L33.7808 103.229L34.856 106.896Z" fill="white"/>
<path opacity="0.2" d="M15.4688 89.04L22.4288 96.7584C22.4288 96.7584 30.1088 96.5856 39.4688 101.155C39.4688 101.155 49.496 97.0128 50.4176 93.5712C51.6272 89.064 27.3776 92.5872 27.3776 92.5872L15.4688 89.04Z" fill="black"/>
<path d="M25.136 92.1265L10.9424 90.4801C11.2143 89.0143 11.3747 87.5301 11.4224 86.0401C11.4793 83.9169 11.3959 81.7923 11.1728 79.6801C10.976 77.6593 10.6928 75.3361 10.2128 72.6097C10.1168 72.1221 10.1311 71.6193 10.2546 71.1379C10.3781 70.6566 10.6077 70.209 10.9267 69.8279C11.2456 69.4469 11.6458 69.142 12.0978 68.9356C12.5499 68.7292 13.0424 68.6266 13.5392 68.6353C14.1104 68.6353 14.7104 68.6641 15.3248 68.7025C17.4984 68.7998 19.6622 69.0516 21.8 69.4561C22.4912 69.5953 23.2064 69.7681 23.8928 69.9361C26.3552 70.5745 27.8816 73.6753 27.6704 76.1761C27.5873 78.1196 27.3724 80.0552 27.0272 81.9697C26.5904 84.7921 26.0768 87.5473 25.136 92.1265Z" fill="#82DDFF"/>
<path opacity="0.7" d="M25.136 92.1265L10.9424 90.4801C11.2143 89.0143 11.3747 87.5301 11.4224 86.0401C11.4793 83.9169 11.3959 81.7923 11.1728 79.6801C10.976 77.6593 10.6928 75.3361 10.2128 72.6097C10.1168 72.1221 10.1311 71.6193 10.2546 71.1379C10.3781 70.6566 10.6077 70.209 10.9267 69.8279C11.2456 69.4469 11.6458 69.142 12.0978 68.9356C12.5499 68.7292 13.0424 68.6266 13.5392 68.6353C14.1104 68.6353 14.7104 68.6641 15.3248 68.7025C17.4984 68.7998 19.6622 69.0516 21.8 69.4561C22.4912 69.5953 23.2064 69.7681 23.8928 69.9361C26.3552 70.5745 27.8816 73.6753 27.6704 76.1761C27.5873 78.1196 27.3724 80.0552 27.0272 81.9697C26.5904 84.7921 26.0768 87.5473 25.136 92.1265Z" fill="white"/>
<path opacity="0.2" d="M11.432 86.0448C11.4889 83.9217 11.4055 81.797 11.1824 79.6848C12.9584 77.5872 14.6384 75.8448 14.6384 75.8448C14.6384 75.8448 17.4224 83.0112 11.432 86.0448Z" fill="black"/>
<path d="M13.6736 75.0673C13.8368 78.1057 13.808 82.8337 14.36 85.7377L14.216 85.3825C14.12 85.2433 14.1776 85.3825 14.2784 85.4593C14.4083 85.588 14.5461 85.7082 14.6912 85.8193C16.6112 87.2593 18.9152 88.3681 21.08 89.5153L23.8112 90.9217C24.048 91.0405 24.2328 91.2421 24.3307 91.4882C24.4285 91.7344 24.4325 92.0079 24.3418 92.2568C24.2511 92.5057 24.0722 92.7126 23.8389 92.8381C23.6057 92.9636 23.3345 92.9991 23.0768 92.9377C22.0352 92.6881 21.0368 92.3905 20.024 92.0833C17.144 91.1233 14.1872 90.2017 11.7104 88.3249C11.2267 87.9493 10.8508 87.4526 10.6208 86.8849C9.51201 82.9489 9.42561 79.1473 9.34401 75.1345C9.44481 72.3361 13.496 72.2833 13.664 75.0817L13.6736 75.0673Z" fill="#E9B376"/>
<path d="M27.6416 90.7489L26.7776 90.1201C26.6175 90.0042 26.4319 89.9284 26.2365 89.8992C26.041 89.87 25.8414 89.8881 25.6544 89.9521L23.8784 90.5473C23.5283 90.6658 23.2116 90.8661 22.9544 91.1316C22.6973 91.3971 22.5072 91.7201 22.4 92.0737L22.2656 92.5201C23.6288 93.6529 25.9376 93.8785 25.9376 93.8785L26.5856 94.0129C26.7183 94.045 26.8561 94.0503 26.9909 94.0287C27.1257 94.0071 27.2549 93.959 27.371 93.8871C27.487 93.8152 27.5877 93.7211 27.6671 93.61C27.7465 93.4989 27.8031 93.3732 27.8336 93.2401L28.1216 91.9537C28.1679 91.728 28.1471 91.4936 28.0618 91.2795C27.9765 91.0655 27.8304 90.881 27.6416 90.7489Z" fill="#EBB376"/>
<path d="M12.3776 68.8319C9.6032 69.8255 8.80639 72.2447 8.74879 77.2895C10.1888 78.5999 14.5616 78.6719 14.5616 78.6719C14.5616 78.6719 15.32 71.0207 12.3776 68.8319Z" fill="#82DDFF"/>
<path d="M45.9872 93.5281V94.6705C45.9872 94.9633 45.6416 95.0833 45.3488 95.0833H22.52C22.2224 95.0833 21.872 94.9633 21.872 94.6705V93.5281H45.9872Z" fill="#263238"/>
<path opacity="0.4" d="M45.9872 93.5281V94.6705C45.9872 94.9633 45.6416 95.0833 45.3488 95.0833H22.52C22.2224 95.0833 21.872 94.9633 21.872 94.6705V93.5281H45.9872Z" fill="white"/>
<path opacity="0.2" d="M45.9872 93.5281V94.6705C45.9872 94.9633 45.6416 95.0833 45.3488 95.0833H30.2768C29.984 95.0833 29.6336 94.9633 29.6336 94.6705V93.5281H45.9872Z" fill="black"/>
<path d="M49.8128 81.6528L47.0912 93.9936C47.0409 94.191 46.9272 94.3663 46.7677 94.4929C46.6082 94.6195 46.4116 94.6903 46.208 94.6944H31.328C31.2354 94.6919 31.1446 94.668 31.0628 94.6245C30.981 94.5811 30.9103 94.5193 30.8564 94.444C30.8025 94.3686 30.7667 94.2819 30.7519 94.1904C30.7372 94.0989 30.7437 94.0053 30.7712 93.9168L33.488 81.672C33.5435 81.4852 33.6616 81.3232 33.8224 81.2131C33.9832 81.1029 34.177 81.0515 34.3712 81.0672H49.2512C49.6496 81.0672 49.88 81.2496 49.8128 81.6528Z" fill="#263238"/>
<path opacity="0.4" d="M49.8128 81.6528L47.0912 93.9936C47.0409 94.191 46.9272 94.3663 46.7677 94.4929C46.6082 94.6195 46.4116 94.6903 46.208 94.6944H31.8464C31.7537 94.6917 31.6629 94.6677 31.581 94.6243C31.4991 94.5808 31.4283 94.5192 31.374 94.444C31.3197 94.3689 31.2835 94.2822 31.268 94.1908C31.2525 94.0994 31.2583 94.0057 31.2848 93.9168L34.0064 81.672C34.0619 81.4852 34.18 81.3232 34.3408 81.2131C34.5016 81.1029 34.6954 81.0515 34.8896 81.0672H49.2512C49.6496 81.0672 49.88 81.2496 49.8128 81.6528Z" fill="white"/>
<path opacity="0.2" d="M42.4832 87.9216C42.4357 88.422 42.2125 88.8895 41.8531 89.241C41.4937 89.5925 41.0214 89.8053 40.52 89.8416C39.6896 89.8416 39.1952 88.9824 39.4352 87.9216C39.6752 86.8608 40.496 86.04 41.3072 86.0016C41.072 87.0576 41.5808 87.9216 42.4064 87.9216H42.4832Z" fill="black"/>
<path d="M44.84 74.7745L48.0368 74.8561L46.5968 71.6208C46.5968 71.6208 43.7456 71.7217 43.856 73.1905L44.84 74.7745Z" fill="#EBB376"/>
<path d="M50.7776 73.2817L48.5888 70.92L46.5872 71.6208L48.0368 74.8561L50.7776 73.2817Z" fill="#EBB376"/>
<path d="M14.624 68.6689C14.2976 68.6449 15.296 72.6529 20.144 73.6417C24.992 74.6305 24.6176 70.1713 24.2384 69.0529C24.2384 69.0529 17.864 68.8801 14.624 68.6689Z" fill="#EBB376"/>
<path d="M15.9536 52.9968C15.9536 52.9968 18.7328 49.9152 23.816 51.504C28.8992 53.0928 28.6832 62.1648 26.1008 65.4576C22.0565 65.3157 18.0107 65.6932 14.0624 66.5808C14.0624 66.5808 11.6144 60 12.8288 56.1312C14.0432 52.2624 15.9536 52.9968 15.9536 52.9968Z" fill="#263238"/>
<path d="M16.976 62.0449C17.2976 64.1857 17.5472 68.0641 16.016 69.2929C16.016 69.2929 18.0128 69.2257 21.8864 72.2881C23.2928 70.6945 22.4624 70.0369 22.4624 70.0369C20.1728 69.2161 20.3024 67.4881 20.768 65.9089L16.976 62.0449Z" fill="#EBB376"/>
<path opacity="0.2" d="M18.5312 63.624L20.792 65.9088C20.6779 66.2787 20.596 66.6577 20.5472 67.0416C19.6688 66.8112 18.4928 65.6928 18.44 64.7472C18.4027 64.3704 18.4336 63.9899 18.5312 63.624Z" fill="black"/>
<path d="M15.6848 57.677C15.9248 61.0994 15.9584 62.549 17.6816 64.397C20.2784 67.1426 24.4016 66.317 25.1456 62.957C25.8416 59.9234 25.328 54.8354 22.0064 53.333C21.3058 52.9861 20.5252 52.8326 19.7454 52.8882C18.9656 52.9438 18.2148 53.2066 17.5704 53.6493C16.9261 54.0921 16.4116 54.6988 16.0802 55.4069C15.7487 56.1149 15.6122 56.8986 15.6848 57.677Z" fill="#EBB376"/>
<path d="M19.8992 58.728C19.8992 59.0208 20.0576 59.256 20.2448 59.2656C20.432 59.2752 20.5664 59.0448 20.5616 58.7568C20.5568 58.4688 20.3984 58.2288 20.216 58.224C20.0336 58.2192 19.8896 58.44 19.8992 58.728Z" fill="#263238"/>
<path d="M23.48 58.7664C23.48 59.0544 23.6432 59.2944 23.8256 59.304C24.008 59.3136 24.1472 59.0832 24.1424 58.7952C24.1376 58.5072 23.9792 58.2672 23.7968 58.2624C23.6144 58.2576 23.48 58.4784 23.48 58.7664Z" fill="#263238"/>
<path d="M23.7008 58.272L24.368 58.0992C24.368 58.0992 24.0368 58.6272 23.7008 58.272Z" fill="#263238"/>
<path d="M22.3952 59.3569C22.6636 60.0256 23.0152 60.6577 23.4416 61.2385C23.2978 61.3364 23.1338 61.4007 22.9618 61.4264C22.7898 61.4522 22.6142 61.4388 22.448 61.3873L22.3952 59.3569Z" fill="#D58745"/>
<path d="M19.3232 56.9039C19.3448 56.9074 19.367 56.9058 19.3878 56.8991C19.4087 56.8924 19.4276 56.8809 19.4432 56.8655C19.593 56.7269 19.7752 56.6279 19.973 56.5776C20.1709 56.5273 20.3782 56.5273 20.576 56.5775C20.5962 56.5841 20.6175 56.5864 20.6386 56.5843C20.6597 56.5822 20.6801 56.5758 20.6986 56.5654C20.7171 56.555 20.7332 56.541 20.746 56.5241C20.7588 56.5071 20.7679 56.4878 20.7728 56.4672C20.7848 56.4226 20.7789 56.3752 20.7565 56.3349C20.7341 56.2946 20.697 56.2645 20.6528 56.2512C20.4023 56.184 20.1389 56.1813 19.8871 56.2434C19.6353 56.3055 19.4033 56.4304 19.2128 56.6063C19.182 56.6377 19.1648 56.68 19.1648 56.7239C19.1648 56.7679 19.182 56.8102 19.2128 56.8416C19.2404 56.8756 19.2798 56.8979 19.3232 56.9039Z" fill="#263238"/>
<path d="M24.872 56.9329C24.9107 56.9477 24.9534 56.9477 24.992 56.9329C25.0106 56.9212 25.0267 56.9059 25.0393 56.8879C25.0518 56.8698 25.0606 56.8495 25.0651 56.8279C25.0696 56.8064 25.0697 56.7842 25.0653 56.7627C25.061 56.7411 25.0524 56.7207 25.04 56.7025C24.9081 56.4657 24.7235 56.2625 24.5004 56.1085C24.2773 55.9545 24.0218 55.8539 23.7536 55.8145C23.7322 55.8132 23.7108 55.8163 23.6907 55.8237C23.6706 55.8311 23.6523 55.8427 23.637 55.8576C23.6216 55.8725 23.6095 55.8905 23.6015 55.9103C23.5935 55.9302 23.5897 55.9515 23.5904 55.9729C23.5912 56.0178 23.6081 56.061 23.6381 56.0945C23.668 56.128 23.709 56.1496 23.7536 56.1553C23.9658 56.1876 24.1676 56.2686 24.3433 56.3918C24.519 56.5151 24.6638 56.6772 24.7664 56.8657C24.7787 56.8833 24.7944 56.8983 24.8125 56.9098C24.8306 56.9214 24.8509 56.9292 24.872 56.9329Z" fill="#263238"/>
<path d="M20.12 58.2337L20.7872 58.0657C20.7872 58.0657 20.4704 58.5889 20.12 58.2337Z" fill="#263238"/>
<path d="M16.3952 59.7311C16.3952 59.7311 19.0352 57.6575 18.4352 54.4127C18.4352 54.4127 23.1584 52.5455 25.0208 57.2927C25.0208 57.2927 25.4144 53.2223 20.9744 52.4255C16.5344 51.6287 11.2784 57.6479 16.3088 62.2127L16.3952 59.7311Z" fill="#263238"/>
<path d="M14.5952 60.4418C14.7665 60.7593 14.9988 61.0398 15.2789 61.2672C15.559 61.4945 15.8813 61.6642 16.2272 61.7666C17.1248 62.0114 17.528 61.1282 17.24 60.2162C16.976 59.3954 16.1936 58.2962 15.32 58.4354C14.4464 58.5746 14.1488 59.6306 14.5952 60.4418Z" fill="#EBB376"/>
<path d="M25.5392 59.3091C25.5176 59.3089 25.4966 59.3019 25.4793 59.2889C25.462 59.276 25.4494 59.2578 25.4432 59.2371C23.7488 53.2707 18.1568 54.4995 18.0992 54.5091C18.0869 54.5119 18.0742 54.5123 18.0617 54.5102C18.0493 54.5081 18.0374 54.5036 18.0267 54.4969C18.016 54.4902 18.0067 54.4815 17.9994 54.4712C17.9921 54.461 17.9868 54.4494 17.984 54.4371C17.9812 54.4248 17.9808 54.412 17.9829 54.3996C17.985 54.3872 17.9895 54.3753 17.9962 54.3646C18.0028 54.3539 18.0116 54.3446 18.0218 54.3373C18.0321 54.3299 18.0437 54.3247 18.056 54.3219C18.1136 54.3219 23.888 53.0403 25.6304 59.1843C25.6341 59.1966 25.6352 59.2095 25.6338 59.2222C25.6324 59.2349 25.6284 59.2473 25.6221 59.2584C25.6159 59.2696 25.6074 59.2794 25.5973 59.2873C25.5872 59.2952 25.5756 59.3009 25.5632 59.3043L25.5392 59.3091Z" fill="#263238"/>
<path d="M22.616 62.3807C22.4485 62.7731 22.3105 63.1774 22.2032 63.5904H21.9776C20.9648 63.48 20.5376 63.1104 20.3552 62.7024C20.2735 62.5084 20.2389 62.2978 20.2544 62.088C20.2618 61.9688 20.2844 61.851 20.3216 61.7375C20.9188 62.0832 21.5835 62.296 22.2704 62.3616C22.4816 62.3712 22.616 62.3807 22.616 62.3807Z" fill="#263238"/>
<path d="M22.2704 62.3424L22.1408 62.6928C21.1808 62.592 20.5232 62.3904 20.2544 62.0688C20.2618 61.9496 20.2844 61.8318 20.3216 61.7184C20.9188 62.064 21.5835 62.2769 22.2704 62.3424Z" fill="white"/>
<path d="M21.9776 63.5712C20.9648 63.4608 20.5376 63.0912 20.3552 62.6832C20.7399 62.7331 21.1133 62.8483 21.4592 63.024C21.6845 63.1484 21.8656 63.3396 21.9776 63.5712Z" fill="#DE5753"/>
<path d="M21.8144 78.3746C21.7992 78.3755 21.7839 78.373 21.7697 78.3672C21.7556 78.3614 21.743 78.3524 21.7328 78.341C19.1823 75.6064 17.2592 72.3482 16.0976 68.7938C16.0903 68.7645 16.0947 68.7335 16.11 68.7075C16.1252 68.6815 16.1501 68.6625 16.1792 68.6546C16.1934 68.651 16.2082 68.6503 16.2226 68.6525C16.2371 68.6547 16.251 68.6597 16.2635 68.6673C16.276 68.6749 16.2869 68.6849 16.2955 68.6967C16.3041 68.7085 16.3102 68.722 16.3136 68.7362C17.4442 72.1931 19.3037 75.367 21.7664 78.0434C22.0544 77.0834 23.2496 72.5234 21.4496 69.029C21.4408 69.003 21.4416 68.9747 21.4518 68.9492C21.462 68.9238 21.481 68.9028 21.5053 68.89C21.5296 68.8773 21.5577 68.8737 21.5844 68.8798C21.6112 68.8859 21.6349 68.9014 21.6512 68.9234C23.7104 72.9218 21.9392 78.245 21.92 78.2978C21.9137 78.3163 21.903 78.3329 21.8887 78.3463C21.8745 78.3597 21.8572 78.3694 21.8384 78.3746H21.8144Z" fill="#263238"/>
<path d="M21.9632 78.1728L22.328 78.6528C22.3607 78.6937 22.3786 78.7445 22.3786 78.7968C22.3786 78.8492 22.3607 78.9 22.328 78.9408L21.9584 79.4208C21.9363 79.4471 21.9088 79.4682 21.8777 79.4826C21.8466 79.4971 21.8127 79.5046 21.7784 79.5046C21.7441 79.5046 21.7102 79.4971 21.6791 79.4826C21.648 79.4682 21.6205 79.4471 21.5984 79.4208L21.2528 79.0272C21.2224 78.9872 21.206 78.9383 21.206 78.888C21.206 78.8378 21.2224 78.7889 21.2528 78.7488L21.56 78.192C21.5801 78.1572 21.6086 78.1281 21.6429 78.1072C21.6772 78.0863 21.7163 78.0743 21.7564 78.0724C21.7965 78.0705 21.8365 78.0787 21.8726 78.0962C21.9087 78.1138 21.9399 78.1401 21.9632 78.1728Z" fill="white"/>
<path opacity="0.7" d="M12.3776 68.8319C9.6032 69.8255 8.80639 72.2447 8.74879 77.2895C10.1888 78.5999 14.5616 78.6719 14.5616 78.6719C14.5616 78.6719 15.32 71.0207 12.3776 68.8319Z" fill="white"/>
<path d="M41.4032 107.333L46.2704 108.134L48.608 108.518L49.2896 106.104L47.1776 105.461L42.0128 103.891L41.4032 107.333Z" fill="#EBB376"/>
<path d="M48.8144 105.711L47.7632 108.418C47.7494 108.454 47.7429 108.493 47.7442 108.531C47.7454 108.57 47.7543 108.608 47.7704 108.643C47.7864 108.679 47.8094 108.71 47.8378 108.737C47.8662 108.763 47.8996 108.784 47.936 108.797L49.2944 109.277C49.2944 109.277 51.0752 110.055 51.6512 109.805C53.336 109.08 55.8176 103.143 55.2704 102.605C55.0688 102.399 54.6368 102.605 54.4064 102.759C53.6768 103.296 52.0496 104.856 51.4352 105.298C50.7152 105.816 49.616 105.653 49.1408 105.552C49.0765 105.535 49.0081 105.542 48.9483 105.571C48.8884 105.6 48.8409 105.649 48.8144 105.711Z" fill="#82DDFF"/>
<path opacity="0.2" d="M41.4032 107.333L46.2704 108.134L47.1776 105.461L42.0128 103.891L41.4032 107.333Z" fill="black"/>
<path d="M46.3376 104.957C46.3376 104.957 26.4944 93.8016 19.64 94.1184C12.7856 94.4352 11.8064 100.474 14.6288 104.251C17.4512 108.029 22.6736 108.95 22.6736 108.95C22.6736 108.95 19.1264 103.92 19.64 102.518C20.1536 101.117 22.16 103.075 22.16 103.075C22.16 103.075 34.64 107.107 45.5696 108.034L46.3376 104.957Z" fill="#263238"/>
<path d="M46.6592 104.65L45.536 103.896L44.0912 108.327H45.824L46.6592 104.65Z" fill="#82DDFF"/>
<path opacity="0.6" d="M46.6592 104.65L45.536 103.896L44.0912 108.327H45.824L46.6592 104.65Z" fill="white"/>
</svg>
