<svg width="141" height="150" viewBox="0 0 141 150" fill="none" xmlns="http://www.w3.org/2000/svg">
<path d="M20.563 80.0765C-6.85434 95.9065 -6.85434 121.574 20.563 137.417C47.9804 153.26 92.4408 153.247 119.858 137.417C147.276 121.587 147.279 95.9197 119.858 80.0765C92.4375 64.2333 47.9804 64.2466 20.563 80.0765Z" fill="#FAFAFA"/>
<path d="M70.6183 143.416L61.5499 138.179L118.466 105.313L127.607 110.507L70.6183 143.416Z" fill="#EBEBEB"/>
<path d="M47.0921 141.232C61.7803 141.232 73.6875 134.357 73.6875 125.876C73.6875 117.395 61.7803 110.52 47.0921 110.52C32.4039 110.52 20.4967 117.395 20.4967 125.876C20.4967 134.357 32.4039 141.232 47.0921 141.232Z" fill="#EBEBEB"/>
<path d="M82.451 50.2728C82.4361 50.1294 82.3835 49.9925 82.2985 49.876C82.2135 49.7595 82.0991 49.6677 81.9671 49.6099C81.6074 49.4279 81.21 49.333 80.807 49.333C80.4039 49.333 80.0065 49.4279 79.6469 49.6099C79.5155 49.6682 79.4018 49.7602 79.3174 49.8766C79.233 49.993 79.1809 50.1297 79.1663 50.2728V133.058C79.1815 133.201 79.2339 133.338 79.3182 133.454C79.4025 133.57 79.5159 133.663 79.6469 133.721C80.0065 133.903 80.4039 133.998 80.807 133.998C81.21 133.998 81.6074 133.903 81.9671 133.721C82.0989 133.663 82.2131 133.571 82.2981 133.455C82.3831 133.339 82.4358 133.202 82.451 133.058V50.2728Z" fill="#EBEBEB"/>
<path opacity="0.1" d="M82.451 50.2728C82.4361 50.1294 82.3835 49.9925 82.2985 49.876C82.2135 49.7595 82.0991 49.6677 81.9671 49.6099C81.6074 49.4279 81.21 49.333 80.807 49.333C80.4039 49.333 80.0065 49.4279 79.6469 49.6099C79.5155 49.6682 79.4018 49.7602 79.3174 49.8766C79.233 49.993 79.1809 50.1297 79.1663 50.2728V133.058C79.1815 133.201 79.2339 133.338 79.3182 133.454C79.4025 133.57 79.5159 133.663 79.6469 133.721C80.0065 133.903 80.4039 133.998 80.807 133.998C81.21 133.998 81.6074 133.903 81.9671 133.721C82.0989 133.663 82.2131 133.571 82.2981 133.455C82.3831 133.339 82.4358 133.202 82.451 133.058V50.2728Z" fill="black"/>
<path d="M79.6403 49.6032C79.5059 49.6544 79.3902 49.7452 79.3086 49.8636C79.227 49.9819 79.1833 50.1223 79.1833 50.2661C79.1833 50.4099 79.227 50.5503 79.3086 50.6687C79.3902 50.7871 79.5059 50.8779 79.6403 50.929C79.9999 51.111 80.3973 51.2059 80.8004 51.2059C81.2034 51.2059 81.6008 51.111 81.9604 50.929C82.0962 50.8793 82.2135 50.789 82.2963 50.6704C82.3791 50.5519 82.4235 50.4107 82.4235 50.2661C82.4235 50.1215 82.3791 49.9804 82.2963 49.8618C82.2135 49.7432 82.0962 49.653 81.9604 49.6032C81.6008 49.4212 81.2034 49.3264 80.8004 49.3264C80.3973 49.3264 79.9999 49.4212 79.6403 49.6032Z" fill="#E0E0E0"/>
<path opacity="0.1" d="M79.1597 82.115L82.4509 80.2158V76.9377L79.1597 78.8403V82.115Z" fill="black"/>
<path d="M113.242 32.4674C113.227 32.324 113.175 32.1873 113.09 32.0709C113.005 31.9545 112.89 31.8626 112.759 31.8045C112.399 31.6224 112.002 31.5276 111.598 31.5276C111.195 31.5276 110.798 31.6224 110.438 31.8045C110.307 31.8633 110.194 31.9555 110.11 32.0718C110.025 32.1881 109.973 32.3245 109.958 32.4674V115.253C109.973 115.396 110.025 115.532 110.11 115.649C110.194 115.765 110.307 115.857 110.438 115.916C110.798 116.098 111.195 116.193 111.598 116.193C112.002 116.193 112.399 116.098 112.759 115.916C112.89 115.858 113.005 115.766 113.09 115.65C113.175 115.533 113.227 115.396 113.242 115.253V32.4674Z" fill="#E0E0E0"/>
<path opacity="0.1" d="M113.242 32.4674C113.227 32.324 113.175 32.1873 113.09 32.0709C113.005 31.9545 112.89 31.8626 112.759 31.8045C112.399 31.6224 112.002 31.5276 111.598 31.5276C111.195 31.5276 110.798 31.6224 110.438 31.8045C110.307 31.8633 110.194 31.9555 110.11 32.0718C110.025 32.1881 109.973 32.3245 109.958 32.4674V115.253C109.973 115.396 110.025 115.532 110.11 115.649C110.194 115.765 110.307 115.857 110.438 115.916C110.798 116.098 111.195 116.193 111.598 116.193C112.002 116.193 112.399 116.098 112.759 115.916C112.89 115.858 113.005 115.766 113.09 115.65C113.175 115.533 113.227 115.396 113.242 115.253V32.4674Z" fill="black"/>
<path d="M110.432 31.7946C110.292 31.8424 110.17 31.9329 110.084 32.0532C109.998 32.1736 109.952 32.3178 109.952 32.4658C109.952 32.6137 109.998 32.758 110.084 32.8783C110.17 32.9987 110.292 33.0891 110.432 33.1369C110.791 33.319 111.189 33.4138 111.592 33.4138C111.995 33.4138 112.392 33.319 112.752 33.1369C112.893 33.0907 113.017 33.001 113.104 32.8804C113.192 32.7598 113.239 32.6147 113.239 32.4658C113.239 32.3168 113.192 32.1717 113.104 32.0511C113.017 31.9306 112.893 31.8408 112.752 31.7946C112.392 31.6125 111.995 31.5177 111.592 31.5177C111.189 31.5177 110.791 31.6125 110.432 31.7946Z" fill="#E0E0E0"/>
<path opacity="0.1" d="M109.951 64.3062L113.242 62.407V59.1323L109.951 61.0315V64.3062Z" fill="black"/>
<path opacity="0.1" d="M79.1597 112.091L82.4509 110.192V106.917L79.1597 108.816V112.091Z" fill="black"/>
<path opacity="0.1" d="M109.951 94.2857L113.242 92.3865V89.1085L109.951 91.0077V94.2857Z" fill="black"/>
<path d="M125.334 53.8789L69.9587 85.8537V64.3626L125.334 32.3845V53.8789Z" fill="#82DDFF"/>
<path opacity="0.2" d="M69.9587 85.8537L70.6713 64.8929L125.334 32.3845L69.9587 64.3626V85.8537Z" fill="white"/>
<path d="M67.8838 84.6506L69.9587 85.8537V64.3626L67.8838 63.1064V84.6506Z" fill="#82DDFF"/>
<path opacity="0.1" d="M67.8838 84.6506L69.9587 85.8537V64.3626L67.8838 63.1064V84.6506Z" fill="black"/>
<path d="M69.9587 64.3626L67.8838 63.1064L123.193 31.1681L125.334 32.3845L69.9587 64.3626Z" fill="#82DDFF"/>
<path d="M70.1476 91.0077L72.2225 92.1843V113.675L70.1476 112.495V91.0077Z" fill="#82DDFF"/>
<path opacity="0.1" d="M70.1476 91.0077L72.2225 92.1843V113.675L70.1476 112.495V91.0077Z" fill="black"/>
<path d="M72.2225 92.1843V113.675L123.826 83.865V62.3706L72.2225 92.1843Z" fill="#82DDFF"/>
<path opacity="0.2" d="M116.269 66.7325L72.9881 92.7544L72.2225 113.675V92.1844L116.269 66.7325Z" fill="white"/>
<path d="M72.2225 92.1844L70.1476 91.0078L121.771 61.1841L123.826 62.3707" fill="#82DDFF"/>
<path d="M69.9587 64.3626L67.8838 63.1064L123.193 31.1681L125.334 32.3845L69.9587 64.3626Z" fill="#82DDFF"/>
<path opacity="0.3" d="M69.9587 64.3626L67.8838 63.1064L123.193 31.1681L125.334 32.3845L69.9587 64.3626Z" fill="black"/>
<path d="M72.2225 92.1844L70.1476 91.0078L121.771 61.1841L123.826 62.3707" fill="#82DDFF"/>
<path opacity="0.3" d="M72.2225 92.1844L70.1476 91.0078L121.771 61.1841L123.826 62.3707" fill="black"/>
<path d="M92.1126 56.156L90.1737 57.2763V69.5399L94.91 66.8021V64.6112L92.1126 66.2287V56.156ZM80.6081 67.5976L77.8571 69.1885V64.3859L75.9181 65.5061V77.7697L77.8604 76.6494V71.396L80.6114 69.8083V75.0618L82.5404 73.9481V61.6846L80.6114 62.7982L80.6081 67.5976ZM85.9444 66.706L88.3175 65.3338L88.5429 63.0501L85.9444 64.5516V61.9232L89.0699 60.1168V57.9259L84.0021 60.8526V73.1162L89.2357 70.0967V67.9058L85.9444 69.805V66.706ZM117.634 51.4826V41.4132L115.695 42.5335V54.7971L120.435 52.0593V49.8684L117.634 51.4826ZM112.414 51.7279C112.414 53.5575 111.943 54.7706 111.108 55.2545C110.273 55.7384 109.65 55.4235 109.65 53.3254V46.0336L107.727 47.1506V54.6148C107.727 57.1868 108.562 59.0396 110.962 57.6542C113.464 56.209 114.359 53.3752 114.359 50.7866V43.3091L112.42 44.4294L112.414 51.7279ZM97.9925 52.7222C97.3793 53.0769 95.7817 54.048 95.5464 54.1706V66.4342L97.4854 65.3139V60.6173L97.84 60.4151C99.7923 59.2882 101.002 57.2829 101.002 54.7109C101.009 52.3742 99.9978 51.5655 97.9991 52.7189L97.9925 52.7222ZM97.9925 58.3568L97.4986 58.6419V55.0225C97.638 54.9168 97.7841 54.8205 97.9362 54.7341C98.6753 54.3231 98.9802 55.0158 98.9802 56.0301C98.9736 57.2266 98.5162 58.0519 97.9859 58.3601L97.9925 58.3568ZM101.97 62.7319L103.912 61.6116V56.4875L106.299 55.1119L106.534 52.8183L103.912 54.333V51.5257L107.041 49.7193V47.5483L101.95 50.465L101.97 62.7319Z" fill="#37474F"/>
<path d="M92.106 56.1559L90.167 57.2762V69.5398L94.9067 66.802V64.6112L92.106 66.2286V56.1559Z" fill="#263238"/>
<path d="M80.6015 67.5975L77.8504 69.1885V64.3891L75.9115 65.5094V77.7697L77.8504 76.6494V71.3959L80.6015 69.8083V75.0617L82.5305 73.9481V61.6845L80.6015 62.7982V67.5975Z" fill="#263238"/>
<path d="M85.9411 66.6894L88.3176 65.3172L88.5429 63.0335L85.9411 64.5317V61.9066L89.0699 60.1002V57.9094L84.0021 60.836V73.0963L89.2357 70.0768V67.8859L85.9411 69.7851V66.6894Z" fill="#263238"/>
<path d="M117.641 51.4826V41.4132L115.702 42.5335V54.7971L120.441 52.0593V49.8684L117.641 51.4826Z" fill="#263238"/>
<path d="M112.42 51.7278C112.42 53.5574 111.95 54.7705 111.115 55.2544C110.279 55.7383 109.656 55.4234 109.656 53.3254V46.0335L107.727 47.1505V54.6147C107.727 57.1867 108.562 59.0395 110.962 57.6541C113.465 56.209 114.359 53.3751 114.359 50.7865V43.309L112.42 44.4293V51.7278Z" fill="#263238"/>
<path d="M97.9991 52.7189C97.3893 53.0702 95.7851 54.0446 95.5497 54.1673V66.4308L97.492 65.3139V60.6173L97.8467 60.4151C99.7989 59.2882 101.009 57.2829 101.009 54.7109C101.009 52.3741 99.9978 51.5654 97.9991 52.7189ZM97.9991 58.3535L97.5053 58.6352V55.0191C97.6457 54.916 97.7917 54.8208 97.9428 54.7341C98.6819 54.3231 98.9869 55.0158 98.9869 56.03C98.9736 57.2265 98.5162 58.0519 97.9859 58.3601L97.9991 58.3535Z" fill="#263238"/>
<path d="M101.95 62.7352L103.892 61.6149V56.4874L106.279 55.1119L106.514 52.8183L103.892 54.333V51.5256L107.021 49.7192V47.5449L101.95 50.4716V62.7352Z" fill="#263238"/>
<path d="M105.566 53.3652L103.892 54.333V53.3618L103.05 53.8491V51.0417L106.179 49.2353V48.0322L101.95 50.4716V61.764L103.05 61.1277V56.0035L105.437 54.6247L105.566 53.3652Z" fill="#455A64"/>
<path d="M116.802 50.9986V41.9004L115.702 42.5335V53.8259L119.6 51.5754V50.3523L117.641 51.4825V50.5147L116.802 50.9986Z" fill="#455A64"/>
<path d="M113.518 50.286V43.7963L112.42 44.4293V51.7212C112.42 53.5508 111.95 54.7639 111.115 55.2478C110.584 55.5527 110.137 55.5328 109.882 54.9163C109.255 55.0721 108.814 54.5849 108.814 52.8216V46.5108L107.727 47.1505V54.6147C107.727 55.8974 107.936 57.0045 108.443 57.6176C109.036 57.6609 109.627 57.5033 110.12 57.1702C112.626 55.7118 113.518 52.8746 113.518 50.286Z" fill="#455A64"/>
<path d="M84.0021 72.1251L88.3938 69.5895V68.3698L85.9411 69.7851V68.814L85.1025 69.3012V66.2021L87.4757 64.8299L87.6016 63.5771L85.9411 64.5316V63.5638L85.1025 64.0477V61.4227L88.2314 59.6163V58.3965L84.0021 60.836V72.1251Z" fill="#455A64"/>
<path d="M79.7629 70.2922L80.6015 69.8083V74.0906L81.6919 73.4609V62.1718L80.6015 62.7982V67.5976L77.8504 69.1885V68.2174L77.0086 68.7013V64.873L75.9115 65.5094V76.7985L77.0086 76.1622V70.912L79.7629 69.3244V70.2922Z" fill="#455A64"/>
<path d="M92.106 65.2575L91.2641 65.7414V56.6432L90.167 57.2763V68.5687L94.0649 66.3181V65.0984L92.106 66.2287V65.2575Z" fill="#455A64"/>
<path d="M100.17 54.2269C100.17 53.3088 100.011 52.6326 99.7028 52.2117C99.0963 52.202 98.5016 52.379 97.9992 52.7188C97.386 53.0734 95.7884 54.0446 95.5531 54.1672V65.4563L96.6535 64.8233V60.1333L97.0048 59.9278C98.957 58.8009 100.17 56.7989 100.17 54.2269ZM97.9859 58.36L97.492 58.6451V57.5811C97.397 57.6947 97.2853 57.793 97.1606 57.8728L96.6667 58.1579V54.5351C96.8048 54.4294 96.9499 54.333 97.1009 54.2468C97.6014 53.9717 97.8997 54.1971 98.0456 54.6843C98.7084 54.3926 98.9869 55.0654 98.9869 56.03C98.9736 57.2265 98.5162 58.0518 97.9859 58.36Z" fill="#455A64"/>
<path d="M119.6 51.5754L120.441 52.0593V49.8684L119.6 50.3523V51.5754Z" fill="#37474F"/>
<path d="M117.641 51.4826L116.802 50.9987V41.9004L117.641 41.4132V51.4826Z" fill="#37474F"/>
<path d="M108.814 46.5108V52.8382C108.814 53.8325 108.963 54.6313 109.378 54.8799L110.236 55.3804C109.882 55.1848 109.656 54.575 109.656 53.3287V46.0369L108.814 46.5108Z" fill="#37474F"/>
<path d="M103.05 56.0035L103.892 56.4874V61.6149L103.05 61.1277V56.0035Z" fill="#37474F"/>
<path d="M105.437 54.6247L106.279 55.1119L106.514 52.8183L105.566 53.3652L105.437 54.6247Z" fill="#37474F"/>
<path d="M103.892 54.333L103.05 53.8491V51.0417L103.892 51.5257V54.333Z" fill="#37474F"/>
<path d="M107.021 49.7192L106.179 49.2353V48.0322L107.021 47.5449V49.7192Z" fill="#37474F"/>
<path d="M96.6535 60.1334L97.492 60.6173V65.3106L96.6535 64.8234V60.1334Z" fill="#37474F"/>
<path d="M96.6535 58.1579L97.492 58.6451V55.0191L96.6535 54.5352V58.1579Z" fill="#37474F"/>
<path d="M98.4797 54.6412C98.3868 54.6158 98.2894 54.6109 98.1944 54.6269C98.0994 54.6429 98.009 54.6795 97.9295 54.734C97.7785 54.8207 97.6324 54.9159 97.492 55.0191L96.6535 54.5351C96.7894 54.4357 96.9352 54.3396 97.0877 54.2468C97.1713 54.1847 97.2697 54.1454 97.3731 54.1326C97.4764 54.1198 97.5814 54.134 97.6776 54.1739L98.4797 54.6412Z" fill="#263238"/>
<path d="M91.2641 65.7414L92.106 66.2286V56.1559L91.2641 56.6432V65.7414Z" fill="#37474F"/>
<path d="M94.0649 66.3182L94.9068 66.8021V64.6112L94.0649 65.0984V66.3182Z" fill="#37474F"/>
<path d="M88.2314 59.6163L89.0699 60.1002V57.9094L88.2314 58.3966V59.6163Z" fill="#37474F"/>
<path d="M85.1025 61.4226L85.9411 61.9065V64.5316L85.1025 64.0477V61.4226Z" fill="#37474F"/>
<path d="M87.6016 63.5771L87.4757 64.83L88.3175 65.3172L88.5429 63.0335L87.6016 63.5771Z" fill="#37474F"/>
<path d="M85.1025 66.2021L85.9411 66.6894V69.7851L85.1025 69.3012V66.2021Z" fill="#37474F"/>
<path d="M88.3938 68.3698V69.5895L89.2357 70.0767V67.8859L88.3938 68.3698Z" fill="#37474F"/>
<path d="M81.6919 73.4608L82.5305 73.9481V61.6845L81.6919 62.1717V73.4608Z" fill="#37474F"/>
<path d="M77.0085 68.7013L77.8504 69.1885V64.3892L77.0085 64.8731V68.7013Z" fill="#37474F"/>
<path d="M77.0085 70.912L77.8504 71.396V76.6494L77.0085 76.1622V70.912Z" fill="#37474F"/>
<path d="M79.7629 69.3243L80.6014 69.8083L77.8504 71.3959L77.0085 70.912L79.7629 69.3243Z" fill="#263238"/>
<path d="M89.5472 86.0758L89.2555 88.85L87.0713 90.1095V102.085L84.7512 103.411V91.4419L82.4973 92.7445V90.136L89.5472 86.0758Z" fill="#37474F"/>
<path d="M90.4554 85.5587L92.7755 84.2329V98.8166L90.4554 100.142V85.5587Z" fill="#37474F"/>
<path d="M94.4858 83.2219C94.7675 83.0628 96.67 81.9194 97.3959 81.5017C99.7757 80.1262 100.979 81.0907 100.979 83.8683C100.979 86.9275 99.5371 89.3106 97.2136 90.6497L96.796 90.8916V96.4699L94.4759 97.7957L94.4858 83.2219ZM96.8059 88.545L97.3926 88.2135C98.0223 87.849 98.5692 86.8679 98.5692 85.446C98.5692 84.2395 98.2046 83.4142 97.323 83.9014C97.1434 84.0001 96.9706 84.1108 96.8059 84.2329V88.545Z" fill="#37474F"/>
<path d="M108.112 76.5632L107.303 79.4004C106.869 79.2844 105.977 78.9761 105.271 79.4004C104.979 79.5675 104.736 79.8087 104.567 80.0997C104.397 80.3906 104.308 80.721 104.307 81.0576C104.35 81.9824 104.784 82.2707 105.964 82.3602C107.459 82.463 108.188 83.0795 108.188 85.2736C108.188 87.9252 106.899 90.779 104.873 91.9556C104.385 92.2633 103.833 92.4565 103.259 92.5208C102.685 92.5851 102.104 92.5188 101.559 92.3268L102.315 89.3438C102.58 89.4698 103.853 89.9437 104.592 89.5129C105.331 89.082 105.725 88.2799 105.725 87.2458C105.725 86.2116 105.238 86.0824 104.399 86.0426C102.775 85.9465 101.824 85.3101 101.824 82.9866C101.824 80.4212 103.306 77.952 104.973 76.9908C106.309 76.2052 107.482 76.2583 108.112 76.5632Z" fill="#37474F"/>
<path d="M112.142 85.867C112.142 86.9641 111.708 88.0777 110.896 88.5451C110.084 89.0124 109.666 88.3959 109.666 87.3817C109.666 86.2614 110.114 85.1411 110.926 84.6737C111.738 84.2064 112.142 84.7666 112.142 85.867ZM109.945 74.2994L112.381 72.8941L111.973 82.9701L109.945 84.1401V74.2994Z" fill="#37474F"/>
<path d="M109.945 74.2994V83.169L111.134 82.4829L111.499 73.4012L109.945 74.2994Z" fill="#455A64"/>
<path d="M111.187 84.5544C111.096 84.5849 111.009 84.6249 110.926 84.6737C110.114 85.141 109.666 86.2613 109.666 87.3816C109.66 87.6519 109.702 87.9211 109.789 88.1771C109.882 88.1487 109.972 88.1098 110.057 88.0611C110.869 87.5904 111.3 86.4801 111.3 85.3797C111.306 85.1004 111.268 84.8218 111.187 84.5544Z" fill="#455A64"/>
<path d="M100.137 83.3844C100.137 82.231 99.9282 81.3958 99.5172 80.9085C98.9637 80.8157 98.2577 81.0013 97.3959 81.5018C96.67 81.9195 94.7675 83.0629 94.4858 83.222V96.8346L95.9541 95.9861V90.4078L96.3751 90.1659C98.6952 88.8235 100.137 86.4437 100.137 83.3844ZM97.3827 88.207L96.796 88.5385V87.5275C96.7172 87.5977 96.6317 87.6598 96.5408 87.7132L95.9541 88.0446V83.7358C96.1187 83.6136 96.2914 83.5028 96.4712 83.4043C97.0181 83.1027 97.3661 83.3049 97.5517 83.7888C98.2577 83.5667 98.546 84.3423 98.546 85.4461C98.5593 86.8613 98.0124 87.8424 97.3827 88.207Z" fill="#455A64"/>
<path d="M104.025 91.4552C106.07 90.2752 107.356 87.4215 107.356 84.7732C107.356 83.6164 107.15 82.9005 106.743 82.453C106.491 82.3855 106.234 82.3444 105.974 82.3304C105.578 82.3247 105.188 82.2343 104.83 82.0653C104.691 81.9857 104.058 81.6311 103.906 81.5283C103.756 81.412 103.637 81.2602 103.561 81.0866C103.484 80.913 103.452 80.723 103.468 80.534C103.47 80.1975 103.56 79.8673 103.729 79.5765C103.898 79.2857 104.141 79.0444 104.433 78.8767C105.145 78.4657 106.027 78.774 106.461 78.8767L107.194 76.3213C106.407 76.3159 105.635 76.5318 104.966 76.9444C103.309 77.9056 101.817 80.3749 101.817 82.9403C101.817 84.1368 102.073 84.8826 102.537 85.3433C102.867 85.4393 103.207 85.496 103.551 85.5123C103.874 85.5009 104.194 85.5716 104.482 85.7178C104.595 85.7907 105.205 86.1122 105.364 86.2282C105.586 86.394 105.695 86.6856 105.695 87.1994C105.695 88.2335 105.347 89.0157 104.562 89.4665C103.776 89.9173 102.55 89.4234 102.285 89.2974L101.599 91.9921C102.444 92.0768 103.294 91.8887 104.025 91.4552Z" fill="#455A64"/>
<path d="M88.5993 86.6226L82.5106 90.136V91.7733L83.9226 90.958V91.9291L84.7644 91.4419V102.446L86.2294 101.601V89.6255L88.4137 88.366L88.5993 86.6226Z" fill="#455A64"/>
<path d="M91.9105 98.3195V84.7102L90.4421 85.5587V99.168L91.9105 98.3195Z" fill="#455A64"/>
<path d="M83.9226 90.9579L84.7644 91.4419L82.5106 92.7444V91.7733L83.9226 90.9579Z" fill="#263238"/>
<path d="M89.2556 88.85L88.4137 88.3661L86.2294 89.6256L87.0713 90.1095L89.2556 88.85Z" fill="#263238"/>
<path d="M86.2294 101.601L87.0713 102.085L84.7644 103.417V102.446L86.2294 101.601Z" fill="#263238"/>
<path d="M91.9105 98.3195L92.7523 98.8067L90.4421 100.139V99.168L91.9105 98.3195Z" fill="#263238"/>
<path d="M95.9541 95.986L96.796 96.4699L94.4858 97.8057V96.8345L95.9541 95.986Z" fill="#263238"/>
<path d="M100.979 83.8716C100.979 86.9276 99.5371 89.3074 97.2136 90.6497L96.796 90.8917L95.9574 90.4078L96.375 90.1658C98.6952 88.84 100.14 86.4403 100.14 83.3844C100.14 82.2343 99.9249 81.3957 99.5172 80.9052C100.485 81.0676 100.979 82.0984 100.979 83.8716Z" fill="#263238"/>
<path d="M95.9541 83.7523L96.796 84.2395C97.2136 83.9512 97.5815 83.6495 97.9991 83.802L97.1705 83.3214C96.849 83.1424 96.4214 83.4208 95.9541 83.7523Z" fill="#263238"/>
<path d="M95.9541 83.7523L96.796 84.2395V88.5451L95.9541 88.0611V83.7523Z" fill="#37474F"/>
<path d="M106.461 78.9132L107.303 79.4004L108.112 76.5632C107.823 76.4316 107.511 76.3616 107.193 76.3577L106.461 78.9132Z" fill="#263238"/>
<path d="M111.134 82.4829L111.973 82.9701L109.945 84.1401V83.169L111.134 82.4829Z" fill="#263238"/>
<path d="M61.7355 117.63C61.9012 118.561 62.2127 119.645 62.4713 121.557C62.7298 123.47 62.3155 123.546 63.5286 128.332C64.2578 131.209 64.1119 132.349 62.3387 134.755C60.4428 137.331 58.4839 136.791 57.2278 133.907C56.1506 131.441 56.2334 130.301 56.2334 127.755C56.2334 125.21 56.2334 124.471 56.1273 122.452C56.0379 120.672 56.1936 119.469 56.0942 118.094L61.7355 117.63Z" fill="#37474F"/>
<path d="M62.2625 124.603C61.931 122.134 61.868 119.582 61.752 117.915C61.4935 114.179 62.3055 106.804 61.815 101.186L52.3588 100.156C52.6604 102.347 55.2026 112.267 56.1075 118.249C56.1075 118.249 56.419 126.363 56.9162 129.94C56.9298 130.045 56.9678 130.146 57.0272 130.234C57.0867 130.322 57.166 130.395 57.2587 130.448C57.3514 130.5 57.455 130.53 57.5613 130.535C57.6676 130.54 57.7736 130.52 57.8708 130.476C59.2254 129.891 60.7438 129.804 62.1564 130.231C62.2615 130.27 62.3745 130.282 62.4854 130.267C62.5963 130.251 62.7018 130.209 62.7926 130.144C62.8835 130.078 62.957 129.992 63.0067 129.891C63.0564 129.791 63.0808 129.68 63.0778 129.568C63.0646 128.266 62.5144 126.456 62.2625 124.603Z" fill="#FFBDA7"/>
<path d="M34.4407 99.7977C34.5766 107.57 34.5899 114.451 34.338 116.469C34.0861 118.488 33.98 119.171 33.4828 120.589C32.9857 122.008 32.157 123.904 31.3814 124.815C31.3814 124.815 29.1939 127.212 29.6911 127.45C30.1882 127.689 34.8451 128.113 36.9199 127.45C38.9948 126.787 39.1937 125.024 39.8599 121.789C40.5261 118.554 41.0763 113.834 41.0763 113.834C40.978 113.664 40.9033 113.481 40.8542 113.291C40.5659 112.363 41.3812 109.937 41.5668 107.59L34.4407 99.7977Z" fill="#FFBDA7"/>
<path d="M43.1976 118.64C43.0716 119.393 42.4352 120.255 42.1601 121.431C41.8423 122.771 41.6569 124.139 41.6066 125.515L41.5271 127.437L41.0034 127.414C41.0034 127.414 41.1061 124.984 41.1525 123.917C41.1989 122.85 41.1227 122.068 40.6189 121.928C40.6189 121.932 40.6752 118.534 43.1976 118.64Z" fill="#263238"/>
<path d="M40.9769 113.417C41.3249 114.302 42.4717 115.541 42.9656 116.383C43.2191 116.828 43.3623 117.327 43.3832 117.838C43.3926 118.05 43.3577 118.262 43.2806 118.459C43.2036 118.657 43.0861 118.836 42.9357 118.985C42.3642 119.553 41.8316 120.159 41.3415 120.798C40.7184 121.66 39.5483 123.669 39.2368 125.081C38.9252 126.492 38.7495 127.732 37.5464 128.451C36.6117 129.008 32.7537 129.82 30.7981 129.969C28.1266 130.175 27.4173 128.895 28.4051 127.858C29.3928 126.821 31.0566 125.037 31.3682 124.815C32.2112 124.7 33.0698 124.808 33.8574 125.13C35.3622 125.753 35.8461 126.618 37.4138 125.813C38.8258 125.084 39.3594 122.446 39.1904 118.66C39.0015 114.365 40.9769 113.417 40.9769 113.417Z" fill="#37474F"/>
<path d="M54.8049 46.5439C54.9905 47.5184 55.1993 48.4299 55.5539 48.9138C57.7216 51.8736 59.9357 55.4599 60.3666 61.005C60.9939 69.7549 61.1488 78.5322 60.8306 87.2988C60.9367 88.4787 61.8713 91.3358 62.0835 98.0808C62.2525 103.454 62.0039 111.813 62.0039 111.813C62.0039 111.813 58.1658 113.728 54.8049 112.476C53.4227 107.358 51.0794 95.048 49.7072 89.1946C48.2588 83.0198 46.7739 75.6583 46.7739 75.6583L44.5963 86.49C44.8563 88.8106 44.8563 91.153 44.5963 93.4736C44.2184 97.0698 41.4608 109.754 41.4608 109.754C41.4608 109.754 37.1984 111.12 34.2949 109.131C34.2949 109.131 33.8143 91.233 33.7613 87.2822C33.7082 83.3313 34.1689 59.8516 36.5222 49.4971C36.6071 48.699 36.6492 47.8968 36.6482 47.0941C39.4953 49.4242 51.0562 49.1127 54.8049 46.5439Z" fill="#37474F"/>
<path d="M62.0569 109.953C60.6052 111.309 56.124 111.697 54.3541 110.775L54.9242 113.563C54.9242 113.563 56.0909 114.338 58.6397 114.09C61.1885 113.841 61.994 112.814 61.994 112.814L62.0569 109.953Z" fill="#455A64"/>
<path d="M41.8685 107.984C40.3571 108.508 35.8328 108.316 34.1623 107.295L34.265 109.691C34.265 109.691 35.2063 110.576 37.7585 110.815C40.3106 111.054 41.4044 110.328 41.4044 110.328L41.8685 107.984Z" fill="#455A64"/>
<path d="M46.7739 75.655L44.9377 62.4369C43.6506 62.467 42.3738 62.1998 41.2068 61.6559C40.0399 61.1121 39.0141 60.3064 38.2093 59.3014C38.2093 59.3014 38.143 62.6159 43.602 64.061L45.7531 76.2417L44.5963 86.4867L46.7739 75.655Z" fill="#263238"/>
<path d="M36.552 49.3215C36.552 49.3215 39.3196 51.3698 45.7829 51.0185C52.2461 50.6672 55.3551 48.5824 55.3219 48.4763C55.1175 47.9319 54.9654 47.3692 54.8678 46.7959C54.8446 46.6997 54.8281 46.6136 54.8181 46.5506C51.0694 49.1193 39.5085 49.4309 36.6614 47.1174C36.6614 47.1174 36.6614 48.6619 36.5653 49.3281L36.552 49.3215Z" fill="#263238"/>
<path d="M41.2818 25.918C41.2818 25.918 37.7817 26.498 35.1898 29.027C32.0046 32.1326 27.9609 35.6559 27.9609 35.6559C27.0338 33.9826 26.2573 32.23 25.6408 30.4191C24.4509 26.7731 24.8188 25.5965 25.4055 24.3105C25.7369 23.5448 26.1976 22.5604 26.3998 22.0202C26.6964 21.2228 27.1356 20.4861 27.6958 19.8459C27.9875 19.5443 27.3179 19.067 26.1678 19.7663C25.3127 20.2834 24.7227 21.1915 24.2984 21.6324C24.0764 21.1551 23.8311 20.3563 23.3306 19.3321C23.1085 18.8747 22.913 18.4074 22.6677 17.9666C22.5594 17.7751 22.4219 17.6018 22.26 17.4528C22.1081 17.3113 21.9157 17.2209 21.7098 17.1943C21.5547 17.1784 21.3981 17.2003 21.2532 17.258C21.1084 17.3157 20.9796 17.4076 20.8779 17.5257C20.776 17.6747 20.6654 17.8175 20.5465 17.9533C20.1984 18.2847 19.5919 18.1588 19.2704 18.5002C19.0781 18.6957 19.0351 19.0007 18.8461 19.1962C18.6572 19.3918 18.4119 19.4316 18.2363 19.5973C17.9247 19.8923 17.9645 20.416 17.6927 20.7441C17.4807 20.9466 17.3037 21.183 17.169 21.4434C16.9933 21.997 17.2552 22.8223 17.3546 23.157C17.6316 24.1214 18.0128 25.0527 18.4915 25.9346C19.2638 27.2604 19.5455 27.3929 20.2747 31.5161C20.9376 35.2582 21.9087 40.4652 23.3008 43.1433C24.6929 45.8214 27.3544 44.9232 29.6281 43.2196C32.4753 41.0917 39.5351 35.9277 39.5351 35.9277L41.2951 25.7722" fill="#FFBDA7"/>
<path d="M23.3273 20.8237C23.7582 21.5363 23.9438 22.0964 23.1715 22.9317C22.7141 23.4289 21.6701 24.4762 21.8888 25.3347C21.6478 25.0726 21.4928 24.7429 21.4447 24.3901C21.4215 23.8929 21.3353 23.6808 21.0967 23.8266C20.8777 23.9378 20.6321 23.986 20.3874 23.9658C20.3874 23.9658 20.5432 24.3403 19.8935 24.5458C19.2439 24.7513 18.0474 23.8465 17.527 21.9937C17.527 21.9937 18.6605 24.2343 19.4693 24.0553C20.278 23.8763 20.0095 22.1561 19.5356 21.4369C19.5356 21.4369 20.7288 23.5018 21.4049 23.2068C22.0811 22.9118 21.7927 21.6258 21.0967 20.6049C21.0967 20.6049 22.144 22.3019 22.7539 22.0666C23.4599 21.7782 23.3439 21.1385 23.3273 20.8237Z" fill="#F0997A"/>
<path d="M41.2818 25.7556C39.4522 26.1599 37.5 26.7499 34.5932 29.3717C31.6864 31.9934 27.9908 35.3742 27.9908 35.3742L26.0518 31.3073C26.0518 31.3073 25.5281 32.242 23.2875 32.8253C21.0469 33.4087 20.3874 33.0839 20.3874 33.0839C20.3874 33.0839 21.2591 38.334 22.333 41.3866C23.4068 44.4393 24.6531 45.4999 26.3103 45.079C27.9676 44.658 30.0822 43.1367 32.2366 41.6319C34.391 40.1271 39.7439 36.11 39.7439 36.11L41.2818 25.7556Z" fill="#82DDFF"/>
<path opacity="0.2" d="M41.2818 25.7556C39.4522 26.1599 37.5 26.7499 34.5932 29.3717C31.6864 31.9934 27.9908 35.3742 27.9908 35.3742L26.0518 31.3073C26.0518 31.3073 25.5281 32.242 23.2875 32.8253C21.0469 33.4087 20.3874 33.0839 20.3874 33.0839C20.3874 33.0839 21.2591 38.334 22.333 41.3866C23.4068 44.4393 24.6531 45.4999 26.3103 45.079C27.9676 44.658 30.0822 43.1367 32.2366 41.6319C34.391 40.1271 39.7439 36.11 39.7439 36.11L41.2818 25.7556Z" fill="black"/>
<path d="M31.7395 18.9775C31.1489 19.4383 30.4348 19.7136 29.6876 19.7684C28.9405 19.8232 28.1939 19.655 27.5424 19.2852C26.8909 18.9154 26.3638 18.3606 26.0278 17.691C25.6918 17.0215 25.562 16.2673 25.6549 15.5239C25.7479 14.7805 26.0593 14.0815 26.5497 13.5152C27.0402 12.949 27.6877 12.541 28.4102 12.3429C29.1327 12.1449 29.8977 12.1657 30.6083 12.4027C31.319 12.6397 31.9434 13.0822 32.4024 13.6743C33.0161 14.4661 33.291 15.4688 33.1667 16.4629C33.0425 17.4569 32.5292 18.3612 31.7395 18.9775Z" fill="#455A64"/>
<path d="M30.2015 17.771L25.6375 15.9116C25.6231 16.8161 25.9332 17.6959 26.5115 18.3915C27.0898 19.0871 27.8981 19.5526 28.7901 19.7037C29.682 19.8547 30.5985 19.6813 31.3736 19.2149C32.1488 18.7486 32.7312 18.02 33.0155 17.1612C32.452 18.0196 31.6698 18.3676 30.2015 17.771Z" fill="#37474F"/>
<path d="M26.9003 16.9888L26.486 13.9825C24.1878 16.8678 21.4917 19.4122 18.4782 21.5396L18.6439 22.7427C20.616 21.997 23.9471 19.584 26.9003 16.9888Z" fill="#37474F"/>
<path d="M28.8857 19.5144H27.0859L23.798 22.0334C23.074 22.5879 22.2188 22.9456 21.3157 23.0716C20.4125 23.1977 19.4921 23.0878 18.644 22.7527C20.9276 21.7815 24.1891 19.3354 26.9003 17.0087L28.8857 19.5144Z" fill="#455A64"/>
<path d="M23.0091 19.6404V19.7266C23.0248 19.8037 23.0581 19.8761 23.1064 19.9382C23.1547 20.0003 23.2167 20.0504 23.2875 20.0845L23.9305 20.3464C23.9586 20.3515 23.9843 20.3653 24.0041 20.3859C24.0239 20.4064 24.0367 20.4326 24.0407 20.4609C24.0447 20.4891 24.0398 20.5179 24.0266 20.5431C24.0133 20.5684 23.9925 20.5888 23.967 20.6016L23.8974 20.658C23.8334 20.7025 23.7598 20.7311 23.6825 20.7415C23.6053 20.7518 23.5267 20.7437 23.4532 20.7176L22.7904 20.4525C22.7194 20.4197 22.6574 20.3704 22.6095 20.3087C22.5617 20.247 22.5293 20.1746 22.5153 20.0978V20.0116C22.5109 19.9337 22.5245 19.8559 22.555 19.7841C22.5854 19.7122 22.6319 19.6484 22.6909 19.5973L22.7605 19.541C22.779 19.517 22.8049 19.4998 22.834 19.4918C22.8632 19.4839 22.8942 19.4857 22.9223 19.4969C22.9504 19.5081 22.9741 19.5282 22.9898 19.5541C23.0054 19.58 23.0122 19.6103 23.0091 19.6404Z" fill="#82DDFF"/>
<path d="M21.8789 20.396C21.8773 20.4258 21.8773 20.4557 21.8789 20.4855C21.8935 20.5622 21.926 20.6343 21.9738 20.6959C22.0216 20.7575 22.0834 20.807 22.154 20.8402L22.8169 21.1053C22.8447 21.1109 22.8701 21.1251 22.8895 21.1458C22.9088 21.1666 22.9212 21.1929 22.9249 21.2211C22.9285 21.2492 22.9233 21.2778 22.9099 21.3028C22.8964 21.3278 22.8755 21.348 22.85 21.3605L22.7804 21.4136C22.7166 21.4584 22.6431 21.4874 22.5659 21.4984C22.4887 21.5093 22.41 21.5019 22.3363 21.4765L21.6734 21.2114C21.603 21.1775 21.5417 21.1273 21.4944 21.0651C21.4472 21.0029 21.4154 20.9303 21.4016 20.8534V20.7706C21.3958 20.6923 21.4084 20.6138 21.4383 20.5413C21.4683 20.4688 21.5147 20.4043 21.574 20.3529L21.6436 20.2999C21.7529 20.2104 21.8457 20.2535 21.8789 20.396Z" fill="#82DDFF"/>
<path d="M20.7486 21.1551V21.2445C20.7632 21.3212 20.7957 21.3933 20.8436 21.4549C20.8914 21.5166 20.9531 21.566 21.0237 21.5992L21.6866 21.861C21.7144 21.8671 21.7397 21.8815 21.759 21.9024C21.7784 21.9232 21.7909 21.9495 21.7948 21.9776C21.7988 22.0058 21.794 22.0345 21.7812 22.0598C21.7684 22.0852 21.7481 22.1061 21.7231 22.1196L21.6535 22.1726C21.5891 22.2175 21.515 22.2465 21.4373 22.2575C21.3595 22.2684 21.2803 22.2609 21.206 22.2356L20.5431 21.9671C20.4725 21.9344 20.4109 21.8851 20.3635 21.8233C20.3162 21.7615 20.2845 21.6892 20.2713 21.6125V21.5296C20.2663 21.4514 20.2793 21.3732 20.3091 21.3008C20.339 21.2284 20.385 21.1638 20.4437 21.112L20.5166 21.0556C20.6227 20.9661 20.7287 21.0125 20.7486 21.1551Z" fill="#82DDFF"/>
<path d="M28.1896 10.6913C28.7299 10.91 29.1409 11.4569 29.3132 12.2822C29.3298 12.3684 29.3464 12.4579 29.3596 12.5507C29.3729 12.6435 29.3862 12.7695 29.3928 12.8822C29.4044 13.072 29.4044 13.2624 29.3928 13.4522C29.375 13.8161 29.3251 14.1777 29.2436 14.5328C29.0208 15.5171 28.599 16.4454 28.004 17.2606C27.7216 17.6464 27.3869 17.991 27.0097 18.2848C26.2507 18.8747 25.5082 19.0338 24.9182 18.8151L26.9666 19.6404C27.3635 19.7798 27.7896 19.8149 28.204 19.7423C28.6184 19.6698 29.0072 19.492 29.3331 19.2261C29.6883 18.9452 30.0048 18.6187 30.2744 18.2549C30.8886 17.4264 31.3242 16.4795 31.5538 15.4741C31.6337 15.1187 31.6836 14.7573 31.703 14.3936C31.7146 14.2037 31.7146 14.0133 31.703 13.8235C31.703 13.7108 31.6864 13.5981 31.6698 13.492C31.617 13.0757 31.4611 12.6791 31.2163 12.3382C30.9715 11.9973 30.6455 11.7229 30.2678 11.5398L30.2115 11.5166L30.1319 11.4868L28.1896 10.6913Z" fill="#82DDFF"/>
<g opacity="0.1">
<path d="M26.9666 19.6404C27.3635 19.7798 27.7896 19.8149 28.204 19.7423C28.6184 19.6698 29.0072 19.492 29.3331 19.226C29.6883 18.9452 30.0048 18.6186 30.2745 18.2549L28.0007 17.2606C27.7183 17.6463 27.3836 17.991 27.0064 18.2847C26.2474 18.8747 25.5049 19.0338 24.9149 18.815L26.9666 19.6404Z" fill="black"/>
</g>
<path d="M26.0485 11.205C24.4907 12.4181 23.4433 14.9836 23.7283 16.9391C23.8609 17.9334 24.3051 18.5632 24.9116 18.8051H24.9448C25.5347 19.0239 26.2705 18.8648 27.0362 18.2748C28.5973 17.0617 29.6414 14.4963 29.3563 12.5408C29.2204 11.5663 28.7862 10.9233 28.1863 10.6814C27.5864 10.4394 26.8174 10.5985 26.0485 11.205Z" fill="#82DDFF"/>
<g opacity="0.2">
<path d="M26.0485 11.205C24.4907 12.4181 23.4433 14.9836 23.7283 16.9391C23.8609 17.9334 24.3051 18.5632 24.9116 18.8051H24.9448C25.5347 19.0239 26.2705 18.8648 27.0362 18.2748C28.5973 17.0617 29.6414 14.4963 29.3563 12.5408C29.2204 11.5663 28.7862 10.9233 28.1863 10.6814C27.5864 10.4394 26.8174 10.5985 26.0485 11.205Z" fill="black"/>
</g>
<path d="M20.6293 3.39941C20.6293 3.39941 21.2922 6.84979 19.2671 11.7917C18.9061 12.6782 18.4864 13.5396 18.0109 14.3703C16.2376 17.4429 14.365 18.7454 14.365 18.7454C16.7348 18.0826 19.3102 17.5456 21.922 17.9632C22.9407 18.1301 23.9497 18.3514 24.9448 18.6261C25.495 18.8482 26.1844 18.6891 26.8871 18.1422C27.3721 17.7533 27.785 17.2821 28.1068 16.7501C28.3313 16.3988 28.5222 16.027 28.6769 15.6398C29.0913 14.6813 29.2522 13.6324 29.1442 12.5938C29.0249 11.7154 28.6404 11.1155 28.0935 10.8934C27.19 10.3875 26.3138 9.83431 25.4685 9.23621C23.3306 7.70823 21.8623 5.52731 20.6293 3.39941Z" fill="#82DDFF"/>
<g opacity="0.6">
<path d="M20.6293 3.39941C20.6293 3.39941 21.2922 6.84979 19.2671 11.7917C18.9061 12.6782 18.4864 13.5396 18.0109 14.3703C16.2376 17.4429 14.365 18.7454 14.365 18.7454C16.7348 18.0826 19.3102 17.5456 21.922 17.9632C22.9407 18.1301 23.9497 18.3514 24.9448 18.6261C25.495 18.8482 26.1844 18.6891 26.8871 18.1422C27.3721 17.7533 27.785 17.2821 28.1068 16.7501C28.3313 16.3988 28.5222 16.027 28.6769 15.6398C29.0913 14.6813 29.2522 13.6324 29.1442 12.5938C29.0249 11.7154 28.6404 11.1155 28.0935 10.8934C27.19 10.3875 26.3138 9.83431 25.4685 9.23621C23.3306 7.70823 21.8623 5.52731 20.6293 3.39941Z" fill="white"/>
</g>
<g opacity="0.1">
<path d="M18.0109 14.367C16.2376 17.4396 14.365 18.7422 14.365 18.7422C16.7348 18.0793 19.3102 17.5423 21.922 17.9599C22.9407 18.1268 23.9497 18.3481 24.9448 18.6228C25.495 18.8449 26.1844 18.6858 26.8871 18.1389C27.3721 17.75 27.785 17.2788 28.1068 16.7468C25.7369 15.5967 21.6601 13.913 18.0109 14.367Z" fill="black"/>
</g>
<path d="M13.4999 1.48697C11.8725 2.74978 10.4837 4.63241 9.48604 6.74041C8.21328 9.44503 7.59347 12.5175 7.9448 15.1327C8.58781 19.7729 12.1144 21.2214 15.8233 18.3378C16.7022 17.637 17.4826 16.8209 18.1435 15.9116C19.896 13.5072 21.0091 10.697 21.3784 7.7447C21.4248 7.34365 21.4546 6.94591 21.4646 6.5548C21.4646 6.39239 21.4646 6.22335 21.4646 6.06757C21.4646 5.83888 21.4646 5.61018 21.438 5.40468C21.4115 5.19918 21.3983 4.94065 21.3651 4.71195C20.7354 0.0385397 17.2055 -1.39663 13.4999 1.48697Z" fill="#82DDFF"/>
<g opacity="0.15">
<path d="M13.4999 1.48697C11.8725 2.74978 10.4837 4.63241 9.48604 6.74041C8.21328 9.44503 7.59347 12.5175 7.9448 15.1327C8.58781 19.7729 12.1144 21.2214 15.8233 18.3378C16.7022 17.637 17.4826 16.8209 18.1435 15.9116C19.896 13.5072 21.0091 10.697 21.3784 7.7447C21.4248 7.34365 21.4546 6.94591 21.4646 6.5548C21.4646 6.39239 21.4646 6.22335 21.4646 6.06757C21.4646 5.83888 21.4646 5.61018 21.438 5.40468C21.4115 5.19918 21.3983 4.94065 21.3651 4.71195C20.7354 0.0385397 17.2055 -1.39663 13.4999 1.48697Z" fill="white"/>
</g>
<g opacity="0.1">
<path d="M9.48604 6.74371C8.21328 9.44501 7.59347 12.5175 7.9448 15.1327C8.58781 19.7729 12.1144 21.2214 15.8233 18.3378C16.7022 17.6369 17.4826 16.8209 18.1435 15.9116C17.4806 16.0673 16.2012 15.8188 16.41 15.0962C15.8193 15.902 15.1237 16.6254 14.3417 17.2473C13.2745 18.0759 12.2304 18.5068 11.3189 18.4935C10.9403 18.4923 10.5672 18.4016 10.2303 18.2288C9.89331 18.056 9.60196 17.806 9.37997 17.4992C8.8282 16.7144 8.48594 15.8017 8.38563 14.8476C8.0807 12.6269 8.57455 9.97864 9.60204 7.57565C9.6153 7.54913 9.29048 7.48284 9.48604 6.74371Z" fill="black"/>
</g>
<path d="M13.6026 2.0438C11.9653 3.31656 10.5599 5.32845 9.62523 7.54915C8.59775 9.95215 8.10389 12.6004 8.40882 14.8211C8.50913 15.7752 8.85139 16.6879 9.40317 17.4727C9.62515 17.7795 9.9165 18.0295 10.2535 18.2023C10.5904 18.3751 10.9635 18.4658 11.3421 18.467C12.2536 18.467 13.2977 18.0494 14.3649 17.2208C15.1469 16.5989 15.8425 15.8755 16.4332 15.0697C16.6718 14.7383 16.9005 14.4068 17.116 14.0754C17.4984 13.4664 17.8405 12.8331 18.1401 12.1795C18.2031 12.0436 18.2628 11.9077 18.3224 11.7718C18.4185 11.5464 18.5147 11.3177 18.6008 11.0857C18.8971 10.3104 19.1342 9.51373 19.3101 8.70259C19.3101 8.70259 19.3101 8.6827 19.3101 8.67276C19.4245 8.14741 19.5108 7.61634 19.5687 7.08181C19.6051 6.70396 19.6283 6.33274 19.635 5.96814C19.635 5.81236 19.635 5.66321 19.635 5.51075C19.635 5.35828 19.635 5.14947 19.6051 4.97049C19.5753 4.79151 19.572 4.63904 19.5488 4.46006C19.4485 3.50596 19.1062 2.59327 18.5544 1.80848C17.4673 0.389879 15.6112 0.482684 13.6026 2.0438Z" fill="#82DDFF"/>
<g opacity="0.4">
<path d="M13.6026 2.0438C11.9653 3.31656 10.5599 5.32845 9.62523 7.54915C8.59775 9.95215 8.10389 12.6004 8.40882 14.8211C8.50913 15.7752 8.85139 16.6879 9.40317 17.4727C9.62515 17.7795 9.9165 18.0295 10.2535 18.2023C10.5904 18.3751 10.9635 18.4658 11.3421 18.467C12.2536 18.467 13.2977 18.0494 14.3649 17.2208C15.1469 16.5989 15.8425 15.8755 16.4332 15.0697C16.6718 14.7383 16.9005 14.4068 17.116 14.0754C17.4984 13.4664 17.8405 12.8331 18.1401 12.1795C18.2031 12.0436 18.2628 11.9077 18.3224 11.7718C18.4185 11.5464 18.5147 11.3177 18.6008 11.0857C18.8971 10.3104 19.1342 9.51373 19.3101 8.70259C19.3101 8.70259 19.3101 8.6827 19.3101 8.67276C19.4245 8.14741 19.5108 7.61634 19.5687 7.08181C19.6051 6.70396 19.6283 6.33274 19.635 5.96814C19.635 5.81236 19.635 5.66321 19.635 5.51075C19.635 5.35828 19.635 5.14947 19.6051 4.97049C19.5753 4.79151 19.572 4.63904 19.5488 4.46006C19.4485 3.50596 19.1062 2.59327 18.5544 1.80848C17.4673 0.389879 15.6112 0.482684 13.6026 2.0438Z" fill="black"/>
</g>
<path d="M15.4587 7.34698L13.4899 12.0569C14.5771 12.5474 15.9161 13.1341 16.8806 14.44C16.9569 14.3306 17.0298 14.2179 17.1027 14.1085C17.4851 13.4996 17.8273 12.8663 18.1269 12.2126C18.1865 12.0767 18.2495 11.9409 18.3059 11.805C18.4053 11.5796 18.5014 11.3509 18.5876 11.1189C18.89 10.3331 19.1316 9.52535 19.3102 8.70261C19.3102 8.70261 19.3102 8.68272 19.3102 8.67278C19.3334 8.55677 19.3599 8.43745 19.3831 8.32144C17.7557 8.57666 15.4587 7.34698 15.4587 7.34698Z" fill="#37474F"/>
<path d="M13.2281 11.8281C13.5595 12.259 14.113 12.2457 14.6997 11.7917C15.18 11.3746 15.5553 10.8503 15.7954 10.2613C16.0355 9.67221 16.1336 9.03493 16.0818 8.40094V8.37111C16.0542 8.10129 15.9571 7.84323 15.8001 7.62204C15.4687 7.18785 14.9118 7.2011 14.3285 7.6585H14.3086C13.829 8.0771 13.4548 8.60286 13.2164 9.19314C12.978 9.78341 12.882 10.4216 12.9364 11.0558V11.079C12.9676 11.3497 13.0681 11.6077 13.2281 11.8281Z" fill="#82DDFF"/>
<path d="M22.7009 18.0925C22.7009 18.0925 22.8567 18.3643 22.8699 18.3875L23.029 18.6726C23.1185 18.835 23.208 19.004 23.2909 19.1664C23.4146 19.4055 23.5252 19.6511 23.6223 19.9022C23.6883 20.0582 23.7426 20.2188 23.7847 20.3828C23.7989 20.4396 23.81 20.4972 23.8179 20.5552C23.8179 20.6182 23.8179 20.6778 23.8344 20.7408C23.836 20.7662 23.836 20.7916 23.8344 20.817C23.8288 20.8585 23.8199 20.8995 23.8079 20.9397C23.788 21.0292 23.7681 21.1153 23.7449 21.2015C23.6985 21.3739 23.6455 21.533 23.5858 21.7153L23.4963 21.9539C23.4851 21.9857 23.4718 22.0167 23.4566 22.0467C23.44 22.0649 23.4256 22.0849 23.4135 22.1064C23.377 22.1693 23.3472 22.2356 23.3107 22.2986C23.2352 22.4263 23.1487 22.5472 23.0522 22.6599C22.9684 22.7651 22.8648 22.853 22.7473 22.9184C22.6877 22.9503 22.622 22.9691 22.5546 22.9737C22.4871 22.9782 22.4195 22.9684 22.3562 22.9449C22.2965 22.9217 22.2335 22.8819 22.1772 22.9085C22.1546 22.9216 22.1354 22.9398 22.1208 22.9615C22.0084 23.1444 21.8431 23.2889 21.6469 23.3758C21.3519 23.4752 21.2359 23.336 20.9608 23.1836C20.7188 23.515 20.1487 23.7205 19.8836 23.4951C19.8239 23.631 19.519 23.7934 19.3963 23.8796C19.2737 23.9658 18.0507 22.7195 17.696 22.2887C17.6227 22.196 17.5573 22.0973 17.5005 21.9937C17.5315 21.8553 17.5806 21.7216 17.6463 21.5959C17.6761 21.5562 17.7292 21.5495 17.7689 21.523C17.7879 21.5128 17.8056 21.5006 17.822 21.4866L17.9181 21.4203L18.17 21.2446L18.5014 21.0225L18.8693 20.764L19.2803 20.4756L19.7178 20.1707L20.1686 19.8393L20.6227 19.5078L21.0602 19.2029L21.4712 18.9112L21.8457 18.6527L22.1772 18.4273L22.4324 18.2483L22.6081 18.1257L22.7009 18.0925Z" fill="#FFBDA7"/>
<path d="M48.7361 24.327L54.5961 26.1467C55.5904 26.4947 59.4021 28.7983 58.073 34.5323C57.6354 36.4249 57.0355 39.0798 56.4953 41.7347C56.081 43.7631 57.599 47.6643 58.8154 53.8822C58.8154 53.8822 53.7906 57.8762 43.8074 56.7493C36.1841 55.8875 35.3622 53.037 35.3622 53.037C35.5743 45.9474 36.2007 43.2063 36.1875 40.5116C36.1875 40.5116 35.0771 39.1527 35.0274 36.7431C34.9777 34.2174 35.6439 32.8585 37.911 29.9915C40.0753 27.2637 41.4011 25.8384 41.4011 25.8384L48.7361 24.327Z" fill="#FAFAFA"/>
<path d="M43.9334 25.0363C43.6616 25.1358 41.2818 25.7556 41.2818 25.7556C39.4688 27.5686 36.2206 31.6885 35.4682 33.1236C34.4176 35.1123 34.4507 37.4789 34.3943 40.7469C34.3479 43.5775 33.5889 51.8604 33.5889 55.9935C33.8939 57.0906 37.1752 58.3601 37.1752 58.3601C37.3078 59.7986 36.4924 43.962 37.2614 36.4282C38.2557 29.7992 43.2274 26.3886 44.3179 25.6263L43.9334 25.0363Z" fill="#82DDFF"/>
<path d="M51.1821 24.4795L51.0695 25.6561C48.4378 32.5005 48.9581 36.3785 48.925 40.9027C48.8554 50.3722 50.0155 60.8426 50.0155 60.8426C50.0155 60.8426 57.2874 61.5055 59.9589 57.8894C59.9589 57.8894 58.3911 52.109 57.4929 46.6202C56.9626 43.3654 59.127 35.4073 58.5668 30.7107C58.3315 28.7419 57.5725 26.7731 56.1108 26.3091C54.8911 25.9279 53.8304 25.6164 53.8304 25.6164L51.1821 24.4795Z" fill="#82DDFF"/>
<path d="M39.6511 15.2122L39.081 15.0001C36.5852 13.4788 36.8968 10.1311 37.616 8.41755C39.2235 4.59265 43.5191 3.36298 46.1375 3.36298C51.1092 3.36298 53.552 5.32846 53.9232 7.92038C54.5861 7.9005 55.3518 8.25183 55.9119 9.30583C56.3992 10.2107 57.1582 12.8192 55.6667 16.0375C54.3409 18.8979 51.5368 20.3464 51.3578 22.1793L39.6511 15.2122Z" fill="#37474F"/>
<path d="M52.7135 20.164C53.6051 20.343 54.321 19.9121 54.8712 19.3255C56.0909 18.0229 56.2235 16.6739 55.6766 15.7757C55.2292 15.0299 54.1022 14.5427 53.3001 15.0299C52.4417 15.5503 52.4085 15.9845 52.0771 16.5811C51.7456 17.1777 50.506 17.1048 50.2475 14.6719C50.0055 12.4048 49.6907 10.3233 48.5903 9.28592C46.9595 7.73143 45.4879 8.59319 44.2814 9.57759C43.6185 8.51033 42.2033 7.77451 41.3183 8.38106C40.2809 9.09368 39.5848 10.1875 39.1307 14.4764C38.6667 18.8515 39.6511 21.5992 40.6455 22.3516C41.3978 22.9217 42.2463 23.1868 43.8903 23.2863L43.6782 25.9942C43.6782 25.9942 40.7217 31.0852 40.6686 34.8372C40.6686 34.8372 42.1635 32.537 46.4325 29.2026C49.2763 26.9753 51.0529 25.6628 51.0529 25.6628L51.6329 19.4647C51.7447 19.6585 51.901 19.823 52.0889 19.9446C52.2767 20.0662 52.4908 20.1414 52.7135 20.164Z" fill="#FFBDA7"/>
<path d="M40.1019 12.4215L41.7889 12.0337C41.7688 11.924 41.7269 11.8195 41.6656 11.7264C41.6043 11.6333 41.5249 11.5535 41.4321 11.4916C41.3394 11.4298 41.2352 11.3873 41.1256 11.3665C41.0161 11.3457 40.9035 11.3472 40.7946 11.3708C40.5662 11.4233 40.3668 11.5617 40.2378 11.7574C40.1088 11.953 40.0601 12.1909 40.1019 12.4215Z" fill="#263238"/>
<path d="M46.0182 12.5241L47.7384 13.187C47.7885 13.0772 47.8156 12.9583 47.8181 12.8376C47.8205 12.7169 47.7982 12.5969 47.7526 12.4852C47.707 12.3734 47.6389 12.2721 47.5527 12.1876C47.4665 12.1031 47.3639 12.0372 47.2512 11.9938C47.017 11.9056 46.7577 11.9116 46.5279 12.0105C46.298 12.1094 46.1153 12.2935 46.0182 12.5241Z" fill="#263238"/>
<path d="M46.4624 18.361L43.6782 19.0968C43.7288 19.2916 43.8196 19.4736 43.9447 19.6313C44.0698 19.7889 44.2265 19.9187 44.4047 20.0123C44.5828 20.106 44.7786 20.1613 44.9794 20.1749C45.1802 20.1884 45.3816 20.1599 45.5708 20.0911C46.3331 19.8458 46.638 19.1432 46.4624 18.361Z" fill="#B16668"/>
<path d="M44.7786 20.1176C44.8396 19.7465 45.0367 19.4115 45.3315 19.178C45.6264 18.9444 45.9976 18.8292 46.3729 18.8548C46.4193 18.8548 46.4657 18.8714 46.5088 18.878C46.5031 19.1516 46.4094 19.416 46.2417 19.6321C46.0739 19.8482 45.841 20.0045 45.5774 20.0779C45.3184 20.1561 45.0441 20.1698 44.7786 20.1176Z" fill="#FFA8A7"/>
<path d="M44.2251 13.4489L43.2473 17.6682L41.0299 16.5082L44.2251 13.4489Z" fill="#F0997A"/>
<path d="M46.3961 15.2619C46.7439 15.2619 47.0258 14.98 47.0258 14.6322C47.0258 14.2844 46.7439 14.0024 46.3961 14.0024C46.0482 14.0024 45.7663 14.2844 45.7663 14.6322C45.7663 14.98 46.0482 15.2619 46.3961 15.2619Z" fill="#263238"/>
<path d="M41.8055 14.3372C41.7987 14.4619 41.7549 14.5817 41.6798 14.6815C41.6047 14.7813 41.5016 14.8564 41.3836 14.8975C41.2657 14.9385 41.1382 14.9435 41.0174 14.9119C40.8966 14.8803 40.7879 14.8135 40.7051 14.72C40.6224 14.6265 40.5693 14.5105 40.5526 14.3867C40.5359 14.263 40.5564 14.1371 40.6115 14.025C40.6666 13.9129 40.7537 13.8197 40.8619 13.7573C40.97 13.6948 41.0943 13.666 41.2189 13.6743C41.3842 13.6854 41.5385 13.7612 41.6483 13.8853C41.7581 14.0094 41.8146 14.1718 41.8055 14.3372Z" fill="#263238"/>
<path d="M43.9069 23.2863C45.6768 23.4918 48.0069 22.7328 48.8189 22.1561C49.2995 21.8246 49.9425 20.9264 50.5856 19.8591C50.5856 19.8591 50.0453 22.4046 48.8455 23.0941C47.0225 24.1447 43.8273 24.2409 43.8273 24.2409L43.9069 23.2863Z" fill="#F0997A"/>
<path d="M60.1943 62.7518C61.52 63.1263 63.1773 61.4956 63.6413 60.9288C64.1053 60.362 63.5087 59.013 63.2303 57.8762C62.9519 56.7393 63.2303 54.8202 61.825 55.3572C60.4196 55.8941 57.4631 59.6925 60.1943 62.7518Z" fill="#F0997A"/>
<path d="M56.3495 26.5444C60.2042 27.3498 60.5854 27.2338 62.405 30.893C64.5263 35.1554 67.5292 42.1158 68.2882 43.7366C69.0472 45.3573 69.7764 46.5472 67.738 49.0397C65.9184 51.2704 60.8505 57.6938 60.055 58.6119C59.3524 59.4273 60.0186 62.3838 62.4415 62.0391C62.4415 62.0391 61.0958 63.4445 59.4087 62.9241C58.5602 62.6622 57.1615 62.0027 55.902 59.3544C55.1065 57.6971 55.7727 56.3714 56.9825 54.5086C58.4243 52.2879 61.5466 46.0898 61.5466 46.0898L55.8589 35.1322C55.8589 35.1322 53.5322 29.4843 56.3495 26.5444Z" fill="#FFBDA7"/>
<path d="M56.1174 26.2693C55.1827 27.204 53.6979 30.6941 55.7628 35.7421L61.3543 46.0865L59.4883 50.0639C60.0428 51.0598 60.7965 51.9308 61.7023 52.6227C62.082 52.9087 62.5172 53.1121 62.9801 53.22C63.4431 53.3279 63.9234 53.3378 64.3904 53.2491C64.3904 53.2491 67.3734 49.9347 68.4274 48.4895C69.4814 47.0444 69.6703 46.6169 68.3213 43.3554C67.0254 40.2133 62.8955 30.6345 62.0238 29.1695C61.1521 27.7045 59.5081 26.9587 56.1174 26.2693Z" fill="#82DDFF"/>
<path opacity="0.2" d="M56.1174 26.2693C55.1827 27.204 53.6979 30.6941 55.7628 35.7421L61.3543 46.0865L59.4883 50.0639C60.0428 51.0598 60.7965 51.9308 61.7023 52.6227C62.082 52.9087 62.5172 53.1121 62.9801 53.22C63.4431 53.3279 63.9234 53.3378 64.3904 53.2491C64.3904 53.2491 67.3734 49.9347 68.4274 48.4895C69.4814 47.0444 69.6703 46.6169 68.3213 43.3554C67.0254 40.2133 62.8955 30.6345 62.0238 29.1695C61.1521 27.7045 59.5081 26.9587 56.1174 26.2693Z" fill="black"/>
<path d="M94.5786 5.11959C92.4441 3.89655 89.4611 4.08547 86.2029 5.97141C79.6303 9.76649 74.304 18.994 74.304 26.5841C74.304 30.3759 75.6297 33.0374 77.7842 34.2804C78.6791 34.8007 80.9528 36.1033 81.851 36.6204C84.0021 37.86 86.9719 37.681 90.2565 35.7851C96.8291 31.9901 102.156 22.7626 102.156 15.1724C102.156 11.3906 100.83 8.72906 98.6886 7.48281C97.7903 6.95913 95.4901 5.63665 94.5786 5.11959Z" fill="#82DDFF"/>
<path opacity="0.15" d="M74.7415 22.64C74.4585 23.9359 74.3118 25.2578 74.304 26.5842C74.304 30.376 75.6297 33.0375 77.7842 34.2805C78.6791 34.8008 80.9528 36.1034 81.851 36.6205C84.0021 37.8601 86.9719 37.6811 90.2565 35.7852C91.3979 35.1157 92.4665 34.3293 93.4451 33.4386L74.7415 22.64Z" fill="black"/>
<path d="M98.6753 26.8924C100.826 23.1669 102.156 18.9642 102.156 15.1724C102.156 7.58227 96.8291 4.50643 90.2565 8.30151C83.6839 12.0966 78.3542 21.3241 78.3542 28.9209C78.3542 36.5177 83.6839 39.5869 90.2565 35.7918C91.9779 34.7673 93.541 33.4978 94.8968 32.0232L99.7592 32.8983C99.8997 32.924 100.045 32.9116 100.179 32.8622C100.313 32.8129 100.431 32.7284 100.522 32.6177C100.612 32.507 100.671 32.3741 100.693 32.2328C100.714 32.0915 100.697 31.947 100.644 31.8144L98.6753 26.8924Z" fill="#82DDFF"/>
<path opacity="0.35" d="M98.6753 26.8924C100.826 23.1669 102.156 18.9642 102.156 15.1724C102.156 7.58227 96.8291 4.50643 90.2565 8.30151C83.6839 12.0966 78.3542 21.3241 78.3542 28.9209C78.3542 36.5177 83.6839 39.5869 90.2565 35.7918C91.9779 34.7673 93.541 33.4978 94.8968 32.0232L99.7592 32.8983C99.8997 32.924 100.045 32.9116 100.179 32.8622C100.313 32.8129 100.431 32.7284 100.522 32.6177C100.612 32.507 100.671 32.3741 100.693 32.2328C100.714 32.0915 100.697 31.947 100.644 31.8144L98.6753 26.8924Z" fill="white"/>
<path d="M89.829 29.6832C89.7697 29.7041 89.7087 29.7197 89.6467 29.7296C89.4159 29.7692 89.1789 29.7506 88.9573 29.6753C88.7356 29.6001 88.5362 29.4706 88.3772 29.2988L83.9226 24.4795C83.6828 24.2046 83.5596 23.847 83.5792 23.4827C83.5988 23.1184 83.7597 22.7761 84.0276 22.5285C84.2955 22.2808 84.6494 22.1474 85.0141 22.1565C85.3788 22.1655 85.7256 22.3164 85.9808 22.577L88.9639 25.8053L94.7311 12.3286C94.8012 12.1562 94.9049 11.9995 95.0363 11.8676C95.1676 11.7357 95.3239 11.6313 95.496 11.5604C95.6681 11.4896 95.8526 11.4537 96.0387 11.4549C96.2248 11.456 96.4089 11.4943 96.5801 11.5673C96.7513 11.6404 96.9062 11.7468 97.0358 11.8804C97.1655 12.0139 97.2672 12.172 97.3351 12.3452C97.403 12.5185 97.4358 12.7036 97.4314 12.8897C97.4271 13.0758 97.3857 13.2591 97.3097 13.429L90.6808 28.8977C90.6028 29.0817 90.4865 29.2469 90.3396 29.3824C90.1927 29.5178 90.0186 29.6204 89.829 29.6832Z" fill="#FAFAFA"/>
</svg>
