<svg width="390" height="416" viewBox="0 0 390 416" fill="none" xmlns="http://www.w3.org/2000/svg">
<line x1="10.0015" y1="398.016" x2="10.0015" y2="98.0156" stroke="white" stroke-width="20" stroke-linecap="round"/>
<path d="M369.001 398.033V106.015" stroke="white" stroke-width="20" stroke-linecap="square"/>
<path d="M179.001 398.032V408.032H199.001V398.032H179.001ZM199.001 10C199.001 4.47714 194.524 0 189.001 0C183.479 0 179.001 4.47714 179.001 10H199.001ZM199.001 398.032L199.001 10H179.001L179.001 398.032H199.001Z" fill="white"/>
<rect x="334.065" y="153.462" width="69.3055" height="23.5194" transform="rotate(-59.85 334.065 153.462)" fill="#4BC4F1"/>
<path d="M184.354 394.993L179.332 403.64L196.626 413.685L201.649 405.038L184.354 394.993ZM377.649 102.038C380.423 97.2627 378.8 91.1425 374.024 88.3685C369.249 85.5946 363.128 87.2172 360.354 91.9929L377.649 102.038ZM201.649 405.038L377.649 102.038L360.354 91.9929L184.354 394.993L201.649 405.038Z" fill="white"/>
<path d="M11.0015 388.016C5.47862 388.016 1.00146 392.493 1.00146 398.016C1.00146 403.538 5.47862 408.016 11.0015 408.016L11.0015 388.016ZM11.0015 408.016L168.001 408.016V388.016L11.0015 388.016L11.0015 408.016Z" fill="white"/>
<line x1="11" y1="249.516" x2="158.003" y2="249.516" stroke="white" stroke-width="20" stroke-linecap="square"/>
<line x1="11.5846" y1="96.6367" x2="187.623" y2="10.4325" stroke="white" stroke-width="20" stroke-linecap="round"/>
<line x1="10" y1="-10" x2="206.012" y2="-10" transform="matrix(-0.8981 -0.439791 -0.439791 0.8981 373.001 110.016)" stroke="white" stroke-width="20" stroke-linecap="round"/>
<rect x="186.001" y="408.016" width="14" height="7" fill="#4BC4F1"/>
<rect x="175.001" y="395.016" width="4" height="10" fill="#4BC4F1"/>
</svg>
