<svg width="220" height="205" viewBox="0 0 220 205" fill="none" xmlns="http://www.w3.org/2000/svg">
<path d="M32.2171 188.962C75.1763 209.435 144.824 209.441 187.783 188.962C230.742 168.483 230.736 135.292 187.783 114.82C144.83 94.3469 75.1763 94.3469 32.2171 114.82C-10.7421 135.292 -10.7359 168.489 32.2171 188.962Z" fill="#F5F5F5"/>
<path d="M187.633 173.832C195.545 173.832 201.959 170.776 201.959 167.006C201.959 163.235 195.545 160.179 187.633 160.179C179.721 160.179 173.307 163.235 173.307 167.006C173.307 170.776 179.721 173.832 187.633 173.832Z" fill="#EBEBEB"/>
<path d="M89.976 169.518L148.577 135.679C148.706 135.634 148.818 135.549 148.897 135.438C148.976 135.326 149.018 135.193 149.018 135.056C149.018 134.919 148.976 134.785 148.897 134.674C148.818 134.562 148.706 134.478 148.577 134.432L143.159 131.315C142.824 131.146 142.453 131.058 142.078 131.058C141.702 131.058 141.331 131.146 140.996 131.315L82.3766 165.123C82.2475 165.168 82.1357 165.253 82.0566 165.364C81.9775 165.476 81.935 165.609 81.935 165.746C81.935 165.883 81.9775 166.017 82.0566 166.128C82.1357 166.24 82.2475 166.324 82.3766 166.37L87.8128 169.487C88.1459 169.66 88.5151 169.754 88.8907 169.759C89.2663 169.764 89.638 169.682 89.976 169.518Z" fill="#E0E0E0"/>
<path d="M146.968 5.03105L94.128 35.5408C93.3425 36.0534 92.6888 36.7438 92.2198 37.5561C91.7508 38.3684 91.4798 39.2798 91.4286 40.2163V165.565C91.4286 167.286 92.638 167.984 94.128 167.124L146.968 136.614C147.755 136.103 148.409 135.413 148.878 134.6C149.347 133.788 149.618 132.876 149.668 131.939V6.58957C149.668 4.86896 148.464 4.17074 146.968 5.03105Z" fill="#455A64"/>
<path d="M94.1278 35.5407L146.968 5.03096C148.302 4.25793 149.406 4.73796 149.63 6.07829C149.505 5.23559 149.204 4.42884 148.745 3.71108C148.286 2.99332 147.681 2.38084 146.968 1.91391L144.774 0.667088C143.937 0.24267 143.012 0.0214844 142.074 0.0214844C141.136 0.0214844 140.211 0.24267 139.375 0.667088L86.5284 31.1519C85.7325 31.651 85.0762 32.3438 84.6208 33.1655L92.2202 37.5294C92.6754 36.7141 93.3322 36.0294 94.1278 35.5407Z" fill="#37474F"/>
<path d="M83.8166 161.177C83.8678 162.113 84.1388 163.025 84.6078 163.837C85.0768 164.649 85.7305 165.34 86.516 165.852L88.7166 167.099C89.4783 167.48 90.3118 167.696 91.1627 167.732C92.0135 167.769 92.8625 167.625 93.654 167.311C92.4072 167.797 91.416 167.08 91.416 165.54V40.2163C91.4472 39.2757 91.7198 38.359 92.2077 37.5543L84.6083 33.1904C84.1273 33.9891 83.855 34.8959 83.8166 35.8275V161.177Z" fill="#263238"/>
<path d="M95.5804 52.2419L145.534 23.4092C146.432 22.898 147.155 23.3157 147.155 24.3443V117.12C147.125 117.683 146.963 118.23 146.681 118.717C146.399 119.205 146.006 119.619 145.534 119.926L95.5991 148.758C94.7014 149.276 93.9782 148.858 93.9782 147.823V55.0473C94.0066 54.4868 94.1664 53.9408 94.4447 53.4535C94.723 52.9662 95.112 52.5511 95.5804 52.2419Z" fill="white"/>
<path d="M120.548 25.0362C120.272 25.2172 120.043 25.4605 119.878 25.7463C119.714 26.0322 119.619 26.3527 119.6 26.682C119.6 27.3054 120.024 27.5361 120.548 27.2306C120.825 27.0507 121.055 26.8078 121.22 26.5217C121.384 26.2356 121.479 25.9145 121.496 25.5848C121.496 24.9801 121.072 24.737 120.548 25.0362Z" fill="#37474F"/>
<path d="M120.548 138.778C119.458 139.49 118.552 140.45 117.902 141.579C117.252 142.707 116.877 143.973 116.808 145.273C116.808 147.661 118.484 148.634 120.548 147.437C121.637 146.723 122.544 145.764 123.194 144.635C123.843 143.507 124.218 142.241 124.288 140.941C124.301 138.553 122.618 137.581 120.548 138.778Z" fill="#37474F"/>
<path d="M111.577 34.6866C111.029 35.0503 110.575 35.5377 110.25 36.1095C109.925 36.6813 109.739 37.3214 109.707 37.9783C109.707 39.1877 110.555 39.6802 111.577 39.0755C112.131 38.7152 112.592 38.2293 112.922 37.6573C113.252 37.0854 113.443 36.4434 113.479 35.7838C113.479 34.5744 112.631 34.0819 111.577 34.6866Z" fill="#37474F"/>
<path d="M116.234 34.2751C116.234 35.0855 116.857 35.391 117.587 34.9608L130.055 27.748C130.441 27.5068 130.765 27.1778 131 26.7878C131.235 26.3978 131.375 25.9579 131.408 25.5037C131.408 24.6995 130.784 24.394 130.055 24.8242L117.587 32.037C117.201 32.2776 116.878 32.6056 116.643 32.9945C116.408 33.3833 116.268 33.822 116.234 34.2751Z" fill="#37474F"/>
<path d="M88.0309 56.2566C88.4733 56.5448 88.8416 56.9331 89.1059 57.3902C89.3702 57.8473 89.523 58.3602 89.5521 58.8874C89.5521 59.8599 88.8725 60.2527 88.0309 59.7664C87.59 59.4772 87.2232 59.0884 86.9601 58.6315C86.697 58.1745 86.5449 57.6621 86.5161 57.1356C86.5161 56.1693 87.1956 55.7766 88.0309 56.2566Z" fill="#37474F"/>
<path d="M88.0309 67.9643C88.4733 68.2525 88.8416 68.6408 89.1059 69.0979C89.3702 69.555 89.523 70.0679 89.5521 70.5951C89.5521 71.5614 88.8725 71.9541 88.0309 71.4741C87.59 71.1849 87.2232 70.7961 86.9601 70.3392C86.697 69.8822 86.5449 69.3698 86.5161 68.8433C86.5161 67.8708 87.1956 67.478 88.0309 67.9643Z" fill="#37474F"/>
<path d="M87.5572 56.4935C87.9996 56.7816 88.3679 57.17 88.6322 57.6271C88.8964 58.0841 89.0493 58.5971 89.0783 59.1243C89.0783 60.0905 88.3988 60.4833 87.5572 60.0033C87.1148 59.7151 86.7465 59.3267 86.4822 58.8697C86.218 58.4126 86.0651 57.8997 86.0361 57.3725C86.0423 56.3999 86.7218 56.0259 87.5572 56.4935Z" fill="#455A64"/>
<path d="M87.5572 68.1948C88.0004 68.4836 88.3692 68.873 88.6335 69.3312C88.8978 69.7894 89.0502 70.3036 89.0783 70.8319C89.0783 71.7981 88.3988 72.1909 87.5572 71.7046C87.1137 71.4176 86.7447 71.0295 86.4803 70.5722C86.2159 70.1148 86.0636 69.6014 86.0361 69.0738C86.0423 68.1075 86.7218 67.7148 87.5572 68.1948Z" fill="#455A64"/>
<path d="M157.267 27.2805C157.267 26.2457 156.544 25.828 155.646 26.3454L149.668 29.7929L105.711 55.1781C105.239 55.4849 104.846 55.899 104.564 56.3865C104.282 56.874 104.12 57.4212 104.09 57.9835V150.735C104.09 151.769 104.813 152.187 105.711 151.67L149.686 126.278L155.646 122.837C156.118 122.53 156.511 122.116 156.793 121.629C157.074 121.141 157.237 120.594 157.267 120.032V27.2805Z" fill="white"/>
<path d="M157.89 27.2806C157.93 26.9679 157.876 26.6507 157.736 26.3685C157.596 26.0863 157.375 25.8516 157.103 25.694C156.83 25.5363 156.516 25.4625 156.202 25.4819C155.888 25.5013 155.586 25.613 155.334 25.8031L149.63 29.1009L105.399 54.6607C104.83 55.0202 104.356 55.5128 104.02 56.096C103.683 56.6792 103.493 57.3356 103.467 58.0085V150.735C103.442 151.046 103.501 151.358 103.64 151.638C103.778 151.918 103.99 152.155 104.252 152.324C104.475 152.454 104.73 152.521 104.988 152.517C105.353 152.506 105.71 152.401 106.023 152.212L150.285 126.652L155.977 123.367C156.543 123.004 157.014 122.51 157.35 121.928C157.686 121.346 157.878 120.691 157.909 120.019L157.89 27.2806ZM149.643 125.586L149.131 125.885L105.424 151.121C105.351 151.177 105.266 151.217 105.175 151.236C105.084 151.256 104.991 151.255 104.9 151.233C104.819 151.183 104.738 151.009 104.738 150.722V57.9835C104.771 57.5309 104.905 57.0915 105.132 56.6984C105.359 56.3053 105.672 55.9688 106.048 55.7143L149.711 30.4662L155.945 26.8566C156.019 26.8002 156.104 26.7608 156.195 26.7414C156.285 26.722 156.379 26.723 156.469 26.7444C156.55 26.7943 156.631 26.9689 156.631 27.2556V120.032C156.599 120.484 156.464 120.924 156.237 121.317C156.011 121.71 155.698 122.046 155.322 122.301L149.63 125.586H149.643Z" fill="#82DDFF"/>
<path d="M130.678 48.8318C136.289 45.6026 140.809 48.2084 140.809 54.6856C140.809 61.1629 136.27 69.0241 130.678 72.2284C125.086 75.4328 120.548 72.8518 120.548 66.3808C120.548 59.9098 125.086 52.0673 130.678 48.8318Z" fill="#82DDFF"/>
<path d="M130.678 53.9188C132.492 52.8715 133.964 53.7193 133.964 55.789C133.902 56.9292 133.572 58.0388 133.002 59.0278C132.431 60.0167 131.635 60.8571 130.678 61.4808C128.864 62.5281 127.393 61.6803 127.393 59.6106C127.455 58.4704 127.784 57.3608 128.355 56.3718C128.926 55.3829 129.722 54.5425 130.678 53.9188Z" fill="#82DDFF"/>
<path d="M137.081 65.0903C137.081 61.6491 134.668 60.2526 131.682 61.9732L129.812 63.0517C126.832 64.7723 124.413 68.9617 124.413 72.4029V73.3318C126.14 73.8991 128.31 73.5936 130.647 72.2283C133.237 70.6309 135.427 68.4622 137.05 65.8883L137.081 65.0903Z" fill="#82DDFF"/>
<path opacity="0.7" d="M130.678 53.9188C132.492 52.8715 133.964 53.7193 133.964 55.789C133.902 56.9292 133.572 58.0388 133.002 59.0278C132.431 60.0167 131.635 60.8571 130.678 61.4808C128.864 62.5281 127.393 61.6803 127.393 59.6106C127.455 58.4704 127.784 57.3608 128.355 56.3718C128.926 55.3829 129.722 54.5425 130.678 53.9188Z" fill="white"/>
<path opacity="0.7" d="M137.081 65.0903C137.081 61.6491 134.668 60.2526 131.682 61.9732L129.812 63.0517C126.832 64.7723 124.413 68.9617 124.413 72.4029V73.3318C126.14 73.8991 128.31 73.5936 130.647 72.2283C133.237 70.6309 135.427 68.4622 137.05 65.8883L137.081 65.0903Z" fill="white"/>
<path d="M111.078 86.4733L124.114 78.9487C124.737 78.6059 125.192 78.8802 125.192 79.5721V80.0023C125.173 80.3769 125.065 80.7416 124.877 81.0666C124.69 81.3916 124.428 81.6678 124.114 81.8725L111.078 89.3971C110.486 89.74 110 89.4594 110 88.7737V88.3435C110.02 87.969 110.128 87.6045 110.316 87.2795C110.503 86.9546 110.764 86.6784 111.078 86.4733Z" fill="#82DDFF"/>
<path opacity="0.1" d="M111.078 86.4733L124.114 78.9487C124.737 78.6059 125.192 78.8802 125.192 79.5721V80.0023C125.173 80.3769 125.065 80.7416 124.877 81.0666C124.69 81.3916 124.428 81.6678 124.114 81.8725L111.078 89.3971C110.486 89.74 110 89.4594 110 88.7737V88.3435C110.02 87.969 110.128 87.6045 110.316 87.2795C110.503 86.9546 110.764 86.6784 111.078 86.4733Z" fill="#82DDFF"/>
<path d="M110.542 95.5565L149.979 72.7895C150.272 72.615 150.515 72.7521 150.515 73.1012V77.702C150.504 77.8887 150.45 78.0703 150.357 78.2326C150.264 78.3949 150.135 78.5333 149.979 78.6371L110.542 101.404C110.243 101.579 110 101.435 110 101.092V96.4916C110.011 96.3041 110.065 96.1218 110.16 95.9593C110.254 95.7969 110.385 95.6589 110.542 95.5565Z" fill="#82DDFF"/>
<path opacity="0.2" d="M110.542 95.5565L149.979 72.7895C150.272 72.615 150.515 72.7521 150.515 73.1012V77.702C150.504 77.8887 150.45 78.0703 150.357 78.2326C150.264 78.3949 150.135 78.5333 149.979 78.6371L110.542 101.404C110.243 101.579 110 101.435 110 101.092V96.4916C110.011 96.3041 110.065 96.1218 110.16 95.9593C110.254 95.7969 110.385 95.6589 110.542 95.5565Z" fill="white"/>
<path d="M111.078 106.94L124.114 99.4154C124.737 99.0725 125.192 99.353 125.192 100.039V100.469C125.173 100.844 125.065 101.209 124.878 101.534C124.691 101.859 124.429 102.135 124.114 102.339L111.078 109.864C110.486 110.213 110 109.932 110 109.24V108.81C110.021 108.436 110.13 108.072 110.317 107.747C110.504 107.422 110.765 107.146 111.078 106.94Z" fill="#82DDFF"/>
<path opacity="0.1" d="M111.078 106.94L124.114 99.4154C124.737 99.0725 125.192 99.353 125.192 100.039V100.469C125.173 100.844 125.065 101.209 124.878 101.534C124.691 101.859 124.429 102.135 124.114 102.339L111.078 109.864C110.486 110.213 110 109.932 110 109.24V108.81C110.021 108.436 110.13 108.072 110.317 107.747C110.504 107.422 110.765 107.146 111.078 106.94Z" fill="#82DDFF"/>
<path d="M110.542 116.023L149.979 93.2561C150.272 93.0815 150.515 93.2249 150.515 93.5678V98.1685C150.504 98.3552 150.45 98.5369 150.357 98.6991C150.264 98.8614 150.135 98.9998 149.979 99.1036L110.542 121.871C110.243 122.045 110 121.908 110 121.559V116.958C110.011 116.771 110.065 116.588 110.16 116.426C110.254 116.263 110.385 116.125 110.542 116.023Z" fill="#82DDFF"/>
<path opacity="0.2" d="M110.542 116.023L149.979 93.2561C150.272 93.0815 150.515 93.2249 150.515 93.5678V98.1685C150.504 98.3552 150.45 98.5369 150.357 98.6991C150.264 98.8614 150.135 98.9998 149.979 99.1036L110.542 121.871C110.243 122.045 110 121.908 110 121.559V116.958C110.011 116.771 110.065 116.588 110.16 116.426C110.254 116.263 110.385 116.125 110.542 116.023Z" fill="white"/>
<path d="M126.271 118.635L141.856 109.652C142.48 109.303 142.941 109.583 142.941 110.275V115.088C142.921 115.463 142.812 115.828 142.623 116.153C142.435 116.478 142.172 116.754 141.856 116.958L126.271 125.948C125.648 126.291 125.193 126.01 125.193 125.324V120.505C125.214 120.131 125.323 119.767 125.51 119.443C125.698 119.118 125.958 118.841 126.271 118.635Z" fill="#82DDFF"/>
<path opacity="0.1" d="M126.271 118.635L141.856 109.652C142.48 109.303 142.941 109.583 142.941 110.275V115.088C142.921 115.463 142.812 115.828 142.623 116.153C142.435 116.478 142.172 116.754 141.856 116.958L126.271 125.948C125.648 126.291 125.193 126.01 125.193 125.324V120.505C125.214 120.131 125.323 119.767 125.51 119.443C125.698 119.118 125.958 118.841 126.271 118.635Z" fill="#82DDFF"/>
<path d="M163.177 98.3243C163.177 98.3243 155.521 87.7637 155.073 86.4795C154.717 85.5319 155.073 84.123 155.185 83.4684C155.297 82.8138 155.397 81.3551 155.509 80.9748C155.696 80.2641 154.78 80.4075 154.262 81.0558C153.745 81.7042 153.57 83.0009 153.302 83.2128C153.034 83.4248 150.996 80.4511 149.929 79.0796C148.863 77.7081 148.196 76.8727 147.542 77.3839C147.074 77.7517 147.423 78.5497 148.196 79.7217C148.648 80.3528 149.064 81.0084 149.443 81.6855C149.562 81.9411 148.926 81.9598 148.583 82.4897C148.315 82.9011 148.583 83.5682 148.209 83.8861C147.979 84.0613 147.821 84.315 147.766 84.599C147.711 84.8829 147.762 85.1773 147.91 85.4259C148.604 86.5157 149.499 87.4635 150.547 88.2188C151.694 89.0105 152.155 89.2911 152.835 90.3696C153.514 91.4481 159.611 102.464 160.023 103.125C160.434 103.785 161.226 105.132 162.429 105.169C163.632 105.207 173.482 96.7284 173.987 96.3044C175.608 94.9516 176.125 94.7584 176.4 95.974C176.494 96.4062 176.565 96.8432 176.611 97.2832C176.805 98.8293 177.858 104.353 177.858 104.353C177.858 104.353 182.846 106.765 186.941 105.599C191.037 104.434 192.421 102.694 192.421 102.694L190.37 99.3529C190.925 97.9752 193.487 92.3894 194.316 88.4806L181.474 86.4047C181.212 86.3486 180.788 86.2426 180.227 86.0992C179.523 85.9122 177.734 85.295 176.381 86.4795C171.967 90.3259 163.189 98.3243 163.189 98.3243" fill="#FFA8A7"/>
<path d="M188.637 163.122L186.337 166.32C187.382 166.808 188.524 167.053 189.678 167.037C191.742 167.111 192.309 166.413 192.384 166.276C192.733 165.528 192.19 164.181 192.041 163.022L188.637 163.122Z" fill="#37474F"/>
<path d="M186.467 164.786C186.467 164.786 183.675 164.605 181.748 164.368C179.822 164.131 178.295 165.067 178.743 165.858C179.192 166.65 180.258 167.311 181.917 167.866C183.332 168.346 185.034 168.689 186.505 169.112C187.976 169.536 188.999 170.091 189.853 169.792C190.806 169.462 191.218 169.081 191.137 168.383C190.929 167.39 190.671 166.408 190.364 165.441L186.467 164.786Z" fill="#37474F"/>
<path d="M192.384 159.911C192.384 159.911 192.035 162.816 192.01 163.439C191.985 164.063 189.173 164.262 188.637 163.122L188.55 159.568L192.384 159.911Z" fill="#F28F8F"/>
<path d="M189.553 161.694L190.557 166.108C190.557 166.108 190.651 166.644 188.356 166.987C186.062 167.33 182.459 165.784 181.842 165.472C181.225 165.16 181.156 164.53 183.413 164.655C185.669 164.78 186.467 164.786 186.467 164.786L185.732 162.835L189.553 161.694Z" fill="#FFA8A7"/>
<path d="M194.279 88.4431L195.869 88.0005C195.869 88.0005 199.191 98.5174 199.559 99.5336C199.927 100.55 200.345 101.622 199.628 102.875C198.774 104.365 194.279 110.356 194.279 110.356L191.424 107.563L194.666 101.628L191.798 95.8305L194.279 88.4431Z" fill="#F28F8F"/>
<path d="M177.952 74.7843C177.579 74.0847 177.39 73.302 177.402 72.5094C177.414 71.7168 177.627 70.9402 178.02 70.2521C179.604 67.3159 183.132 65.8882 187.334 66.4306C189.279 66.6862 191.573 68.3008 192.826 70.7134C194.21 73.3879 194.341 78.7741 194.697 80.8127L177.952 74.7843Z" fill="#37474F"/>
<path d="M177.839 75.9376C177.839 75.9376 176.842 77.839 177.017 78.0136C177.275 78.1646 177.558 78.27 177.852 78.3253L177.839 75.9376Z" fill="#FFA8A7"/>
<path d="M180.869 69.9279C179.785 70.6323 177.914 71.929 177.833 76.1994C177.746 80.5632 178.369 82.0033 179.018 82.5083C179.454 82.8511 182.016 82.6766 183.114 82.421C184.211 82.1654 187.372 80.6006 188.512 78.2254C189.853 75.4326 189.578 71.3679 187.59 70.1211C186.578 69.5226 185.43 69.1908 184.254 69.157C183.079 69.1232 181.914 69.3885 180.869 69.9279Z" fill="#FFA8A7"/>
<path d="M192.384 102.669C194.304 105.662 196.124 108.28 196.523 111.659C197.346 118.76 194.653 126.876 194.073 132.132C195.163 133.627 195.792 135.408 195.881 137.256C195.881 139.432 192.384 159.911 192.384 159.911C192.384 159.911 189.84 160.684 188.55 159.568L186.15 121.895L187.396 117.307L192.384 102.669Z" fill="#82DDFF"/>
<path opacity="0.2" d="M192.384 102.669C194.304 105.662 196.124 108.28 196.523 111.659C197.346 118.76 194.653 126.876 194.073 132.132C195.163 133.627 195.792 135.408 195.881 137.256C195.881 139.432 192.384 159.911 192.384 159.911C192.384 159.911 189.84 160.684 188.55 159.568L186.15 121.895L187.396 117.307L192.384 102.669Z" fill="#82DDFF"/>
<path d="M186.15 121.895L187.396 117.307C189.784 116.679 192.086 115.764 194.254 114.583C194.254 114.583 192.957 116.945 189.229 118.242L187.303 124.133L187.141 137.63L186.15 121.895Z" fill="#82DDFF"/>
<path opacity="0.3" d="M186.15 121.895L187.396 117.307C189.784 116.679 192.086 115.764 194.254 114.583C194.254 114.583 192.957 116.945 189.229 118.242L187.303 124.133L187.141 137.63L186.15 121.895Z" fill="black"/>
<path d="M192.384 102.669C193.412 104.353 195.868 107.22 195.345 109.982C194.721 113.324 192.913 115.674 187.415 117.307L182.253 136.009C182.253 136.009 184.94 138.503 185.763 140.916C186.586 143.328 189.553 161.706 189.553 161.706C189.553 161.706 188.631 163.209 185.732 162.847C185.732 162.847 175.626 139.781 174.916 138.279C174.053 136.757 173.751 134.981 174.062 133.26C174.379 130.841 177.802 104.365 177.802 104.365L192.384 102.669Z" fill="#82DDFF"/>
<path opacity="0.2" d="M192.384 102.669C193.412 104.353 195.868 107.22 195.345 109.982C194.721 113.324 192.913 115.674 187.415 117.307L182.253 136.009C182.253 136.009 184.94 138.503 185.763 140.916C186.586 143.328 189.553 161.706 189.553 161.706C189.553 161.706 188.631 163.209 185.732 162.847C185.732 162.847 175.626 139.781 174.916 138.279C174.053 136.757 173.751 134.981 174.062 133.26C174.379 130.841 177.802 104.365 177.802 104.365L192.384 102.669Z" fill="#82DDFF"/>
<path d="M194.279 88.4432L181.437 86.3672C181.175 86.3111 180.751 86.2052 180.19 86.0618C180.19 86.0618 179.641 94.1162 176.343 95.9615C176.424 96.348 176.493 96.7782 176.555 97.2707C176.749 98.8168 177.802 104.34 177.802 104.34C177.802 104.34 182.789 106.753 186.885 105.587C190.981 104.421 192.365 102.682 192.365 102.682L190.314 99.3404C190.888 97.9502 193.468 92.3645 194.279 88.4432Z" fill="#82DDFF"/>
<path opacity="0.7" d="M194.279 88.4432L181.437 86.3672C181.175 86.3111 180.751 86.2052 180.19 86.0618C180.19 86.0618 179.641 94.1162 176.343 95.9615C176.424 96.348 176.493 96.7782 176.555 97.2707C176.749 98.8168 177.802 104.34 177.802 104.34C177.802 104.34 182.789 106.753 186.885 105.587C190.981 104.421 192.365 102.682 192.365 102.682L190.314 99.3404C190.888 97.9502 193.468 92.3645 194.279 88.4432Z" fill="white"/>
<path d="M190.894 98.0126C189.188 99.0367 187.401 99.9187 185.551 100.65C187.231 100.616 188.875 100.162 190.333 99.328L190.894 98.0126Z" fill="#82DDFF"/>
<path d="M180.552 70.1398C180.552 70.1398 179.928 74.1919 181.399 76.5734C181.399 76.5734 181.948 74.9587 183.313 75.2642C184.679 75.5697 184.753 77.3713 183.793 78.3813C183.549 78.6645 183.23 78.8733 182.873 78.9836C182.516 79.0938 182.135 79.1011 181.773 79.0047C181.773 79.0047 181.555 81.9347 181.437 84.3909C181.318 86.8472 180.67 92.2023 183.432 94.3655C186.193 96.5287 193.126 97.2893 196.374 92.7509C198.182 90.2261 195.781 85.7624 194.666 80.7564C193.637 76.1557 193.057 69.3356 188.176 68.2384C183.295 67.1412 180.552 70.1398 180.552 70.1398Z" fill="#37474F"/>
</svg>
