<svg width="139" height="138" viewBox="0 0 139 138" fill="none" xmlns="http://www.w3.org/2000/svg">
<path d="M119.405 117.216H131.057V113.507H119.405V117.216Z" fill="#EBEBEB"/>
<path d="M87.0445 18.0465H98.6963V14.3382L87.0445 14.3382V18.0465Z" fill="#EBEBEB"/>
<path d="M125.903 121.912C127.839 121.878 132.8 121.796 134.669 121.772H137.555L137.403 121.925V118.217L137.568 118.382L131.742 118.359C130.291 118.359 127.368 118.313 125.917 118.293L125.996 118.217L125.903 121.912ZM125.903 121.912L125.827 118.203V118.124H125.907C127.361 118.104 130.281 118.071 131.733 118.061L137.558 118.038H137.724V118.203V121.912V122.061H137.575H134.636C132.78 122.041 127.842 121.958 125.923 121.925L125.903 121.912Z" fill="#EBEBEB"/>
<path d="M0.464704 121.892H12.1165V118.183H0.464704V121.892Z" fill="#EBEBEB"/>
<path d="M0.464544 12.0583C2.39988 12.0252 7.36082 11.9423 9.22987 11.9191H12.1163L11.9639 12.0716V8.36328L12.1296 8.52897C10.1942 8.52897 5.25979 8.50246 3.39074 8.47595L0.4778 8.4395L0.557334 8.36328L0.4778 12.0716L0.464544 12.0583ZM0.464544 12.0583L0.38501 8.35002V8.27049H0.464544C1.91936 8.25061 4.83561 8.21746 6.29042 8.20421L12.1163 8.18433H12.282V8.35334V12.0616V12.2207H12.1329H9.19342C7.33762 12.2008 2.39656 12.1146 0.481114 12.0848L0.464544 12.0583Z" fill="#EBEBEB"/>
<path d="M119.405 7.38234C121.34 7.34921 126.301 7.26636 128.17 7.24316H131.056L130.904 7.3956V3.68732L131.07 3.85302L125.244 3.82982C123.792 3.82982 120.869 3.78342 119.418 3.76354L119.498 3.68732L119.418 7.3956L119.405 7.38234ZM119.405 7.38234L119.325 3.67406V3.60447H119.405C120.86 3.58459 123.779 3.55145 125.231 3.53819L131.056 3.51831H131.222V3.68732L131.206 7.3956V7.54473H131.056H128.117C126.261 7.52484 121.323 7.43868 119.405 7.40886V7.38234Z" fill="#EBEBEB"/>
<path d="M102.914 112.994C102.914 112.994 104.008 128.161 104.008 128.175C104.025 131.157 103.985 133.749 103.839 135.094C103.841 135.102 103.841 135.11 103.839 135.117C103.838 135.436 103.764 135.75 103.624 136.035L103.607 136.055C102.726 136.658 78.9879 137.47 78.1528 137.218C77.3177 136.967 77.9606 134.567 78.8586 133.795C79.7567 133.023 88.7076 128.655 88.7076 128.655L87.7598 113.491L102.914 112.994Z" fill="#EB9481"/>
<path d="M104.011 124.984C104.011 124.984 104.011 128.162 104.011 128.175C104.028 131.157 103.988 133.749 103.842 135.094C103.844 135.102 103.844 135.11 103.842 135.118C103.808 135.431 103.736 135.739 103.627 136.035L103.61 136.055C102.729 136.658 78.9913 137.47 78.1562 137.219C77.3211 136.967 77.964 134.567 78.8621 133.795C79.7601 133.023 88.711 128.655 88.711 128.655L88.6646 125.418L104.011 124.984Z" fill="white"/>
<path d="M78.1495 137.222C78.9879 137.47 102.722 136.659 103.604 136.055C103.935 135.83 104.028 132.364 104.008 128.175C104.008 128.132 104.008 128.085 104.008 128.042L88.6911 128.397V128.655C88.6911 128.655 79.7435 133.03 78.8454 133.799C77.9473 134.567 77.2945 136.973 78.1495 137.222Z" fill="#82DDFF"/>
<path d="M78.3848 136.29C82.3814 136.055 98.5301 135.485 102.497 135.555C102.53 135.555 102.53 135.578 102.497 135.581C98.5401 135.913 82.388 136.34 78.3848 136.357C78.2887 136.357 78.2887 136.297 78.3848 136.29Z" fill="#263238"/>
<path d="M87.4184 128.745C88.9826 128.397 90.9146 128.572 92.1574 129.653C92.2038 129.696 92.1574 129.765 92.0944 129.749C90.5729 129.317 89.01 129.047 87.4317 128.944C87.4053 128.945 87.3794 128.937 87.3595 128.919C87.3396 128.902 87.3274 128.877 87.3257 128.851C87.3239 128.824 87.3327 128.798 87.3501 128.779C87.3675 128.759 87.3921 128.747 87.4184 128.745Z" fill="#263238"/>
<path d="M86.3052 129.47C87.8693 129.123 89.8014 129.298 91.0441 130.378C91.0938 130.418 91.0441 130.488 90.9811 130.475C89.4603 130.039 87.8971 129.769 86.3184 129.669C86.2921 129.671 86.2661 129.662 86.2462 129.645C86.2263 129.627 86.2141 129.603 86.2124 129.577C86.2106 129.55 86.2194 129.524 86.2368 129.504C86.2542 129.484 86.2788 129.472 86.3052 129.47Z" fill="#263238"/>
<path d="M85.1916 130.196C86.7558 129.848 88.6912 130.024 89.9306 131.104C89.9803 131.148 89.9306 131.214 89.8676 131.201C88.3468 130.765 86.7835 130.495 85.2049 130.395C85.1785 130.397 85.1525 130.388 85.1327 130.371C85.1128 130.353 85.1006 130.329 85.0989 130.302C85.0971 130.276 85.1059 130.25 85.1233 130.23C85.1407 130.21 85.1653 130.198 85.1916 130.196Z" fill="#263238"/>
<path d="M104.923 128.828L88.3066 128.496C88.3066 128.496 86.2818 98.5982 86.6497 88.6299C87.0606 77.8033 91.71 45.5853 91.71 45.5853H105.744C105.744 45.5853 102.165 77.9292 102.089 88.7724C102.02 98.8036 104.923 128.828 104.923 128.828Z" fill="#37474F"/>
<path d="M91.7197 45.5853L102.414 81.3757C103.408 67.5732 105.754 45.5853 105.754 45.5853H91.7197Z" fill="#263238"/>
<path d="M103.09 47.1725L102.199 56.7829L101.374 66.3932C100.843 72.8123 100.343 79.2281 99.9619 85.6604C99.8691 87.2676 99.8095 88.8815 99.8327 90.4987C99.8559 92.1159 99.9321 93.7199 100.015 95.3304C100.181 98.5449 100.387 101.758 100.635 104.971C100.882 108.183 101.142 111.4 101.413 114.621L102.311 124.231L101.592 114.621C101.354 111.408 101.133 108.197 100.93 104.987C100.724 101.776 100.509 98.5648 100.36 95.3503C100.283 93.743 100.224 92.1358 100.197 90.5285C100.171 88.9213 100.24 87.324 100.34 85.7167C100.691 79.291 101.198 72.872 101.665 66.4529L103.09 47.1725Z" fill="#263238"/>
<path d="M89.0025 125.726C91.5973 125.702 90.8517 125.673 93.4465 125.679C94.7157 125.679 103.057 125.709 104.24 125.921C104.247 125.921 104.254 125.924 104.259 125.929C104.264 125.934 104.266 125.941 104.266 125.948C104.266 125.955 104.264 125.961 104.259 125.966C104.254 125.971 104.247 125.974 104.24 125.974C103.054 126.156 94.7124 125.974 93.4432 125.954C90.8484 125.898 91.594 125.885 89.0025 125.802C88.9943 125.799 88.9871 125.794 88.982 125.787C88.9769 125.781 88.9741 125.772 88.9741 125.764C88.9741 125.755 88.9769 125.747 88.982 125.74C88.9871 125.733 88.9943 125.728 89.0025 125.726Z" fill="#263238"/>
<path d="M127.424 104.858L135.444 117.895C136.746 120.566 137.84 122.929 138.29 124.192C138.292 124.198 138.292 124.205 138.29 124.211C138.427 124.499 138.497 124.814 138.496 125.133C138.496 125.133 138.496 125.153 138.496 125.159C137.962 126.084 116.926 137.109 116.061 137.248C115.196 137.388 114.735 134.929 115.216 133.855C115.696 132.781 121.86 124.95 121.86 124.95L113.979 111.88L127.424 104.858Z" fill="#EB9481"/>
<path d="M138.5 125.149C138.501 125.157 138.501 125.165 138.5 125.172C137.966 126.097 116.929 137.122 116.064 137.262C115.199 137.401 114.739 134.942 115.216 133.868C115.693 132.794 121.864 124.964 121.864 124.964L120.455 122.644C123.895 120.811 130.145 117.593 134.026 115.598L135.447 117.918C136.75 120.589 137.843 122.952 138.294 124.215C138.296 124.222 138.296 124.23 138.294 124.238C138.434 124.521 138.504 124.833 138.5 125.149Z" fill="white"/>
<path d="M116.068 137.261C116.932 137.122 137.969 126.1 138.503 125.169C138.712 124.821 137.283 121.663 135.447 117.895C135.427 117.855 135.411 117.815 135.391 117.779L121.741 124.738L121.867 124.967C121.867 124.967 115.703 132.788 115.222 133.871C114.742 134.955 115.199 137.401 116.068 137.261Z" fill="#82DDFF"/>
<path d="M115.872 136.32C119.375 134.375 133.674 126.859 137.283 125.202C137.313 125.202 137.323 125.202 137.283 125.222C133.856 127.227 119.494 134.627 115.892 136.377C115.829 136.416 115.799 136.36 115.872 136.32Z" fill="#263238"/>
<path d="M120.74 125.603C121.999 124.609 123.819 123.946 125.406 124.367C125.466 124.367 125.442 124.473 125.389 124.483C123.83 124.75 122.305 125.185 120.839 125.779C120.817 125.787 120.792 125.786 120.77 125.778C120.747 125.769 120.729 125.753 120.717 125.732C120.705 125.711 120.701 125.687 120.705 125.664C120.709 125.64 120.722 125.619 120.74 125.603Z" fill="#263238"/>
<path d="M120.044 126.74C121.304 125.746 123.123 125.066 124.71 125.504C124.77 125.52 124.747 125.606 124.694 125.616C123.135 125.885 121.61 126.319 120.144 126.912C120.121 126.925 120.094 126.929 120.068 126.922C120.043 126.915 120.021 126.899 120.008 126.876C119.995 126.853 119.991 126.826 119.998 126.8C120.005 126.775 120.022 126.753 120.044 126.74Z" fill="#263238"/>
<path d="M119.362 127.877C120.621 126.882 122.44 126.22 124.028 126.64C124.087 126.657 124.064 126.747 124.028 126.753C122.469 127.021 120.943 127.457 119.478 128.052C119.454 128.068 119.426 128.073 119.399 128.067C119.371 128.062 119.347 128.046 119.332 128.022C119.316 127.999 119.311 127.971 119.317 127.943C119.322 127.916 119.338 127.892 119.362 127.877Z" fill="#263238"/>
<path d="M91.7199 45.572C91.7194 45.5775 91.7194 45.583 91.7199 45.5885C91.7828 45.8768 92.7637 50.4268 93.7811 54.3373C94.5201 57.1972 95.2823 59.7058 95.7164 59.9709C96.2102 60.2626 98.6228 61.3297 99.428 61.6644C99.428 61.6644 103.193 88.7192 106.056 97.1233C108.707 104.865 119.713 125.215 119.713 125.215L135.56 117.209C135.56 117.209 123.093 96.5301 121.79 92.749C119.772 86.9098 113.648 58.7415 113.648 58.7415C113.648 58.7415 113.794 56.3422 113.761 55.4607C113.694 53.8037 111.441 46.765 110.921 45.562L91.7199 45.572Z" fill="#37474F"/>
<path d="M119.511 122.018C121.774 120.752 121.108 121.083 123.385 119.844C124.502 119.237 131.832 115.257 132.972 114.873C132.995 114.873 133.018 114.906 132.995 114.919C132.041 115.652 124.641 119.502 123.514 120.089C121.214 121.285 121.857 120.914 119.537 122.077C119.531 122.077 119.524 122.075 119.518 122.071C119.513 122.067 119.508 122.062 119.506 122.056C119.503 122.049 119.502 122.043 119.503 122.036C119.504 122.029 119.506 122.023 119.511 122.018Z" fill="#263238"/>
<path d="M108.369 55.1394C107.952 54.9538 104.628 54.238 103.826 52.9323C103.402 52.2397 102.649 48.4221 102.61 48.1536C102.61 48.1139 102.543 48.1271 102.553 48.1536C102.596 48.3326 102.603 51.9878 103.627 53.499C104.346 54.5628 107.912 55.2421 108.336 55.2487C108.348 55.2471 108.359 55.242 108.368 55.2342C108.377 55.2264 108.384 55.2162 108.388 55.2047C108.391 55.1932 108.391 55.1809 108.388 55.1693C108.385 55.1578 108.378 55.1474 108.369 55.1394Z" fill="#263238"/>
<path d="M95.2326 59.5765C96.9543 60.2029 98.6176 60.9791 100.203 61.8963C100.21 61.8993 100.216 61.9037 100.221 61.9091C100.226 61.9145 100.23 61.9208 100.233 61.9277C100.236 61.9347 100.237 61.942 100.237 61.9494C100.236 61.9568 100.235 61.9641 100.232 61.9708C100.229 61.9776 100.224 61.9837 100.219 61.9887C100.213 61.9938 100.207 61.9978 100.2 62.0004C100.193 62.003 100.186 62.0042 100.179 62.004C100.171 62.0038 100.164 62.0021 100.157 61.999C98.4836 61.2799 96.7769 60.5906 95.1464 59.782C95.1192 59.7706 95.0976 59.7488 95.0864 59.7214C95.0752 59.6941 95.0754 59.6634 95.0868 59.6362C95.0982 59.6089 95.12 59.5874 95.1473 59.5762C95.1747 59.565 95.2054 59.5651 95.2326 59.5765Z" fill="#263238"/>
<path d="M94.7288 48.1136C94.7288 48.0573 94.8349 48.044 94.8349 48.1136C94.8346 49.9807 94.9286 51.8466 95.1166 53.7042C95.1928 54.5658 95.8854 59.3379 97.38 58.98C97.6318 58.9237 97.7578 58.6751 97.7975 58.3006C97.792 57.8071 97.7252 57.3162 97.5987 56.8392C97.433 55.845 97.3004 54.8508 97.2143 53.8335C97.0413 51.9584 97.0624 50.0705 97.2772 48.1998C97.28 48.1892 97.2863 48.1798 97.295 48.1731C97.3037 48.1664 97.3143 48.1628 97.3253 48.1628C97.3363 48.1628 97.3469 48.1664 97.3556 48.1731C97.3643 48.1798 97.3705 48.1892 97.3733 48.1998C97.3324 50.7961 97.4886 53.3917 97.8406 55.9643C98.0262 57.2037 98.6525 59.0662 97.3568 59.2584C96.061 59.4506 95.1828 56.3289 95.0205 55.4739C94.6049 53.0434 94.5069 50.5693 94.7288 48.1136Z" fill="#263238"/>
<path d="M97.3402 59.1027C97.4721 59.4265 97.5828 59.7586 97.6716 60.0968C97.767 60.3568 97.8142 60.6319 97.8108 60.9087C97.8108 60.9618 97.7346 60.9651 97.7081 60.9319C97.5521 60.6874 97.4348 60.4202 97.3601 60.1399C97.2474 59.835 97.1248 59.5335 97.0287 59.2253C97.0207 59.2048 97.0167 59.183 97.0171 59.161C97.0175 59.139 97.0222 59.1173 97.031 59.0972C97.0398 59.077 97.0524 59.0588 97.0682 59.0435C97.084 59.0283 97.1027 59.0163 97.1232 59.0082C97.1436 59.0002 97.1655 58.9962 97.1874 58.9966C97.2094 58.997 97.2311 59.0017 97.2513 59.0105C97.2714 59.0193 97.2896 59.0319 97.3049 59.0477C97.3202 59.0635 97.3322 59.0822 97.3402 59.1027Z" fill="#263238"/>
<path d="M130.672 114.074C128.415 109.826 126.609 106.452 124.276 102.237C123.126 100.165 121.923 98.1174 120.826 96.0164C119.792 93.9355 118.952 91.7634 118.318 89.5277C116.923 84.991 112.558 61.0744 112.287 59.9178C112.121 59.2153 112.429 55.2585 112.257 54.1483C112.084 53.0381 110.6 47.3614 110.394 46.8113C110.392 46.805 110.389 46.7991 110.385 46.794C110.381 46.7889 110.375 46.7847 110.37 46.7817C110.364 46.7786 110.357 46.7767 110.351 46.7761C110.344 46.7755 110.338 46.7762 110.331 46.7781C110.325 46.7801 110.319 46.7833 110.314 46.7875C110.309 46.7917 110.305 46.7969 110.302 46.8028C110.299 46.8086 110.297 46.815 110.296 46.8216C110.296 46.8282 110.296 46.8348 110.298 46.8411C110.981 49.0747 111.743 52.9288 111.955 54.092C112.167 55.2552 111.866 59.5169 111.955 60.057C112.068 60.6469 116.114 83.5428 117.499 88.1061C118.162 90.3264 118.798 92.5799 119.753 94.6975C120.707 96.8151 121.92 98.8233 123.067 100.851C125.423 105.04 127.275 108.391 129.695 112.54C129.999 113.063 130.311 113.587 130.622 114.11C130.649 114.14 130.692 114.107 130.672 114.074Z" fill="#263238"/>
<path d="M90.7722 54.4134C91.0705 54.4134 91.9487 53.797 92.0547 53.6379C92.7904 52.5311 92.9694 49.015 93.029 48.0904C93.029 48.0473 93.0555 48.0606 93.0555 48.0904C93.0555 49.1277 93.0191 50.1815 92.9329 51.179C92.8946 51.9914 92.7668 52.7972 92.5518 53.5816C92.3265 54.2112 91.0937 54.6454 90.7689 54.5029C90.749 54.5095 90.749 54.4134 90.7722 54.4134Z" fill="#263238"/>
<path d="M99.5805 28.6444C98.3643 32.23 92.2899 45.1543 88.3629 45.8569C85.5792 46.3573 75.1072 44.243 72.7211 43.0301C71.3691 42.3375 74.9017 34.3907 76.721 34.6724C78.9712 35.0204 85.3372 36.8066 86.6628 36.6011C87.3819 36.4917 91.1234 32.2532 96.472 26.5599C99.2226 23.637 100.634 25.5459 99.5805 28.6444Z" fill="#EB9481"/>
<path d="M73.2979 43.2819C72.2705 43.0665 67.0379 41.5322 65.8415 40.8561C64.6452 40.1801 61.3479 37.983 61.772 37.0153C62.1962 36.0476 63.2136 36.611 63.2136 36.611C63.2136 36.611 61.9676 35.4644 62.4845 34.5265C63.0015 33.5887 64.5557 34.5265 64.5557 34.5265C64.5557 34.5265 63.3627 33.254 63.9427 32.3592C64.5226 31.4645 65.931 32.6608 65.931 32.6608C65.931 32.6608 64.7844 31.5473 65.5764 31.0038C66.5275 30.3576 68.4098 32.6608 69.7851 33.2971C70.0966 33.4429 76.3334 35.8289 76.3334 35.8289L73.2979 43.2819Z" fill="#EB9481"/>
<path d="M65.8085 32.5581C67.197 34.2382 68.0951 34.732 70.1166 35.4047C70.1564 35.4047 70.1464 35.4777 70.1166 35.4677C68.062 34.9938 66.8458 34.5365 65.7224 32.6211C65.6693 32.5249 65.7422 32.4752 65.8085 32.5581Z" fill="#263238"/>
<path d="M64.4463 34.3875C66.0403 36.008 67.0112 36.5548 69.0858 37.4131C69.1156 37.4131 69.0858 37.476 69.0659 37.4661C66.9516 36.8033 65.752 36.3095 64.37 34.4836C64.317 34.4007 64.37 34.3146 64.4463 34.3875Z" fill="#263238"/>
<path d="M63.323 36.6508C64.98 38.1089 66.0139 38.7551 68.1448 39.3284C68.1553 39.3284 68.1655 39.3326 68.1729 39.3401C68.1804 39.3475 68.1846 39.3576 68.1846 39.3682C68.1846 39.3787 68.1804 39.3888 68.1729 39.3963C68.1655 39.4037 68.1553 39.4079 68.1448 39.4079C65.9178 39.0335 64.6155 38.2381 63.2998 36.7071C63.1938 36.6044 63.217 36.5613 63.323 36.6508Z" fill="#263238"/>
<path d="M78.0764 34.9342C78.0764 34.9342 76.0881 32.7736 75.0508 32.1373C74.0136 31.501 69.2117 30.5632 68.9532 31.5839C68.6218 32.9094 71.2729 33.9898 72.6449 34.351C72.6449 34.351 71.8628 37.4064 73.6026 38.5961C75.3424 39.7858 78.0764 34.9342 78.0764 34.9342Z" fill="#EB9481"/>
<path d="M68.9766 31.9783C69.54 33.4033 71.3693 33.7612 72.675 34.2119C72.6944 34.2176 72.7122 34.2279 72.7269 34.2419C72.7415 34.2559 72.7526 34.2732 72.7591 34.2924C72.7656 34.3116 72.7673 34.3321 72.7642 34.3521C72.7611 34.3721 72.7533 34.3911 72.7413 34.4074C72.4993 35.7098 72.5358 37.6186 73.5167 38.6128C73.5221 38.6188 73.5252 38.6266 73.5252 38.6347C73.5253 38.6428 73.5224 38.6506 73.5171 38.6567C73.5118 38.6628 73.5045 38.6668 73.4965 38.6679C73.4885 38.6689 73.4803 38.667 73.4736 38.6625C72.2773 37.7379 72.0884 35.8656 72.443 34.4572C71.1009 34.0164 69.2782 33.579 68.9634 31.9817C68.9634 31.975 68.9733 31.9684 68.9766 31.9783Z" fill="#263238"/>
<path d="M78.0765 34.6625L74.8586 45.2206C74.8586 45.2206 84.9562 46.9671 89.1416 45.9795C92.26 45.2405 97.9732 34.0726 99.7826 29.105C101.592 24.1375 98.5333 24.0612 96.0379 26.6627C93.5425 29.2641 87.1334 36.1305 86.6927 36.273C86.3911 36.3857 78.0765 34.6625 78.0765 34.6625Z" fill="#82DDFF"/>
<path d="M79.1403 40.4355C79.3623 39.6468 79.5777 38.8614 79.8031 38.0693C80.0284 37.2773 80.2571 36.4952 80.4161 35.6999C80.4161 35.6929 80.4139 35.6862 80.4099 35.6805C80.4058 35.6749 80.4001 35.6706 80.3935 35.6684C80.3869 35.6662 80.3797 35.6662 80.3731 35.6683C80.3665 35.6703 80.3606 35.6744 80.3565 35.68C80.0748 36.4124 79.866 37.1845 79.634 37.9368C79.4021 38.689 79.1469 39.5374 78.9083 40.3361C78.4377 41.9201 78.0268 43.5141 77.6357 45.1214C77.6357 45.1611 77.6788 45.1678 77.6921 45.1214C78.1991 43.5738 78.6962 42.0162 79.1403 40.4355Z" fill="#263238"/>
<path opacity="0.1" d="M99.7827 29.1216C97.9733 34.0924 92.2601 45.257 89.1417 45.996C87.9041 46.2441 86.6416 46.3453 85.3804 46.2976L99.67 25.1316C100.406 25.5193 100.631 26.772 99.7827 29.1216Z" fill="black"/>
<path d="M90.7622 51.7391C91.3256 52.1865 113.131 51.9943 113.224 51.8352C113.317 51.6762 110.347 31.2889 103.836 25.7447C101.96 24.1507 98.4107 24.2766 97.1249 26.0761C94.1059 30.3245 90.4076 51.4574 90.7622 51.7391Z" fill="#82DDFF"/>
<path d="M99.8228 30.6393L98.9048 28.9459L97.4897 30.4935L97.894 31.7727L99.2461 31.8787L99.8228 30.6393Z" fill="#263238"/>
<path d="M99.2457 31.8788L99.544 47.1361L97.3535 51.7557L95.1597 46.8411L97.8937 31.7727L99.2457 31.8788Z" fill="#263238"/>
<path d="M95.9485 41.0883C95.9485 41.0883 94.8979 39.9549 93.4763 40.2797C92.0546 40.6045 91.7563 42.6889 90.2684 43.1926C88.7804 43.6963 86.9313 42.7486 85.7383 43.5671C84.5452 44.3856 84.817 46.4171 84.2901 46.7551C83.7632 47.0931 89.0919 47.2654 89.0919 47.2654C89.0919 47.2654 95.1896 42.6657 95.8987 41.2507" fill="#82DDFF"/>
<path opacity="0.4" d="M95.9485 41.0883C95.9485 41.0883 94.8979 39.9549 93.4763 40.2797C92.0546 40.6045 91.7563 42.6889 90.2684 43.1926C88.7804 43.6963 86.9313 42.7486 85.7383 43.5671C84.5452 44.3856 84.817 46.4171 84.2901 46.7551C83.7632 47.0931 89.0919 47.2654 89.0919 47.2654C89.0919 47.2654 95.1896 42.6657 95.8987 41.2507" fill="black"/>
<path opacity="0.1" d="M98.9409 70.5655C99.1322 70.5763 99.3234 70.5446 99.501 70.4727C99.6753 70.4065 99.8411 70.3198 99.9947 70.2142C100.147 70.1081 100.287 69.9859 100.412 69.8497C100.475 69.781 100.533 69.7091 100.588 69.6343C100.642 69.5561 100.691 69.4742 100.734 69.389C100.647 69.4257 100.563 69.4677 100.482 69.515L100.25 69.6542C100.097 69.7503 99.955 69.8497 99.8125 69.9491L99.3817 70.2507L98.9409 70.5655Z" fill="black"/>
<path opacity="0.1" d="M84.2074 70.3501L83.7467 70.0585L83.3027 69.7801C83.1535 69.6906 83.0044 69.5978 82.8487 69.5117C82.7691 69.4686 82.6929 69.4255 82.61 69.3857C82.5259 69.3436 82.4397 69.306 82.3516 69.2731C82.3988 69.3553 82.452 69.4339 82.5106 69.5084C82.5681 69.5807 82.6301 69.6493 82.6962 69.7138C82.8302 69.8405 82.978 69.9517 83.137 70.0452C83.2954 70.1438 83.4658 70.2217 83.644 70.2772C83.824 70.343 84.0165 70.3679 84.2074 70.3501Z" fill="black"/>
<g opacity="0.1">
<path d="M92.6743 52.6505C92.8332 52.8232 93.0098 52.9787 93.2012 53.1145C93.3857 53.2544 93.5795 53.3817 93.7812 53.4956C93.9833 53.6093 94.1925 53.7101 94.4075 53.7971C94.6207 53.8877 94.8429 53.9554 95.0703 53.9993C94.8895 53.8525 94.7003 53.7164 94.5036 53.5917C94.3114 53.4691 94.1159 53.3498 93.917 53.2404C93.7182 53.131 93.516 53.0184 93.3106 52.909C93.1034 52.8112 92.891 52.7249 92.6743 52.6505Z" fill="black"/>
<path d="M92.0613 52.6505C92.0967 52.8078 92.1535 52.9594 92.2303 53.1012C92.3055 53.2392 92.3932 53.3701 92.4921 53.4922C92.5893 53.6152 92.7005 53.7264 92.8235 53.8236C92.9512 53.9262 93.0991 54.0007 93.2576 54.0424C93.1648 53.9065 93.0786 53.7839 92.9892 53.6613C92.8997 53.5386 92.8069 53.4193 92.7108 53.3034C92.6147 53.1874 92.5153 53.0747 92.4092 52.972C92.3035 52.8542 92.187 52.7466 92.0613 52.6505Z" fill="black"/>
<path d="M89.1517 52.8359C89.0688 53.058 88.9827 53.2667 88.8866 53.4722C88.7956 53.6763 88.6938 53.8754 88.5817 54.0687C88.4762 54.2656 88.3589 54.456 88.2304 54.6387C88.1045 54.8276 87.9553 54.9966 87.8162 55.1921C88.035 55.0945 88.2347 54.9587 88.406 54.7912C88.5809 54.6257 88.7295 54.4347 88.8468 54.2245C88.968 54.0178 89.0584 53.7945 89.1152 53.5617C89.1753 53.3246 89.1877 53.0779 89.1517 52.8359Z" fill="black"/>
<path d="M86.0698 54.715C86.2425 54.6614 86.4065 54.5833 86.557 54.483C86.7064 54.3875 86.8452 54.2764 86.9712 54.1516C87.0967 54.0251 87.2078 53.885 87.3026 53.7341C87.4005 53.5796 87.4669 53.4073 87.4981 53.2271C87.3623 53.353 87.2429 53.4723 87.1203 53.5883L86.7591 53.9429C86.6365 54.0622 86.5172 54.1815 86.4012 54.3107C86.2816 54.4377 86.1709 54.5728 86.0698 54.715Z" fill="black"/>
<path d="M88.1477 53.3134C87.992 53.5122 87.8462 53.7044 87.7004 53.8966L87.2695 54.4732L86.8321 55.0432C86.6863 55.2387 86.5339 55.4243 86.3914 55.6331C86.6116 55.5152 86.8164 55.3705 87.0011 55.2023C87.1851 55.0343 87.3537 54.8502 87.5048 54.6522C87.6543 54.453 87.7863 54.2412 87.8992 54.0192C88.0138 53.7964 88.0974 53.5589 88.1477 53.3134Z" fill="black"/>
<path d="M89.1684 51.8155C89.0683 51.5676 88.9463 51.3292 88.8038 51.103C88.6726 50.8899 88.5253 50.6871 88.3631 50.4965C88.2093 50.3206 88.0371 50.1618 87.8494 50.0227C87.6802 49.8945 87.4842 49.8061 87.2761 49.7642C87.4518 49.9133 87.6075 50.0624 87.7765 50.2215C87.9455 50.3806 88.0914 50.5529 88.2438 50.7318C88.5619 51.0831 88.8469 51.4543 89.1684 51.8155Z" fill="black"/>
<path d="M91.4252 51.4938C91.4639 51.0852 91.5371 50.6806 91.6439 50.2843C91.6969 50.0987 91.7533 49.9131 91.8228 49.7375C91.8924 49.5618 91.972 49.3829 92.0449 49.1907C91.9041 49.3033 91.786 49.4416 91.6969 49.5983C91.5942 49.7773 91.5151 49.9689 91.4616 50.1683C91.4028 50.3846 91.3694 50.607 91.3622 50.8311C91.3485 51.0539 91.3697 51.2776 91.4252 51.4938Z" fill="black"/>
<path d="M90.8055 51.7724C90.8817 51.4774 90.9215 51.2024 90.9679 50.9306L91.0441 50.523C91.0706 50.3905 91.1037 50.2579 91.1369 50.1055C91.0324 50.1942 90.9525 50.3083 90.9049 50.4369C90.847 50.5742 90.8048 50.7176 90.779 50.8644C90.7535 51.0177 90.7413 51.1729 90.7425 51.3283C90.7464 51.4783 90.7675 51.6273 90.8055 51.7724Z" fill="black"/>
</g>
<path d="M94.6295 51.9876C94.0275 52.4916 93.3281 52.8662 92.5749 53.0878C90.5401 53.7871 88.3297 53.7838 86.2155 53.5584C85.4466 53.4756 85.7416 52.3057 86.5038 52.3853C88.4026 52.5907 90.4009 52.5609 92.2236 51.9346C92.643 51.7958 93.0454 51.6101 93.4232 51.3812C93.5359 51.3149 93.6386 51.2387 93.7546 51.1658C93.8706 51.0929 93.6486 51.2619 93.7546 51.1658C94.3213 50.6388 95.2028 51.4673 94.6328 51.9942L94.6295 51.9876Z" fill="#263238"/>
<path d="M93.8641 51.2287C93.3626 51.656 92.7798 51.9773 92.1508 52.1731C90.4938 52.7697 88.6347 52.8061 86.885 52.6338C86.1261 52.5576 86.083 51.3513 86.8518 51.4275C88.4724 51.5899 90.1658 51.5833 91.7101 51.0497C92.0636 50.9328 92.4027 50.7761 92.7208 50.5825C92.8169 50.5228 92.9064 50.4599 92.9992 50.3936C93.092 50.3273 92.8931 50.4897 92.9992 50.3936C93.5625 49.8633 94.444 50.6918 93.874 51.2221L93.8641 51.2287Z" fill="#263238"/>
<path d="M106.474 28.9095C111.842 36.0278 115.62 46.5297 114.136 49.5553C113.065 51.7392 101.39 53.2669 94.5834 53.9694C93.3208 54.0987 93.0954 44.1238 94.4475 44.0707C96.87 43.9779 105.128 41.8537 105.291 41.8372C105.642 41.7974 103.77 34.8116 102.911 30.2384C101.818 24.386 104.068 25.7215 106.474 28.9095Z" fill="#EB9481"/>
<path d="M83.107 45.5322C83.0355 45.824 83.0546 46.1306 83.1618 46.4112C83.2689 46.6918 83.459 46.9332 83.7068 47.103C83.3256 47.4493 83.0781 47.9184 83.0076 48.4286C82.9214 49.3233 84.2901 49.8536 84.2901 49.8536C83.9695 50.2902 83.7882 50.8134 83.7698 51.3548C83.7698 52.2197 85.0788 52.9488 85.0788 52.9488C85.0064 53.5121 85.1393 54.0827 85.4532 54.556C86.3447 55.7855 88.6545 55.6297 90.1259 55.5502C91.5973 55.4707 95.6899 53.8468 96.5019 53.6182L96.0379 44.1735C96.0379 44.1735 89.3338 42.6756 87.6206 43.0203C86.1757 43.292 83.4251 44.4287 83.107 45.5322Z" fill="#EB9481"/>
<path d="M83.7201 47.0665C85.1815 46.3872 86.7656 46.1784 88.3331 45.8801C88.3389 45.8822 88.344 45.886 88.3476 45.891C88.3512 45.8961 88.3531 45.9021 88.3531 45.9083C88.3531 45.9145 88.3512 45.9205 88.3476 45.9256C88.344 45.9306 88.3389 45.9344 88.3331 45.9365C86.7689 46.2148 85.281 46.7981 83.7334 47.1394C83.7255 47.1379 83.7183 47.134 83.7127 47.1283C83.707 47.1226 83.7032 47.1154 83.7018 47.1075C83.7004 47.0996 83.7014 47.0915 83.7046 47.0842C83.7079 47.0769 83.7133 47.0707 83.7201 47.0665Z" fill="#263238"/>
<path d="M84.277 49.8037C84.6247 49.6821 84.9868 49.6064 85.3541 49.5783C85.7385 49.5253 86.1262 49.4789 86.5139 49.4391C87.2894 49.3574 88.0626 49.2944 88.8337 49.2502C88.8668 49.2502 88.8801 49.3033 88.8337 49.3066C88.0615 49.3894 87.2894 49.4822 86.5139 49.5982C86.1295 49.6545 85.7451 49.7175 85.364 49.7805C85.0055 49.8647 84.6386 49.908 84.2704 49.9097C84.2597 49.9052 84.2506 49.8974 84.2445 49.8875C84.2384 49.8776 84.2355 49.866 84.2362 49.8543C84.2369 49.8427 84.2412 49.8316 84.2486 49.8225C84.2559 49.8134 84.2658 49.8069 84.277 49.8037Z" fill="#263238"/>
<path d="M85.112 52.9321C85.4321 52.8244 85.7685 52.7728 86.1062 52.7797L87.1666 52.6869C87.8758 52.6173 88.5817 52.551 89.2875 52.4583C89.3207 52.4583 89.3306 52.508 89.2875 52.5113C88.5717 52.6107 87.8559 52.7167 87.1401 52.8062C86.7888 52.8526 86.4376 52.8957 86.0863 52.9355C85.7683 53.0043 85.4406 53.0155 85.1186 52.9686C85.1147 52.9678 85.1111 52.9659 85.1083 52.9631C85.1055 52.9602 85.1036 52.9566 85.1029 52.9526C85.1021 52.9487 85.1026 52.9446 85.1043 52.941C85.1059 52.9373 85.1086 52.9342 85.112 52.9321Z" fill="#263238"/>
<path d="M95.4414 43.4313L97.5789 54.4799C97.5789 54.4799 112.392 52.2397 114.218 50.0691C116.044 47.8984 112.528 37.211 107.441 29.8541C104.654 25.8244 101.509 23.2263 102.828 30.9378C104.147 38.6493 105.048 41.4529 105.019 41.5423C104.989 41.6318 95.4414 43.4313 95.4414 43.4313Z" fill="#82DDFF"/>
<path d="M99.2063 48.1138C99.0473 47.3118 98.875 46.5098 98.7225 45.7079C98.5701 44.9059 98.4209 44.0973 98.2022 43.3152C98.2022 43.3073 98.1991 43.2997 98.1935 43.2941C98.1879 43.2885 98.1803 43.2854 98.1724 43.2854C98.1645 43.2854 98.1569 43.2885 98.1513 43.2941C98.1457 43.2997 98.1426 43.3073 98.1426 43.3152C98.2221 44.0973 98.3812 44.8794 98.5137 45.6582C98.6463 46.4369 98.7954 47.3151 98.9445 48.127C99.2362 49.7509 99.5841 51.3614 99.9586 52.9687C99.9586 53.0085 100.018 52.9919 100.012 52.9687C99.7763 51.3415 99.5212 49.7243 99.2063 48.1138Z" fill="#263238"/>
<path d="M105.794 41.4396C105.555 41.4396 105.317 41.4595 105.078 41.476C104.894 40.136 104.631 38.8081 104.289 37.4993C103.958 36.1539 103.627 34.8084 103.265 33.4729C103.265 33.4729 103.239 33.4729 103.242 33.4729C103.391 34.3345 103.554 35.1895 103.723 36.0445C103.574 35.6402 103.441 35.2293 103.308 34.8184C103.308 34.7918 103.252 34.8184 103.259 34.8184C103.34 35.2053 103.45 35.5853 103.59 35.955C103.65 36.1108 103.719 36.2632 103.786 36.4157C103.862 36.8001 103.935 37.1845 104.014 37.5689C104.258 38.8802 104.579 40.176 104.975 41.4495C103.78 41.584 102.593 41.7831 101.42 42.046C99.9714 42.3211 96.9159 42.9209 95.5108 43.3517C95.2921 43.408 95.4247 43.4876 95.4578 43.4611C95.4909 43.4346 100.018 42.5862 101.463 42.3244C102.178 42.1918 102.898 42.0692 103.613 41.9532C104.329 41.8372 105.085 41.7345 105.81 41.5589C105.87 41.5423 105.88 41.4396 105.794 41.4396Z" fill="#263238"/>
<path d="M109.93 51.9479C110.958 51.4944 112.018 51.1189 113.102 50.8245C112.144 51.4361 111.059 51.8204 109.93 51.9479Z" fill="#263238"/>
<path d="M98.7059 29.2144C99.9718 29.4994 102.103 27.6701 102.941 26.096C102.997 25.9866 102.822 24.8566 102.669 23.4747C102.58 22.6362 102.504 21.6984 102.494 20.8401L97.1152 22.2121C97.435 23.2844 97.6231 24.3916 97.6753 25.5094C97.6747 25.6272 97.6636 25.7448 97.6421 25.8607C97.6421 25.8607 97.6421 25.8971 97.6421 25.9203C97.5328 26.5931 97.4798 28.9393 98.7059 29.2144Z" fill="#EB9481"/>
<path d="M102.195 20.9165C101.96 22.3713 101.065 25.8443 98.1887 25.9437C98.0039 25.9516 97.8188 25.9439 97.6353 25.9205C97.6353 25.8973 97.6353 25.8774 97.6353 25.8609C97.6567 25.745 97.6678 25.6274 97.6685 25.5096C97.6181 24.3916 97.43 23.2842 97.1084 22.2122L102.195 20.9165Z" fill="#263238"/>
<path d="M103.179 14.3449C103.776 16.2504 102.812 21.7813 101.459 23.024C99.5042 24.8268 96.2765 25.0124 94.7421 22.6628C93.2542 20.3795 94.6394 13.1916 96.1505 12.0582C98.3742 10.3947 102.295 11.5247 103.179 14.3449Z" fill="#EB9481"/>
<path d="M98.0166 17.7649C98.0166 17.7649 98.0431 17.7881 98.0398 17.8013C97.9768 18.1758 97.9669 18.6133 98.2883 18.7955C98.2883 18.7955 98.2883 18.8187 98.2883 18.8154C97.8741 18.6895 97.894 18.1095 98.0166 17.7649Z" fill="#263238"/>
<path d="M98.4044 17.4202C99.0141 17.46 98.8915 18.6729 98.3281 18.6397C97.7648 18.6066 97.894 17.3904 98.4044 17.4202Z" fill="#263238"/>
<path d="M95.8525 17.5496C95.8525 17.5496 95.8226 17.5496 95.8226 17.5794C95.7961 17.9572 95.7033 18.3847 95.3521 18.4775V18.4973C95.7729 18.4808 95.8889 17.9108 95.8525 17.5496Z" fill="#263238"/>
<path d="M95.5573 17.1221C94.9541 17.016 94.7884 18.2256 95.3452 18.325C95.9019 18.4244 96.061 17.2115 95.5573 17.1221Z" fill="#263238"/>
<path d="M98.8682 17.0058C98.7073 16.958 98.5491 16.9015 98.3943 16.8368C98.2203 16.8015 98.0629 16.7094 97.9469 16.575C97.9179 16.5261 97.906 16.4689 97.9132 16.4124C97.9204 16.356 97.9463 16.3036 97.9867 16.2635C98.0796 16.1979 98.1879 16.1574 98.3011 16.1458C98.4143 16.1342 98.5285 16.1519 98.6329 16.1973C98.855 16.2643 99.0449 16.4105 99.1664 16.6082C99.1907 16.6542 99.2014 16.7062 99.1972 16.7581C99.1931 16.81 99.1743 16.8597 99.1431 16.9014C99.1118 16.943 99.0694 16.9749 99.0208 16.9934C98.9721 17.0119 98.9192 17.0162 98.8682 17.0058Z" fill="#263238"/>
<path d="M95.1198 16.4957C95.2856 16.4787 95.4504 16.4532 95.6136 16.4195C95.792 16.4169 95.9646 16.3551 96.1041 16.2439C96.1459 16.1997 96.1705 16.142 96.1736 16.0812C96.1766 16.0205 96.1578 15.9606 96.1206 15.9125C96.0425 15.8293 95.9435 15.7685 95.834 15.7364C95.7244 15.7044 95.6083 15.7022 95.4976 15.7302C95.2647 15.7507 95.0481 15.8584 94.8912 16.0318C94.852 16.0725 94.8264 16.1244 94.8177 16.1802C94.809 16.2361 94.8178 16.2932 94.8428 16.3439C94.8678 16.3946 94.9078 16.4364 94.9574 16.4636C95.0069 16.4907 95.0637 16.502 95.1198 16.4957Z" fill="#263238"/>
<path d="M96.3892 20.5055C96.5274 20.7256 96.7204 20.906 96.9492 21.0291C97.0757 21.0904 97.2177 21.1124 97.3568 21.0921C97.6617 21.0424 97.6882 20.7607 97.6617 20.532C97.6428 20.405 97.6094 20.2804 97.5623 20.1609C97.2183 20.3984 96.807 20.5193 96.3892 20.5055Z" fill="#263238"/>
<path d="M96.9492 21.0323C97.0757 21.0936 97.2177 21.1156 97.3568 21.0953C97.6617 21.0456 97.6882 20.7639 97.6617 20.5352C97.5043 20.5256 97.3482 20.5695 97.2189 20.6597C97.0896 20.75 96.9945 20.8813 96.9492 21.0323Z" fill="#FF9ABB"/>
<path d="M102.427 18.7624C101.433 18.6298 101.711 16.2239 101.711 16.2239C101.711 16.2239 100.224 15.8461 99.637 13.7285C99.637 13.7285 97.6122 14.8056 96.0082 14.3913C93.4929 13.7285 93.8011 10.4411 94.8019 9.83468C96.2203 8.97638 98.5268 10.5405 98.5268 10.5405C98.5268 10.5405 102.242 9.78497 103.15 12.3268C103.619 12.3942 104.045 12.6368 104.343 13.0057C104.64 13.3745 104.787 13.8424 104.754 14.3151C104.734 16.1212 103.16 18.8486 102.427 18.7624Z" fill="#263238"/>
<path d="M102.046 16.5287C101.323 16.3495 100.68 15.9358 100.217 15.3522C99.9713 15.0347 99.8048 14.663 99.7316 14.2682C99.6584 13.8734 99.6806 13.4668 99.7962 13.0822C99.798 13.078 99.7988 13.0734 99.7987 13.0688C99.7986 13.0642 99.7976 13.0597 99.7956 13.0555C99.7937 13.0514 99.7909 13.0476 99.7875 13.0446C99.784 13.0416 99.78 13.0393 99.7756 13.0379C99.7712 13.0365 99.7666 13.0361 99.762 13.0366C99.7574 13.0371 99.753 13.0385 99.749 13.0408C99.7451 13.0431 99.7416 13.0462 99.7389 13.0499C99.7362 13.0536 99.7342 13.0578 99.7332 13.0623C99.5892 13.4618 99.5353 13.8883 99.5754 14.3111C99.6155 14.7339 99.7486 15.1427 99.9652 15.508C100.184 15.8557 100.49 16.1398 100.853 16.3318C101.216 16.5237 101.623 16.6168 102.033 16.6016C102.073 16.6049 102.089 16.5452 102.046 16.5287Z" fill="#263238"/>
<path d="M104.956 13.2779C104.502 12.6152 103.743 12.4528 102.968 12.4263C102.924 12.4263 102.924 12.4925 102.968 12.4925C103.349 12.502 103.721 12.6146 104.043 12.8182C104.366 13.0218 104.627 13.3089 104.8 13.6491C105.132 14.2754 104.996 15.0211 104.8 15.6706C104.414 16.9191 103.581 17.9812 102.46 18.6531C102.444 18.6531 102.46 18.6929 102.46 18.683C103.097 18.3431 103.658 17.8768 104.108 17.3126C104.558 16.7485 104.888 16.0984 105.078 15.4022C105.264 14.7328 105.377 13.8977 104.956 13.2779Z" fill="#263238"/>
<path d="M98.6195 10.6697C98.3356 10.13 97.8641 9.7128 97.2939 9.49661C96.5997 9.25543 95.841 9.27903 95.1631 9.56289C94.8914 9.68216 94.6562 9.87139 94.4815 10.1113C94.3069 10.3511 94.199 10.633 94.1689 10.9282C94.1193 11.6134 94.3078 12.2947 94.7024 12.8569C94.7024 12.8569 94.7356 12.8569 94.729 12.8569C94.4192 12.331 94.2803 11.722 94.3313 11.1138C94.3585 10.8254 94.4661 10.5505 94.6419 10.3203C94.8176 10.09 95.0545 9.91374 95.3255 9.81144C96.4025 9.4204 97.9269 9.60597 98.5333 10.7195C98.5399 10.7309 98.5508 10.7392 98.5635 10.7426C98.5763 10.7461 98.5899 10.7443 98.6013 10.7377C98.6127 10.7311 98.621 10.7202 98.6245 10.7075C98.6279 10.6947 98.6261 10.6812 98.6195 10.6697Z" fill="#263238"/>
<path d="M101.748 18.7193C101.748 18.7193 103.02 16.9497 103.826 17.3938C104.631 17.8378 103.66 20.4293 102.702 20.7707C102.583 20.8228 102.454 20.8503 102.323 20.8514C102.193 20.8525 102.064 20.8272 101.943 20.777C101.823 20.7269 101.714 20.6529 101.623 20.5596C101.532 20.4662 101.46 20.3554 101.413 20.2338L101.748 18.7193Z" fill="#EB9481"/>
<path d="M103.527 18.136V18.1625C102.865 18.4243 102.497 19.0374 102.242 19.677C102.281 19.6104 102.335 19.5533 102.398 19.5095C102.462 19.4658 102.535 19.4364 102.611 19.4235C102.687 19.4105 102.766 19.4144 102.84 19.4347C102.915 19.455 102.984 19.4913 103.044 19.5411C103.044 19.5411 103.044 19.5809 103.027 19.5775C102.91 19.5377 102.783 19.5354 102.664 19.571C102.545 19.6067 102.44 19.6784 102.364 19.7764C102.235 19.9393 102.124 20.116 102.033 20.3033C102.003 20.3596 101.894 20.3265 101.92 20.2602V20.2436C101.937 19.392 102.613 18.2122 103.527 18.136Z" fill="#263238"/>
<path d="M97.642 25.2675L99.0206 28.4124L102.851 24.2567L104.015 25.516C104.015 25.516 100.346 32.0411 100.313 31.7528L98.9112 29.0486L97.0786 31.0204V26.2186L97.642 25.2675Z" fill="#82DDFF"/>
<path d="M96.9462 28.6478C96.9727 27.8525 96.976 27.0538 97.039 26.2651C97.039 26.2353 97.0854 26.222 97.092 26.2651C97.2776 27.024 97.1583 30.0563 97.1848 30.7787C97.261 30.6925 98.8882 29.0422 98.9047 29.0654C99.2063 29.4929 100.23 31.4614 100.303 31.6403C100.883 30.6064 103.355 26.5137 104.048 25.5261C104.068 25.4996 104.114 25.5261 104.098 25.5526C103.591 26.6462 100.403 32.0446 100.353 32.0313C99.8154 31.1041 99.3265 30.1495 98.8882 29.1714C98.6164 29.5293 96.9794 31.3851 96.9694 31.2691C96.9164 30.3964 96.9086 29.5214 96.9462 28.6478Z" fill="#263238"/>
<path d="M54.7997 137.156C54.0011 137.404 30.734 136.9 29.8856 136.334C29.5543 136.125 31.5426 114.084 31.5426 114.084L46.2995 114.366L44.6193 129.109C44.6193 129.109 53.2157 133.179 54.0972 133.891C54.9787 134.604 55.5951 136.9 54.7997 137.156Z" fill="#EB9481"/>
<path d="M54.7997 137.155C54.0043 137.404 30.7339 136.9 29.8856 136.334C29.7829 136.267 29.753 134.03 30.1209 131.117C34.3395 131.823 49.4013 134.136 50.5744 133.437C51.3929 132.957 50.6672 132.204 49.9978 131.697C51.9199 132.658 53.716 133.58 54.0872 133.888C54.9488 134.61 55.595 136.904 54.7997 137.155Z" fill="#263238"/>
<path d="M45.047 125.557L30.5685 125.365C30.5685 125.365 33.4384 90.6646 33.3191 89.9985C33.1666 89.1435 22.8901 48.8429 22.8901 48.8429H36.7158C36.7158 48.8429 47.6186 86.4062 48.0097 90.025C48.6327 95.8708 45.047 125.557 45.047 125.557Z" fill="#263238"/>
<path d="M31.8608 122.094C32.7158 122.031 33.584 122.041 34.4423 122.031C35.3006 122.021 36.1589 122.031 37.0172 122.031C38.7372 122.047 40.4538 122.074 42.1704 122.124C42.641 122.124 43.1115 122.15 43.5821 122.173C44.0527 122.197 44.5763 122.283 45.0866 122.299C45.0933 122.302 45.099 122.306 45.1031 122.311C45.1072 122.317 45.1094 122.324 45.1094 122.331C45.1094 122.338 45.1072 122.345 45.1031 122.35C45.099 122.356 45.0933 122.36 45.0866 122.362C44.6658 122.362 44.2416 122.429 43.8207 122.439C43.3999 122.448 42.9459 122.455 42.4952 122.455C41.6335 122.455 40.7741 122.455 39.9169 122.455C38.2003 122.455 36.4804 122.419 34.7638 122.346C33.7928 122.306 32.8152 122.296 31.8508 122.197C31.8441 122.196 31.8375 122.194 31.8316 122.191C31.8256 122.188 31.8203 122.183 31.816 122.178C31.8117 122.173 31.8084 122.167 31.8064 122.16C31.8045 122.154 31.8038 122.147 31.8044 122.14C31.8051 122.134 31.8071 122.127 31.8103 122.121C31.8134 122.115 31.8178 122.11 31.823 122.105C31.8282 122.101 31.8343 122.098 31.8407 122.096C31.8472 122.094 31.854 122.093 31.8608 122.094Z" fill="#37474F"/>
<path d="M25.9288 52.0971C27.1682 56.4781 28.2982 60.8956 29.4051 65.313C30.5119 69.7305 31.6188 74.148 32.719 78.5687L34.376 85.1966C34.9095 87.3473 35.5325 89.5047 35.6651 91.735C35.7976 93.9652 35.5126 96.275 35.3337 98.5252C35.1547 100.775 34.9526 103.049 34.7538 105.309C34.3594 109.836 33.9783 114.362 33.4878 118.879C33.4249 119.443 33.3652 120.009 33.3089 120.576C33.3089 120.622 33.2293 120.622 33.2327 120.576C33.5309 116.049 33.8424 111.522 34.2036 106.989C34.387 104.724 34.5715 102.462 34.7571 100.202C34.9426 97.9452 35.2078 95.6785 35.2774 93.4151C35.3469 91.1517 34.946 88.9413 34.3793 86.7342C33.8126 84.5272 33.2956 82.4063 32.7555 80.2456C31.6508 75.827 30.5462 71.4085 29.4415 66.9899C28.2154 62.0422 26.9892 57.0846 25.9056 52.1004C25.9019 52.0985 25.8989 52.0954 25.897 52.0916C25.8952 52.0878 25.8946 52.0836 25.8953 52.0794C25.896 52.0753 25.8981 52.0715 25.9011 52.0686C25.9041 52.0657 25.9079 52.0638 25.9121 52.0632C25.9162 52.0626 25.9205 52.0633 25.9242 52.0653C25.9279 52.0673 25.9309 52.0703 25.9327 52.0741C25.9346 52.0779 25.9352 52.0821 25.9345 52.0863C25.9338 52.0904 25.9318 52.0942 25.9288 52.0971Z" fill="#37474F"/>
<path d="M22.8767 48.8429C22.8767 48.8429 27.2875 66.1316 30.3728 78.3037L36.255 48.8429H22.8767Z" fill="#37474F"/>
<path d="M37.4249 137.202C36.6263 137.451 13.3592 136.947 12.5075 136.38C12.1761 136.171 13.3957 114.117 13.3957 114.117L27.9603 114.402L27.2545 129.156C27.2545 129.156 35.8409 133.222 36.7091 133.944C37.5774 134.667 38.2203 136.957 37.4249 137.202Z" fill="#EB9481"/>
<path d="M37.4248 137.202C36.6261 137.45 13.3591 136.947 12.5074 136.38C12.4047 136.317 12.4312 134.136 12.5074 131.161C16.726 131.866 32.0231 134.183 33.1962 133.48C34.0115 133 33.289 132.247 32.6196 131.744C34.5417 132.702 36.3345 133.623 36.7057 133.934C37.5706 134.663 38.2201 136.957 37.4248 137.202Z" fill="#263238"/>
<path d="M36.2583 48.8362C36.2583 48.8362 35.4762 58.6156 33.8822 61.0679C32.4874 61.6062 31.1451 62.2718 29.8723 63.0562C29.8723 63.0562 28.8781 89.2064 28.8781 90.7772C28.9444 96.6528 27.4432 125.269 27.4432 125.269L12.8354 125.129C12.8354 125.129 14.3499 92.7689 14.3565 90.6181C14.3565 88.537 15.3507 75.4039 16.2322 64.0206C16.2322 64.0206 14.9332 60.3753 15.0757 58.546C15.4236 54.0954 17.4219 48.8329 17.4219 48.8329L36.2583 48.8362Z" fill="#263238"/>
<path d="M31.1185 58.1318C31.1715 57.7673 31.2278 57.3995 31.2842 57.0349C31.3869 56.3721 31.5228 55.7094 31.6388 55.0466C31.9072 53.5321 32.1822 52.0143 32.5203 50.5131C32.5203 50.5043 32.5238 50.4959 32.53 50.4897C32.5362 50.4835 32.5446 50.48 32.5534 50.48C32.5622 50.48 32.5706 50.4835 32.5768 50.4897C32.5831 50.4959 32.5865 50.5043 32.5865 50.5131C32.5269 51.1196 32.4573 51.7227 32.3711 52.3258C32.285 52.929 32.2253 53.5387 32.1392 54.1419C31.9702 55.3382 31.8078 56.5378 31.6023 57.7275C31.5228 58.1882 31.2378 59.01 31.8972 59.1525C32.4208 59.2652 32.8053 58.7515 32.9577 58.3207C33.1215 57.7793 33.239 57.225 33.309 56.6638C33.4183 56.0606 33.5111 55.4542 33.5973 54.8477C33.7873 53.5222 33.9894 52.1966 34.2037 50.871C34.2037 50.8346 34.2733 50.8445 34.27 50.871C34.2408 52.226 34.1435 53.5787 33.9784 54.924C33.8922 55.5669 33.795 56.2086 33.6868 56.8493C33.6209 57.4651 33.4726 58.0692 33.246 58.6455C33.152 58.8718 33.0026 59.0709 32.8115 59.2243C32.6203 59.3778 32.3937 59.4807 32.1524 59.5237H32.1193C32.1254 59.5276 32.1304 59.533 32.1339 59.5394C32.1374 59.5457 32.1392 59.5529 32.1392 59.5601C32.1392 59.7755 32.1392 59.9943 32.1127 60.2229C32.0861 60.4516 32.0497 60.6471 32.0099 60.8559C31.9711 61.0697 31.9157 61.2802 31.8442 61.4855C31.7843 61.6861 31.6877 61.8737 31.5592 62.0389C31.5558 62.0472 31.5494 62.0538 31.5414 62.0577C31.5334 62.0615 31.5242 62.0623 31.5156 62.0598C31.5071 62.0574 31.4997 62.0519 31.4949 62.0444C31.4901 62.0369 31.4882 62.0279 31.4896 62.0191C31.4896 61.9826 31.4896 61.9495 31.4896 61.913V61.8964C31.4848 61.8347 31.4848 61.7726 31.4896 61.7109C31.4896 61.6081 31.5261 61.5054 31.5493 61.4027C31.5957 61.2005 31.652 60.9951 31.705 60.7962C31.7581 60.5974 31.8045 60.3886 31.8542 60.1865C31.9039 59.9843 31.9768 59.7755 32.0265 59.5668C32.025 59.5637 32.0243 59.5603 32.0243 59.5568C32.0243 59.5534 32.025 59.55 32.0265 59.5469C31.8321 59.5556 31.6397 59.5048 31.4751 59.4011C31.3104 59.2975 31.1814 59.146 31.1052 58.9669C31.0372 58.6921 31.0418 58.4043 31.1185 58.1318Z" fill="#37474F"/>
<path d="M28.6728 63.3843C29.1092 63.0505 29.5688 62.7481 30.0481 62.4796C30.5511 62.175 31.0737 61.9038 31.6122 61.6677C32.6694 61.207 33.7597 60.8955 34.8499 60.5343C34.8831 60.5343 34.9063 60.5774 34.8731 60.5906C33.816 61.0115 32.8052 61.5682 31.7846 62.0686C31.2808 62.3139 30.7904 62.5459 30.2602 62.7745C29.7299 63.0032 29.2428 63.255 28.7126 63.4572C28.7034 63.4593 28.6937 63.4584 28.6851 63.4546C28.6765 63.4507 28.6694 63.4441 28.6649 63.4359C28.6604 63.4276 28.6587 63.4181 28.6602 63.4087C28.6616 63.3994 28.666 63.3908 28.6728 63.3843Z" fill="#37474F"/>
<path d="M20.4245 55.2222C21.1701 55.2222 23.7384 55.0333 24.5006 54.1816C24.9248 53.6757 25.2477 53.0929 25.4517 52.465C25.6902 51.7849 25.8828 51.0896 26.0283 50.3838C26.0283 50.3759 26.0315 50.3683 26.0371 50.3627C26.0427 50.3571 26.0502 50.354 26.0582 50.354C26.0661 50.354 26.0737 50.3571 26.0792 50.3627C26.0848 50.3683 26.088 50.3759 26.088 50.3838C26.1051 51.1818 26.0046 51.978 25.7897 52.7467C25.6108 53.4094 25.3689 54.1286 24.8419 54.5859C24.2558 55.0239 23.5542 55.2808 22.8238 55.3249C22.026 55.4183 21.2194 55.4072 20.4245 55.2917C20.3748 55.3017 20.3748 55.2222 20.4245 55.2222Z" fill="#37474F"/>
<path d="M38.0049 55.4209C37.6318 55.3034 37.2913 55.1002 37.0107 54.8277C36.4507 53.9793 36.3148 51.2917 36.2651 50.5826C36.2651 50.5494 36.2485 50.5594 36.2485 50.5826C36.2485 51.3779 36.275 52.1832 36.3413 52.9487C36.3694 53.5708 36.4672 54.1877 36.633 54.7879C36.8053 55.2685 37.7497 55.5999 37.995 55.4905C38.0215 55.4938 38.0215 55.4209 38.0049 55.4209Z" fill="#37474F"/>
<path d="M13.4785 122.306C14.3302 122.243 15.1984 122.243 16.0567 122.243C16.915 122.243 17.7766 122.243 18.6383 122.243C20.3549 122.259 22.0748 122.286 23.7914 122.336C24.262 122.336 24.7292 122.362 25.1998 122.382C25.6704 122.402 26.194 122.491 26.7043 122.511C26.7123 122.511 26.7198 122.514 26.7254 122.52C26.731 122.526 26.7342 122.533 26.7342 122.541C26.7342 122.549 26.731 122.557 26.7254 122.562C26.7198 122.568 26.7123 122.571 26.7043 122.571C26.2802 122.571 25.8593 122.637 25.4351 122.65C25.0109 122.664 24.5602 122.65 24.1095 122.65H21.5313C19.8147 122.65 18.0948 122.614 16.3815 122.541C15.4105 122.501 14.4296 122.488 13.4652 122.392C13.4569 122.387 13.4501 122.38 13.4459 122.372C13.4417 122.363 13.4403 122.354 13.4417 122.344C13.4431 122.335 13.4475 122.326 13.454 122.319C13.4606 122.312 13.4691 122.308 13.4785 122.306Z" fill="#37474F"/>
<path d="M15.2613 120.404C15.2378 120.403 15.2146 120.398 15.1932 120.388C15.1718 120.379 15.1525 120.365 15.1367 120.347C15.1209 120.33 15.1088 120.309 15.1011 120.287C15.0935 120.265 15.0905 120.241 15.0923 120.218L18.3797 63.5864C18.3366 63.3378 17.4087 60.1763 17.3259 58.5591C17.2364 56.8525 19.0027 50.1948 19.079 49.9131C19.0921 49.868 19.1222 49.8296 19.163 49.8062C19.2038 49.7827 19.252 49.7759 19.2977 49.7872C19.3426 49.7996 19.3809 49.8291 19.4044 49.8693C19.4279 49.9095 19.4348 49.9574 19.4236 50.0026C19.4037 50.0722 17.5976 56.8889 17.6805 58.5426C17.7633 60.1962 18.7277 63.5135 18.7343 63.5466C18.7409 63.5797 15.4204 120.215 15.4204 120.215C15.4241 120.261 15.4094 120.306 15.3797 120.342C15.3499 120.377 15.3074 120.399 15.2613 120.404Z" fill="#37474F"/>
<path d="M34.8763 15.3092C34.8763 15.3092 31.9501 13.2645 28.3909 15.8029C24.1623 18.8252 24.0629 30.7752 23.7017 31.8059C23.3405 32.8365 22.86 33.0353 22.5982 33.9632C22.3364 34.8911 23.0522 35.597 23.1085 35.9516C23.1649 36.3062 22.0315 37.9234 22.0315 37.9234C22.0315 37.9234 27.0786 39.8686 30.4124 39.5803C33.7462 39.292 37.6566 37.4694 37.6566 37.4694C37.6566 37.4694 37.0336 36.3393 37.0866 35.8455C37.1397 35.3518 37.7958 34.7519 37.8488 33.8572C37.9019 32.9624 36.6592 31.7064 36.5763 31.206C36.4935 30.7056 38.1869 21.8376 37.7527 18.6131C37.3186 15.3887 34.8763 15.3092 34.8763 15.3092Z" fill="#263238"/>
<path d="M37.8357 37.2374C37.5808 36.8717 37.3779 36.4724 37.2326 36.051C37.1977 35.9441 37.1897 35.8303 37.2094 35.7196C37.4513 35.017 38.1539 34.447 38.1174 33.6583C38.0246 33.0486 37.501 32.4951 37.163 32.0014C36.9311 31.7277 36.7797 31.395 36.7256 31.0403C36.7256 30.9111 36.7455 30.8083 36.7587 30.6924C37.2923 26.9907 37.9849 23.2592 37.7827 19.5046C37.7623 18.6113 37.5629 17.7312 37.1962 16.9164C37.6113 17.7065 37.8573 18.5744 37.9186 19.4648C38.2666 23.2294 37.5872 26.9973 37.0106 30.7023C37.0106 30.8083 36.9774 30.9243 36.9741 31.0171C37.0316 31.3193 37.1625 31.6026 37.3552 31.8423C37.7065 32.3924 38.2202 32.9491 38.2997 33.6285C38.3229 34.4669 37.6005 35.017 37.3055 35.7262C37.2791 35.8272 37.2791 35.9334 37.3055 36.0344C37.4298 36.4565 37.608 36.8608 37.8357 37.2374Z" fill="#263238"/>
<path d="M21.8096 37.4231C22.0714 36.989 22.4393 36.429 22.6646 36.0048V35.9882C22.6349 35.9136 22.5971 35.8425 22.5519 35.7761C22.1467 35.2329 21.9717 34.5519 22.0648 33.8806C22.204 33.0885 22.827 32.4755 23.1683 31.7994C23.3714 31.3343 23.4763 30.8323 23.4765 30.3247C23.841 25.9537 24.5933 18.5636 28.2916 15.7435C28.714 15.4299 29.187 15.1911 29.6901 15.0376C29.2013 15.2187 28.7448 15.4772 28.338 15.8031C24.8253 18.7359 24.1592 25.9868 23.7251 30.338C23.7207 30.877 23.5985 31.4086 23.3671 31.8955C22.9894 32.6047 22.3929 33.1217 22.2238 33.9071C22.1311 34.4093 22.2118 34.9281 22.4525 35.3785C22.5354 35.5574 22.6414 35.7099 22.7276 35.9021C22.7415 35.9321 22.7483 35.965 22.7474 35.9982C22.4577 36.4872 22.1424 36.9606 21.803 37.4165L21.8096 37.4231Z" fill="#263238"/>
<path d="M32.4971 34.6326C36.4207 41.3897 41.2591 48.6173 44.4471 49.1409C46.9292 49.5518 53.0633 48.561 59.1874 45.933C60.3539 45.4326 55.1742 36.8993 54.3126 37.1279C52.0194 37.7377 45.481 39.9249 45.1496 39.6498C44.6989 39.2886 39.4198 34.5563 35.7778 31.5606C30.8567 27.5275 30.4689 31.1364 32.4971 34.6326Z" fill="#EB9481"/>
<path d="M57.6464 46.5827C58.7168 46.4335 63.5452 45.3167 64.8211 44.7037C66.0969 44.0906 69.6362 42.0525 69.2684 41.0418C68.9005 40.031 67.8135 40.5281 67.8135 40.5281C67.8135 40.5281 69.1756 39.4345 68.7083 38.4403C68.241 37.4462 66.5808 38.2912 66.5808 38.2912C66.5808 38.2912 67.9063 37.0684 67.3629 36.1073C66.8194 35.1463 65.2983 36.2797 65.2983 36.2797C65.2983 36.2797 66.5543 35.2159 65.7788 34.6227C64.8476 33.8936 62.7565 36.114 61.2984 36.684C60.967 36.8165 54.4021 38.8314 54.4021 38.8314L57.6464 46.5827Z" fill="#EB9481"/>
<path d="M65.4308 36.1836C63.8898 37.814 62.9354 38.2614 60.7913 38.8082C60.7515 38.8082 60.7548 38.8811 60.7913 38.8745C62.9354 38.5431 64.2146 38.1454 65.5004 36.2565C65.5766 36.1637 65.507 36.1073 65.4308 36.1836Z" fill="#263238"/>
<path d="M66.6901 38.1586C64.9404 39.7129 63.9064 40.2066 61.7193 40.9423C61.6894 40.9423 61.7193 41.0053 61.7358 40.9987C63.9528 40.4552 65.2188 40.0409 66.763 38.2614C66.836 38.1785 66.7829 38.089 66.6901 38.1586Z" fill="#263238"/>
<path d="M67.7008 40.5612C65.9013 41.9431 64.7912 42.533 62.5642 42.9738C62.5552 42.9763 62.5473 42.9818 62.5416 42.9892C62.536 42.9967 62.533 43.0058 62.533 43.0152C62.533 43.0245 62.536 43.0337 62.5416 43.0411C62.5473 43.0486 62.5552 43.054 62.5642 43.0566C64.884 42.828 66.2692 42.1022 67.7273 40.6209C67.8367 40.5215 67.8135 40.4751 67.7008 40.5612Z" fill="#263238"/>
<path d="M52.9043 38.467C52.9043 38.467 54.6474 36.26 55.625 35.4613C56.6026 34.6627 61.3515 33.0256 61.7624 34.0297C62.296 35.3287 59.7409 36.8134 58.3955 37.3768C58.3955 37.3768 59.6283 40.3759 58.0243 41.8373C56.4204 43.2987 52.9043 38.467 52.9043 38.467Z" fill="#EB9481"/>
<path d="M61.792 34.4241C61.4241 35.9584 59.6081 36.5848 58.3455 37.2277C58.3264 37.2361 58.3096 37.2491 58.2967 37.2655C58.2837 37.2818 58.2748 37.3011 58.2709 37.3216C58.267 37.3421 58.2681 37.3633 58.2742 37.3833C58.2803 37.4033 58.2911 37.4215 58.3057 37.4364C58.7399 38.7289 58.9685 40.6774 58.1135 41.834C58.109 41.8407 58.1071 41.8488 58.1082 41.8569C58.1093 41.8649 58.1132 41.8722 58.1193 41.8775C58.1255 41.8828 58.1333 41.8857 58.1414 41.8856C58.1495 41.8855 58.1572 41.8825 58.1632 41.8771C59.2535 40.7636 59.1773 38.8283 58.6139 37.4464C59.9395 36.8035 61.7125 36.0976 61.8086 34.4274L61.792 34.4241Z" fill="#263238"/>
<path d="M52.3871 37.3833L57.1525 47.5769C57.1525 47.5769 47.0716 50.4932 43.8107 49.2936C40.5498 48.0939 34.545 39.5738 32.0429 34.0329C29.468 28.3628 33.1432 29.062 35.6883 31.3321C38.2334 33.6021 45.0368 39.3452 45.2589 39.3949C45.4809 39.4446 52.3871 37.3833 52.3871 37.3833Z" fill="#455A64"/>
<path d="M52.2944 42.8812C51.9829 42.1787 51.6681 41.4783 51.35 40.7802C51.0186 40.0843 50.7336 39.3684 50.3558 38.6957C50.3392 38.6659 50.2862 38.6957 50.2962 38.7156C50.5281 39.4182 50.8396 40.1008 51.1213 40.7835C51.403 41.4662 51.7245 42.2317 52.0293 42.9541C52.6325 44.3824 53.2919 45.7842 53.9746 47.1794C53.9912 47.2125 54.0376 47.1794 54.0243 47.1529C53.4875 45.7146 52.9208 44.2896 52.2944 42.8812Z" fill="#263238"/>
<path opacity="0.1" d="M32.043 34.033C34.5616 39.5739 40.5531 48.0906 43.8107 49.277C44.5696 49.5554 45.6997 49.6084 46.9855 49.5322L32.8118 29.695C31.2973 29.3935 30.4026 30.4274 32.043 34.033Z" fill="black"/>
<path d="M37.3586 45.2175L38.0048 50.9274C38.0048 50.9274 37.226 50.8909 34.6511 50.7484L34.0446 48.6739L32.8483 50.6623L16.5703 49.3864L19.0657 44.9159C21.0275 40.5879 23.5163 34.0595 26.7904 30.9411C29.3919 28.4623 32.2319 28.8467 33.9286 30.8086C34.3561 31.3056 38.5416 38.3245 38.9393 41.1347C39.2839 43.6235 37.3586 45.2175 37.3586 45.2175Z" fill="#455A64"/>
<path d="M30.704 43.6565C31.7238 43.7681 32.7332 43.9598 33.723 44.2298C34.2134 44.3756 34.694 44.5413 35.1745 44.7202C35.4164 44.8097 35.655 44.8892 35.8969 44.9688C36.1484 45.0576 36.41 45.1144 36.6757 45.1378C36.6989 45.1378 36.6989 45.1742 36.6757 45.1776C36.4247 45.1864 36.1734 45.1786 35.9234 45.1544C35.6824 45.1203 35.4442 45.0682 35.2109 44.9986C34.7138 44.8594 34.2167 44.6937 33.7197 44.5479C32.7255 44.2563 31.7114 43.9613 30.6907 43.7493C30.6443 43.7393 30.6576 43.6532 30.704 43.6565Z" fill="#263238"/>
<path d="M28.1824 44.6209C29.0213 44.5348 29.8645 44.4983 30.7076 44.5116C31.1285 44.5116 31.546 44.558 31.9669 44.6077C32.1657 44.6309 32.3679 44.6574 32.5667 44.6872C32.7656 44.717 33.0008 44.7866 33.2295 44.8164C33.2494 44.8164 33.2494 44.8562 33.2295 44.8562C33.0207 44.833 32.8086 44.8562 32.5999 44.8562L31.9702 44.833C31.5527 44.8164 31.1318 44.8065 30.7109 44.7866C29.8692 44.7469 29.0308 44.717 28.189 44.7104C28.1327 44.6971 28.1393 44.6276 28.1824 44.6209Z" fill="#263238"/>
<path d="M32.7954 32.4785C33.7001 34.4868 34.5584 36.5149 35.2709 38.5993C36.106 41.0384 36.6694 42.9074 34.1044 44.4849L34.1442 44.4186C34.1442 45.1278 34.1442 45.8336 34.1077 46.5428C34.0713 47.252 34.068 47.9578 34.0448 48.667C34.0282 47.9578 34.005 47.2487 34.0017 46.5428C33.9984 45.8369 34.0017 45.0979 34.0017 44.3755L34.0414 44.3523C36.5103 42.808 35.9271 40.992 35.145 38.6457C34.4457 36.5613 33.6405 34.5133 32.8054 32.4785H32.7954Z" fill="#263238"/>
<path d="M33.9288 35.7728C33.9271 35.8431 33.8982 35.9101 33.8481 35.9595C33.7981 36.009 33.7308 36.0371 33.6604 36.0379C33.6253 36.0379 33.5906 36.0309 33.5582 36.0174C33.5258 36.0039 33.4964 35.9841 33.4718 35.9591C33.4471 35.9341 33.4276 35.9045 33.4145 35.8719C33.4014 35.8394 33.3948 35.8046 33.3953 35.7695C33.3948 35.7342 33.4015 35.6993 33.4149 35.6667C33.4282 35.6341 33.448 35.6046 33.4731 35.5798C33.4982 35.5551 33.528 35.5356 33.5607 35.5226C33.5935 35.5097 33.6285 35.5035 33.6637 35.5044C33.6988 35.5044 33.7336 35.5113 33.7659 35.5249C33.7983 35.5384 33.8277 35.5582 33.8524 35.5832C33.877 35.6081 33.8965 35.6378 33.9096 35.6703C33.9227 35.7029 33.9293 35.7377 33.9288 35.7728Z" fill="#263238"/>
<path d="M34.6244 38.7849C34.624 38.8198 34.6167 38.8542 34.603 38.8862C34.5893 38.9182 34.5694 38.9471 34.5445 38.9714C34.5195 38.9958 34.4901 39.0149 34.4577 39.0278C34.4254 39.0408 34.3908 39.0472 34.356 39.0467C34.3208 39.0472 34.2858 39.0405 34.2533 39.0272C34.2207 39.0138 34.1911 38.994 34.1663 38.9689C34.1416 38.9439 34.1222 38.9141 34.1092 38.8813C34.0962 38.8486 34.09 38.8135 34.0909 38.7783C34.0909 38.7432 34.0979 38.7085 34.1114 38.6761C34.1249 38.6437 34.1448 38.6143 34.1697 38.5897C34.1947 38.565 34.2243 38.5456 34.2569 38.5324C34.2894 38.5193 34.3242 38.5128 34.3593 38.5132C34.4302 38.5149 34.4977 38.5443 34.5472 38.5951C34.5967 38.6459 34.6245 38.714 34.6244 38.7849Z" fill="#263238"/>
<path d="M35.241 41.539C35.241 41.5922 35.2251 41.6442 35.1955 41.6884C35.1658 41.7326 35.1237 41.767 35.0745 41.7873C35.0252 41.8075 34.9711 41.8126 34.9189 41.802C34.8668 41.7913 34.819 41.7654 34.7815 41.7276C34.7441 41.6897 34.7188 41.6416 34.7089 41.5893C34.6989 41.537 34.7047 41.4829 34.7255 41.4339C34.7463 41.3849 34.7812 41.3432 34.8258 41.3141C34.8704 41.2851 34.9226 41.2699 34.9758 41.2705C35.0109 41.2705 35.0457 41.2775 35.0781 41.291C35.1105 41.3045 35.1398 41.3244 35.1645 41.3493C35.1891 41.3743 35.2086 41.4039 35.2217 41.4365C35.2349 41.469 35.2414 41.5039 35.241 41.539Z" fill="#263238"/>
<path d="M33.5508 44.0078C33.555 44.0453 33.5512 44.0833 33.5397 44.1192C33.5282 44.1552 33.5093 44.1884 33.4841 44.2165C33.4589 44.2446 33.4281 44.2672 33.3936 44.2826C33.3592 44.298 33.3218 44.306 33.2841 44.306C33.2463 44.306 33.209 44.298 33.1745 44.2826C33.14 44.2672 33.1092 44.2446 33.084 44.2165C33.0588 44.1884 33.0399 44.1552 33.0284 44.1192C33.0169 44.0833 33.0131 44.0453 33.0173 44.0078C33.0168 43.9725 33.0235 43.9376 33.0369 43.905C33.0502 43.8724 33.07 43.8428 33.0951 43.8181C33.1202 43.7933 33.15 43.7739 33.1827 43.7609C33.2155 43.748 33.2505 43.7417 33.2857 43.7426C33.356 43.7426 33.4235 43.7706 33.4732 43.8203C33.5229 43.87 33.5508 43.9374 33.5508 44.0078Z" fill="#263238"/>
<path d="M33.4215 46.7518C33.4211 46.7871 33.4137 46.8219 33.3998 46.8543C33.3859 46.8867 33.3658 46.9161 33.3405 46.9407C33.3153 46.9653 33.2855 46.9847 33.2527 46.9978C33.22 47.0109 33.185 47.0174 33.1498 47.017C33.1149 47.0165 33.0806 47.0092 33.0486 46.9955C33.0166 46.9818 32.9876 46.9619 32.9633 46.937C32.9389 46.9121 32.9198 46.8826 32.9069 46.8502C32.8939 46.8179 32.8875 46.7834 32.888 46.7485C32.8953 46.6829 32.9265 46.6223 32.9758 46.5783C33.025 46.5342 33.0887 46.5099 33.1547 46.5099C33.2208 46.5099 33.2845 46.5342 33.3337 46.5783C33.3829 46.6223 33.4142 46.6829 33.4215 46.7485V46.7518Z" fill="#263238"/>
<path d="M29.8657 30.0064C29.9055 30.3775 31.3305 32.9094 32.9775 33.032C33.5144 33.0718 33.859 30.1555 33.859 30.1555L33.9319 29.9467L34.9758 27.0106L31.7116 24.3064L31.2344 23.9419C31.2344 23.9419 31.0024 24.7637 30.724 25.7877L30.6843 25.9336C30.6843 25.9932 30.6478 26.0462 30.6346 26.1026C30.5915 26.255 30.5484 26.4108 30.5086 26.5665C30.4689 26.7223 30.4457 26.8018 30.4158 26.9277L30.3264 27.3022C30.1091 28.1916 29.9551 29.0952 29.8657 30.0064Z" fill="#EB9481"/>
<path d="M30.7241 25.7877C30.925 26.6722 31.316 27.5024 31.87 28.2206C32.4239 28.9388 33.1275 29.5278 33.932 29.9467L34.9759 27.0106L31.7117 24.3064L31.2345 23.9419C31.2345 23.9419 31.0025 24.7637 30.7241 25.7877Z" fill="#263238"/>
<path d="M39.1646 21.3272C40.3941 26.6527 37.3419 27.9882 36.1821 28.2533C35.1415 28.4919 31.5591 29.1712 29.7895 24.0015C28.0199 18.8318 30.1209 16.5783 32.4638 15.9056C34.8068 15.2329 37.9384 16.0017 39.1646 21.3272Z" fill="#EB9481"/>
<path d="M38.2335 21.0554C38.1073 21.0571 37.9811 21.0504 37.8558 21.0355C37.7218 21.0492 37.5873 21.0165 37.4746 20.9427C37.4438 20.9135 37.4235 20.8749 37.4169 20.833C37.4103 20.791 37.4178 20.748 37.4382 20.7108C37.4902 20.6427 37.5593 20.5897 37.6385 20.5571C37.7176 20.5245 37.8041 20.5135 37.8889 20.5252C38.065 20.5238 38.2357 20.5861 38.3694 20.7008C38.3974 20.7294 38.4167 20.7654 38.4248 20.8045C38.4329 20.8437 38.4297 20.8844 38.4153 20.9217C38.401 20.9591 38.3763 20.9916 38.3441 21.0153C38.3118 21.039 38.2735 21.0529 38.2335 21.0554Z" fill="#263238"/>
<path d="M34.6047 21.4996C34.7241 21.4618 34.8414 21.4176 34.956 21.3671C35.0865 21.3361 35.203 21.2626 35.2874 21.1583C35.308 21.1208 35.3153 21.0775 35.308 21.0354C35.3008 20.9932 35.2795 20.9548 35.2476 20.9263C35.1779 20.8769 35.096 20.8474 35.0107 20.8409C34.9255 20.8345 34.8401 20.8514 34.7638 20.8899C34.5928 20.9453 34.4494 21.0638 34.3628 21.2213C34.3479 21.2567 34.3432 21.2955 34.3493 21.3334C34.3553 21.3713 34.3719 21.4068 34.3971 21.4358C34.4222 21.4648 34.4551 21.4861 34.4918 21.4974C34.5285 21.5087 34.5676 21.5095 34.6047 21.4996Z" fill="#263238"/>
<path d="M35.5625 22.4076C35.5625 22.4076 35.5393 22.4275 35.5393 22.444C35.6188 22.8086 35.6487 23.2394 35.3372 23.4183C35.3372 23.4183 35.3372 23.4449 35.3372 23.4382C35.7381 23.309 35.6951 22.739 35.5625 22.4076Z" fill="#263238"/>
<path d="M35.168 22.0828C34.5682 22.1457 34.7372 23.3354 35.2906 23.2758C35.8441 23.2161 35.6684 22.0298 35.168 22.0828Z" fill="#263238"/>
<path d="M34.9429 22.179C34.8468 22.2618 34.7639 22.3944 34.638 22.4242C34.5121 22.454 34.3696 22.3513 34.2569 22.2453C34.2569 22.2453 34.237 22.2453 34.2569 22.2453C34.2834 22.4739 34.406 22.6926 34.6546 22.6926C34.9031 22.6926 35.0125 22.4673 35.039 22.232C35.0257 22.2055 34.9793 22.1624 34.9429 22.179Z" fill="#263238"/>
<path d="M37.584 21.9404C37.584 21.9404 37.6172 21.9404 37.6172 21.9703C37.6569 22.3414 37.7597 22.759 38.1109 22.8352V22.8584C37.6967 22.8551 37.5608 22.2983 37.584 21.9404Z" fill="#263238"/>
<path d="M37.8591 21.4997C38.4457 21.3738 38.6511 22.5569 38.1076 22.6729C37.5642 22.7888 37.3719 21.6157 37.8591 21.4997Z" fill="#263238"/>
<path d="M38.1241 21.5459C38.2268 21.5923 38.3395 21.6917 38.4555 21.6785C38.5714 21.6652 38.6609 21.5194 38.7206 21.3835C38.7206 21.3835 38.7405 21.3835 38.7438 21.3835C38.7868 21.6089 38.7438 21.8574 38.5449 21.937C38.3461 22.0165 38.1738 21.8442 38.081 21.6288C38.0611 21.5956 38.081 21.5294 38.1241 21.5459Z" fill="#263238"/>
<path d="M35.9933 25.5194C36.0894 25.599 36.1888 25.7083 36.3247 25.7083C36.4616 25.6909 36.5935 25.6458 36.7124 25.5758C36.7124 25.5758 36.7389 25.5758 36.7323 25.5758C36.6864 25.6539 36.6204 25.7182 36.5411 25.762C36.4618 25.8057 36.3721 25.8272 36.2816 25.8243C36.2026 25.8128 36.1289 25.7779 36.0698 25.7241C36.0108 25.6704 35.9691 25.6003 35.9502 25.5228C35.9502 25.5194 35.9767 25.5095 35.9933 25.5194Z" fill="#263238"/>
<path d="M37.3256 23.9552C37.3256 23.9552 37.4846 24.4921 37.5244 24.7506C37.5244 24.7738 37.4681 24.797 37.3819 24.8135C37.1655 24.8888 36.9325 24.903 36.7086 24.8545C36.4847 24.8059 36.2785 24.6966 36.1127 24.5385C36.1069 24.5341 36.1032 24.5276 36.1023 24.5205C36.1013 24.5133 36.1033 24.5061 36.1077 24.5004C36.1121 24.4947 36.1186 24.4909 36.1257 24.49C36.1329 24.4891 36.1401 24.491 36.1458 24.4954C36.5115 24.671 36.9243 24.7234 37.3222 24.6445C37.3222 24.5716 37.0174 23.7332 37.0571 23.7233C37.2614 23.7107 37.4664 23.7252 37.6669 23.7663C37.3653 22.6363 36.8848 21.5659 36.5998 20.4524C36.5998 20.4127 36.6495 20.3895 36.6661 20.4259C37.2164 21.5593 37.6516 22.7449 37.9651 23.9652C37.9983 24.0944 37.4349 23.9818 37.3256 23.9552Z" fill="#263238"/>
<path d="M37.3419 24.7241C37.2293 24.9572 37.0594 25.1578 36.8482 25.3074C36.7304 25.3851 36.5915 25.4245 36.4505 25.42C36.1423 25.42 36.0793 25.1417 36.0826 24.8998C36.0861 24.7722 36.1038 24.6455 36.1357 24.522C36.5065 24.7144 36.9286 24.7852 37.3419 24.7241Z" fill="#263238"/>
<path d="M36.8648 25.3074C36.747 25.3852 36.6081 25.4245 36.4671 25.4201C36.1589 25.4201 36.0959 25.1417 36.0992 24.8998C36.2541 24.8717 36.4139 24.8966 36.5528 24.9706C36.6917 25.0446 36.8017 25.1632 36.8648 25.3074Z" fill="#FF9ABB"/>
<path d="M29.8427 24.2965C30.1803 24.0989 30.4608 23.8169 30.6566 23.4782C30.8524 23.1395 30.9567 22.7557 30.9595 22.3645C31.8812 21.8707 32.6554 21.1411 33.203 20.2502C33.1765 20.3662 32.9743 21.198 32.8716 21.6222C36.2882 20.7009 37.1532 17.9768 37.1532 17.9768C37.864 18.5348 38.4395 19.2463 38.8366 20.058C38.8366 20.058 38.6942 17.9271 37.4912 16.5916C37.0991 16.1213 36.5888 15.7641 36.0127 15.5567C35.4366 15.3493 34.8156 15.2993 34.2137 15.4119C33.3414 15.2717 32.4474 15.3692 31.6258 15.694C30.8041 16.0188 30.0851 16.559 29.5444 17.2577C27.4732 19.889 29.8427 24.2965 29.8427 24.2965Z" fill="#263238"/>
<path d="M35.4499 20.8368C34.917 21.1851 34.3351 21.452 33.7234 21.6288C33.7234 21.6288 33.7234 21.6288 33.7234 21.6288C34.6772 21.2858 35.5162 20.6832 36.1459 19.889C36.4142 19.5518 36.637 19.1808 36.8087 18.7855C37.0173 18.3621 37.139 17.9012 37.1666 17.4301C37.1666 17.423 37.1693 17.4163 37.1743 17.4113C37.1793 17.4064 37.186 17.4036 37.1931 17.4036C37.2001 17.4036 37.2068 17.4064 37.2118 17.4113C37.2168 17.4163 37.2196 17.423 37.2196 17.4301C37.2427 17.8979 37.1867 18.3662 37.0539 18.8153C36.902 19.2567 36.6706 19.6667 36.3712 20.0249C36.1038 20.3394 35.7937 20.6149 35.4499 20.8434" fill="#263238"/>
<path d="M30.7407 24.217C30.7407 24.217 29.3191 22.6926 28.6132 23.2228C27.9073 23.7531 29.1401 26.0761 30.0846 26.2849C30.2042 26.3199 30.3298 26.3304 30.4536 26.3158C30.5774 26.3012 30.697 26.2618 30.8053 26.1999C30.9136 26.1381 31.0083 26.055 31.0837 25.9557C31.1592 25.8565 31.2138 25.743 31.2444 25.6221L30.7407 24.217Z" fill="#EB9481"/>
<path d="M28.9844 23.8792V23.9057C29.6472 24.0714 30.068 24.6115 30.3862 25.1848C30.3407 25.1268 30.2832 25.0792 30.2175 25.0455C30.1519 25.0118 30.0798 24.9927 30.0061 24.9895C29.9324 24.9864 29.8589 24.9992 29.7906 25.0272C29.7223 25.0552 29.661 25.0977 29.6107 25.1517C29.6107 25.1517 29.6107 25.1915 29.6306 25.1848C29.7384 25.1305 29.8607 25.1119 29.9798 25.1315C30.0989 25.1512 30.2087 25.2081 30.2934 25.2942C30.4301 25.4338 30.5523 25.5871 30.6579 25.7515C30.6977 25.8046 30.7938 25.7515 30.764 25.6985C30.6413 24.8767 29.8593 23.8394 28.9844 23.8792Z" fill="#263238"/>
<path d="M33.942 29.9566L32.8617 32.399L29.8791 29.1547L28.9844 30.1157C28.9844 30.1157 31.8211 35.2026 31.8476 34.9772L32.9445 32.8795L34.3629 34.4172V30.6824L33.942 29.9566Z" fill="#EBEBEB"/>
<path d="M34.4754 32.5848C34.4555 31.9684 34.4555 31.3454 34.4091 30.7323C34.4091 30.7091 34.3727 30.6991 34.366 30.7323C34.2235 31.3222 34.3064 33.6784 34.2832 34.2417C34.2235 34.1754 32.9576 32.8863 32.9576 32.9162C32.7223 33.2475 31.917 34.7753 31.864 34.9045C31.4133 34.0959 29.5045 30.9079 28.9677 30.1391C28.9677 30.1159 28.9179 30.1391 28.9312 30.159C29.3189 31.0073 31.7845 35.216 31.8243 35.2061C31.864 35.1961 32.8449 33.3437 32.9709 32.9857C33.183 33.2674 34.4489 34.7156 34.4555 34.6228C34.4974 33.9443 34.504 33.264 34.4754 32.5848Z" fill="#263238"/>
<path d="M72.1084 8.7974C72.0962 7.28228 72.313 5.774 72.7513 4.32361C72.7651 5.83885 72.5483 7.34736 72.1084 8.7974Z" fill="#263238"/>
<path d="M61.464 9.99047C60.6942 8.68503 60.1266 7.27051 59.7805 5.79504C60.549 7.10115 61.1165 8.51546 61.464 9.99047Z" fill="#263238"/>
<path d="M52.8378 16.3464C51.5187 15.5967 50.32 14.6527 49.282 13.5461C50.6019 14.2919 51.8009 15.2338 52.8378 16.3398V16.3464Z" fill="#263238"/>
<path d="M48.5463 26.1624C47.0315 26.174 45.5234 25.9584 44.0725 25.5228C45.5875 25.5095 47.0957 25.7252 48.5463 26.1624Z" fill="#263238"/>
<path d="M49.7394 36.8101C48.4328 37.5769 47.0186 38.1433 45.5439 38.4902C46.8492 37.7209 48.2639 37.1544 49.7394 36.8101Z" fill="#263238"/>
<path d="M85.1819 42.1785C86.5005 42.9261 87.6992 43.8679 88.7377 44.9721C87.4193 44.2242 86.2206 43.2825 85.1819 42.1785Z" fill="#263238"/>
<path d="M89.4731 32.3627C90.9882 32.3478 92.4967 32.5634 93.9469 33.0023C92.432 33.0155 90.9237 32.7999 89.4731 32.3627Z" fill="#263238"/>
<path d="M88.2803 21.7151C89.586 20.9458 91.0004 20.3783 92.4757 20.0316C91.1701 20.8011 89.7556 21.3687 88.2803 21.7151Z" fill="#263238"/>
<path d="M81.9341 13.0889C82.6767 11.7706 83.6153 10.5727 84.7178 9.53638C83.9732 10.8534 83.0348 12.051 81.9341 13.0889Z" fill="#263238"/>
<g opacity="0.5">
<path d="M86.4444 33.4861C83.7932 44.2829 74.1497 46.1056 74.1497 46.1056C73.2086 47.6598 71.3362 52.455 71.3362 52.455L59.4293 50.523C59.4293 50.523 59.2934 45.4063 58.8924 43.6334C58.8924 43.6334 50.3127 38.858 51.2141 27.7763C51.8371 20.0747 59.0714 9.71538 71.8167 11.7766L71.9493 11.7998C84.6913 13.8777 88.2836 25.9801 86.4444 33.4861Z" fill="#82DDFF"/>
<path d="M86.4444 33.486C85.0427 39.6234 80.2607 44.6837 74.1829 46.1187C73.0429 48.1335 72.2675 50.4268 71.3462 52.488L59.3929 50.5693C59.3366 48.8261 59.257 47.083 59.0913 45.3498C59.0425 44.778 58.9618 44.2093 58.8494 43.6465L58.8792 43.6863C57.502 42.8301 56.2637 41.7685 55.2074 40.538C51.9498 36.8927 50.5679 31.7992 51.2307 26.9808C52.1685 20.6048 56.6059 14.6828 62.7333 12.4757C65.7755 11.3523 69.1159 11.233 72.2874 11.8129C82.6003 13.4699 88.6416 23.4912 86.4544 33.4794L86.4444 33.486ZM86.4444 33.486C88.6051 23.5442 82.5539 13.5163 72.2609 11.8991C69.1027 11.3225 65.7821 11.4484 62.7598 12.5619C56.6854 14.769 52.2945 20.6611 51.3765 26.9907C50.4718 33.4098 53.3649 40.1304 58.9223 43.5603H58.9488V43.5868C59.0607 44.1553 59.1415 44.7295 59.1907 45.3068C59.3498 47.03 59.4227 48.7599 59.4757 50.4897L59.4327 50.44L71.3296 52.4184C72.1084 50.2472 73.0386 48.1332 74.1133 46.0922C80.254 44.6208 85.0161 39.6134 86.4312 33.4993L86.4444 33.486Z" fill="#263238"/>
</g>
<path d="M62.217 31.579L61.2231 31.6028L61.7126 52.0703L62.7065 52.0466L62.217 31.579Z" fill="#263238"/>
<path d="M74.8071 33.6215L67.8821 52.8882L68.8177 53.2245L75.7427 33.9578L74.8071 33.6215Z" fill="#263238"/>
<path d="M67.7339 39.3252C67.6306 39.3246 67.5276 39.3157 67.4257 39.2987C66.2957 39.1164 65.4373 37.9068 64.9137 36.452C64.759 36.5974 64.5756 36.7087 64.3753 36.7789C64.175 36.8491 63.9622 36.8766 63.7506 36.8597C61.8749 36.5548 61.7622 32.5748 61.7622 32.4057H62.0936C62.0936 32.4455 62.2162 36.283 63.8202 36.5415C64.0059 36.5455 64.1903 36.5103 64.3616 36.4384C64.5329 36.3665 64.6871 36.2593 64.8143 36.124C64.4305 34.9381 64.3095 33.6829 64.4597 32.4455C64.6354 31.3619 65.1424 30.8051 65.8582 30.9211C66.0692 30.9477 66.2687 31.0324 66.4343 31.1658C66.5999 31.2993 66.7252 31.4761 66.7961 31.6767C67.2037 32.7471 66.4647 34.7056 65.5169 35.8655C65.4141 35.9917 65.3034 36.1112 65.1855 36.2234C65.6561 37.6318 66.4547 38.8149 67.4853 38.9839C68.2575 39.1065 69.1423 38.6227 69.9542 37.6185C70.0205 37.5357 70.0901 37.4495 70.1564 37.3601C69.5452 36.2928 69.3315 35.0437 69.5532 33.834C69.7786 32.4422 70.4414 31.6667 71.2831 31.8026C71.447 31.8286 71.6005 31.8998 71.7263 32.0081C71.8522 32.1163 71.9454 32.2575 71.9956 32.4157C72.3966 33.4662 71.7205 35.7097 70.554 37.3866C70.8372 37.7663 71.2565 38.0217 71.7239 38.0991C72.8672 38.2913 74.3153 35.7197 74.776 34.7155L75.0775 34.8547C75.0046 35.0105 73.2947 38.6889 71.6708 38.4271C71.1482 38.3418 70.6758 38.0655 70.3453 37.6517C70.2989 37.718 70.2458 37.7809 70.1961 37.8439C69.6261 38.5266 68.7513 39.3252 67.7339 39.3252ZM71.0942 32.1042C70.4082 32.1042 70.0072 33.0354 69.8747 33.8738C69.6826 34.9627 69.844 36.0845 70.3353 37.0751C71.3858 35.5208 72.0188 33.4596 71.6609 32.535C71.6303 32.4311 71.5713 32.3379 71.4904 32.2659C71.4096 32.1938 71.3102 32.1459 71.2036 32.1274L71.0942 32.1042ZM65.6693 31.226C65.0728 31.226 64.8541 32.0014 64.7746 32.4853C64.6387 33.6148 64.7392 34.7602 65.0695 35.8489C65.1292 35.7826 65.1888 35.7163 65.2485 35.6434C66.1167 34.5764 66.8325 32.7305 66.4746 31.7827C66.4249 31.6359 66.3342 31.5064 66.2132 31.4095C66.0922 31.3126 65.946 31.2524 65.7919 31.2359L65.6693 31.226Z" fill="#263238"/>
<path d="M73.3562 52.7754L57.5493 50.2152L56.1405 58.9136L71.9474 61.4737L73.3562 52.7754Z" fill="#C7C7C7"/>
<path d="M70.1498 61.1903C68.9502 62.6849 66.9287 63.8713 63.522 63.3212C60.1152 62.7711 58.5776 61.0015 57.9148 59.2086L70.1498 61.1903Z" fill="#C7C7C7"/>
<path d="M70.1499 61.1903C69.7935 61.6376 69.3751 62.0315 68.9071 62.3602L58.1601 59.762C58.0719 59.5819 57.9933 59.3972 57.9248 59.2086L70.1499 61.1903Z" fill="#A6A6A6"/>
<path d="M73.5433 54.5162L56.5627 53.3497L56.6854 52.5908L73.6659 53.7573L73.5433 54.5162Z" fill="#A6A6A6"/>
<path d="M73.1721 56.8128L56.1882 55.6463L56.3108 54.8875L73.2947 56.0506L73.1721 56.8128Z" fill="#A6A6A6"/>
<path d="M72.7977 59.1062L55.8171 57.943L55.9398 57.1841L72.9236 58.3473L72.7977 59.1062Z" fill="#A6A6A6"/>
<g opacity="0.7">
<path d="M55.0913 24.6246C55.6547 24.8135 56.8874 21.9469 60.6653 18.9909C62.3455 17.6852 68.0753 16.6414 67.9559 14.8021C67.8366 12.9629 62.7233 14.0068 59.8335 16.4293C55.2073 20.343 54.5776 24.449 55.0913 24.6246Z" fill="white"/>
<path d="M83.7701 31.0538C84.8372 31.2261 85.0957 29.5691 84.0386 29.3968C82.9814 29.2245 82.7031 30.8815 83.7701 31.0538Z" fill="white"/>
<path d="M76.5356 43.0402C77.046 43.5804 80.3002 41.4297 82.0798 38.52C83.5578 36.1075 84.267 32.8665 83.5876 32.555C82.9083 32.2435 81.7186 36.6609 80.6051 38.1886C79.1768 40.0908 75.9921 42.4669 76.5356 43.0402Z" fill="white"/>
</g>
<path d="M26.8104 36.5616C28.7988 45.2208 34.0381 55.9745 37.1001 56.1866C40.5102 56.4252 37.8988 44.5879 37.4315 44.3261C37.1001 44.1372 33.4747 39.9882 29.7598 34.8781C26.0449 29.768 26.3199 34.4241 26.8104 36.5616Z" fill="#EB9481"/>
<path d="M37.4844 44.2827C36.8979 43.5967 31.9469 36.959 29.7398 34.1454C27.5327 31.3319 25.8227 31.8787 26.5916 36.4122C27.3604 40.9456 30.1739 49.5618 33.8822 53.9329C37.4513 58.1449 39.2441 56.2725 39.1182 51.9445C39.0221 48.392 37.4844 44.2827 37.4844 44.2827Z" fill="#455A64"/>
<path d="M38.3594 45.4692C37.6502 44.581 36.951 43.683 36.2584 42.7849C35.5658 41.8868 34.8798 40.9755 34.1905 40.0708L32.1524 37.3335L31.1582 35.9582C30.8268 35.4976 30.4955 35.0369 30.1641 34.573C30.522 35.0171 30.8699 35.4644 31.2245 35.8986L32.2684 37.2473L34.3363 39.9581C34.9991 40.8728 35.6983 41.7808 36.371 42.6954C37.0438 43.6101 37.7032 44.5413 38.3594 45.4692Z" fill="#263238"/>
<path d="M31.7779 36.6541C31.6179 36.4005 31.4761 36.1358 31.3537 35.8621C31.2919 35.7295 31.2322 35.5936 31.1748 35.4544C31.1185 35.3153 31.0688 35.1761 31.019 35.0336C31.1947 35.277 31.3446 35.538 31.4664 35.8123C31.5932 36.0839 31.6974 36.3654 31.7779 36.6541Z" fill="#263238"/>
<path d="M37.0934 56.17C39.6385 56.17 42.0643 53.5387 49.3119 46.5331C50.306 45.5654 45.4213 36.303 44.2979 37.2839C42.8795 38.5167 37.6502 43.6135 37.3155 44.0344C34.4854 47.5869 35.3702 56.17 37.0934 56.17Z" fill="#EB9481"/>
<path d="M42.2102 39.9484C42.2102 39.9484 44.1986 36.7041 45.6202 34.6461C46.4056 33.4962 47.94 31.6636 48.8944 31.0671C50.3359 30.1988 56.9141 27.4914 57.6067 29.0787C58.233 30.5103 52.2812 32.1209 52.2812 32.1209C52.2812 32.1209 58.1435 29.9669 58.5777 31.8293C59.0118 33.6917 52.0526 34.613 52.0526 34.613C52.0526 34.613 58.1203 32.5352 58.2662 34.5268C58.3788 36.0313 52.1188 37.2244 52.1188 37.2244C52.1188 37.2244 57.3482 35.4746 57.5272 37.0189C57.726 38.7222 52.0161 40.1837 52.0161 40.1837C51.814 44.1836 50.0841 46.0063 48.7022 47.1429C48.3608 47.4246 42.2102 39.9484 42.2102 39.9484Z" fill="#EB9481"/>
<path d="M50.2067 32.7273C50.886 32.4523 51.572 32.164 52.2746 31.9486C52.9771 31.7332 53.6863 31.5376 54.4054 31.3885C55.3394 31.1684 56.2958 31.0572 57.2554 31.0571C55.552 31.1764 53.0301 31.9121 52.3276 32.1308C51.625 32.3496 50.9159 32.5252 50.2166 32.7439C50.1967 32.7671 50.1934 32.734 50.2067 32.7273Z" fill="#263238"/>
<path d="M50.9424 35.2755C51.8273 34.9441 52.6922 34.6127 53.5936 34.331C54.495 34.0494 55.3599 33.8704 56.2679 33.6683C56.3375 33.6517 56.3242 33.6948 56.2679 33.7147C55.3665 33.9665 54.5546 34.2681 53.6565 34.5299C52.7585 34.7917 51.8538 35.017 50.9689 35.312C50.9358 35.302 50.9292 35.2821 50.9424 35.2755Z" fill="#263238"/>
<path d="M51.181 37.5753C52.5241 37.0573 53.9165 36.6775 55.3367 36.4419C55.4063 36.4419 55.3831 36.4817 55.3101 36.5015C53.9216 36.8528 52.8313 37.1179 51.2009 37.6217C51.1777 37.6283 51.1545 37.5885 51.181 37.5753Z" fill="#263238"/>
<path d="M43.297 37.9299L46.2497 50.5626C46.2497 50.5626 39.6219 56.4912 37.037 56.2659C35.3403 56.1134 34.1639 47.3812 37.5871 43.6928L43.297 37.9299Z" fill="#455A64"/>
<path d="M35.473 49.4659C35.4437 47.3447 36.1949 45.2866 37.584 43.6831C37.6005 43.6666 37.637 43.6831 37.6204 43.7097C36.3247 45.4594 35.579 48.5148 35.5128 49.4726C35.5128 49.4958 35.473 49.4925 35.473 49.4659Z" fill="#263238"/>
<path d="M43.569 51.58C43.168 50.208 42.8432 48.8195 42.5218 47.4243C42.2003 46.0291 41.8755 44.6406 41.5872 43.2388C41.4249 42.4468 41.2558 41.6548 41.1233 40.8561C41.1233 40.8362 41.1531 40.8263 41.1597 40.8561C41.5607 42.2248 41.8921 43.6166 42.2202 45.0051C42.5483 46.3937 42.883 47.7921 43.1746 49.1906C43.3469 49.9793 43.506 50.7747 43.6386 51.57C43.6452 51.5998 43.5822 51.623 43.569 51.58Z" fill="#263238"/>
<path d="M43.2011 37.8439C42.7654 38.1901 42.3535 38.5655 41.9683 38.9673C41.5707 39.355 41.1796 39.7527 40.7952 40.1537C40.0264 40.949 38.3031 42.5463 37.1499 44.2066C37.1499 44.2066 37.2924 44.2066 37.3057 44.1734C37.8127 43.3549 42.8764 38.4934 43.231 38.0526C43.2508 38.0924 43.2674 38.1289 43.2906 38.1686C43.3138 38.2084 43.3536 38.1918 43.3536 38.1686C43.3536 38.1454 43.3337 38.0062 43.3304 37.9234C43.3326 37.9074 43.3301 37.8912 43.3233 37.8766C43.3164 37.8621 43.3054 37.8498 43.2917 37.8414C43.278 37.833 43.2622 37.8287 43.2461 37.8291C43.23 37.8296 43.2144 37.8347 43.2011 37.8439Z" fill="#263238"/>
<path d="M26.6313 39.292C28.2883 43.1627 32.9543 55.454 37.0868 56.2792C32.5301 55.5865 27.9503 43.4211 26.6313 39.292Z" fill="#263238"/>
<path d="M26.5684 40.0576C26.9253 40.5273 27.2308 41.0339 27.4797 41.5688C27.0423 41.1588 26.7268 40.6358 26.5684 40.0576Z" fill="#263238"/>
<path d="M48.8513 8.04855C49.5012 7.4187 50.1896 6.82989 50.9126 6.28554C51.6317 5.73543 52.3806 5.22177 53.1462 4.73794C54.6875 3.76845 56.3083 2.93145 57.9911 2.23593C61.3809 0.824366 65.0071 0.0665258 68.6785 0.00234385C72.3511 -0.0451809 75.9972 0.630438 79.409 1.9907C82.7832 3.36051 85.916 5.26255 88.688 7.62437L88.6449 7.6807C85.6929 5.64443 82.4963 3.98771 79.1306 2.74958C78.7197 2.58057 78.2856 2.47784 77.8647 2.33866C77.4438 2.19947 77.0197 2.05698 76.5855 1.96419L75.2898 1.65268C74.859 1.54995 74.4182 1.49361 73.9841 1.41407C72.2349 1.09932 70.4588 0.958348 68.6818 0.993206C65.126 1.05098 61.6056 1.7098 58.2695 2.94179C56.5916 3.55831 54.9602 4.2948 53.3881 5.14555C51.801 5.991 50.2839 6.96175 48.8513 8.04855Z" fill="#455A64"/>
<path d="M85.6094 8.45274L85.5398 7.85954L88.4627 7.52815L87.9192 4.63841L88.5057 4.52905L89.1685 8.04844L85.6094 8.45274Z" fill="#455A64"/>
<path d="M89.1684 60.9652C88.5186 61.5951 87.8302 62.1839 87.1072 62.7282C86.3881 63.2783 85.6391 63.792 84.8736 64.2758C83.3323 65.2453 81.7115 66.0823 80.0287 66.7778C76.6388 68.1894 73.0127 68.9472 69.3413 69.0114C65.6686 69.0589 62.0225 68.3833 58.6108 67.0231C55.236 65.6544 52.103 63.7522 49.3318 61.3894L49.3749 61.3331C52.326 63.3716 55.5227 65.0295 58.8891 66.2675C59.3001 66.4332 59.7342 66.5392 60.1551 66.6784C60.5759 66.8176 61.0001 66.9601 61.4342 67.0529L62.73 67.3611C63.1608 67.4671 63.6015 67.5201 64.0357 67.603C65.7851 67.9161 67.561 68.0571 69.3379 68.0239C72.8956 67.9648 76.4175 67.3026 79.7536 66.0653C81.432 65.4514 83.0635 64.716 84.635 63.8649C86.2208 63.0204 87.7368 62.0507 89.1684 60.9652Z" fill="#455A64"/>
<path d="M52.4105 60.561L52.4801 61.1542L49.5572 61.4856L50.1007 64.3754L49.5141 64.4847L48.8513 60.962L52.4105 60.561Z" fill="#455A64"/>
</svg>
