<svg width="160" height="148" viewBox="0 0 160 148" fill="none" xmlns="http://www.w3.org/2000/svg">
<path d="M159.96 135.396H146.712V135.496H159.96V135.396Z" fill="#EBEBEB"/>
<path d="M112.488 136.484H109.012V136.584H112.488V136.484Z" fill="#EBEBEB"/>
<path d="M146.312 131.684H138.636V131.784H146.312V131.684Z" fill="#EBEBEB"/>
<path d="M18.26 132.356H0.983978V132.456H18.26V132.356Z" fill="#EBEBEB"/>
<path d="M24.356 132.356H21.824V132.456H24.356V132.356Z" fill="#EBEBEB"/>
<path d="M70.06 134.044H32.588V134.144H70.06V134.044Z" fill="#EBEBEB"/>
<path d="M149.176 7.91187H71.26V76.3519H149.176V7.91187Z" fill="#E6E6E6"/>
<path d="M151.212 7.91187H72.212V76.3519H151.212V7.91187Z" fill="#F0F0F0"/>
<path d="M149.176 76.3479H71.26V78.2359H149.176V76.3479Z" fill="#E6E6E6"/>
<path d="M154.596 76.3479H75.596V78.2359H154.596V76.3479Z" fill="#F0F0F0"/>
<path d="M148.364 73.5079V10.7559L75.056 10.7559V73.5079H148.364Z" fill="#FAFAFA"/>
<path d="M84.868 73.5039L92.952 10.7559H106.948L98.86 73.5039H84.868Z" fill="white"/>
<path d="M101.864 73.5039L109.952 10.7559H115.408L107.32 73.5039H101.864Z" fill="white"/>
<path d="M148.368 73.5037V10.7517H148.008V73.5037H148.368Z" fill="#E6E6E6"/>
<path opacity="0.5" d="M151.88 16.7359H73.964L73.704 11.8599H151.62L151.88 16.7359Z" fill="#E0E0E0"/>
<path opacity="0.5" d="M151.88 24.748H73.964L73.704 19.876H151.62L151.88 24.748Z" fill="#E0E0E0"/>
<path opacity="0.5" d="M151.88 32.7599H73.964L73.704 27.8879H151.62L151.88 32.7599Z" fill="#E0E0E0"/>
<path opacity="0.5" d="M151.88 40.7759H73.964L73.704 35.8999H151.62L151.88 40.7759Z" fill="#E0E0E0"/>
<path opacity="0.5" d="M151.88 48.7879H73.964L73.704 43.9119H151.62L151.88 48.7879Z" fill="#E0E0E0"/>
<path opacity="0.5" d="M151.88 56.7998H73.964L73.704 51.9238H151.62L151.88 56.7998Z" fill="#E0E0E0"/>
<path d="M39 17.7279V60.2839H59.664V17.7279H39Z" fill="white"/>
<path d="M55.972 84.6078H45.728V128.96H55.972V84.6078Z" fill="#E6E6E6"/>
<path d="M54.028 128.96H55.972V124.444H51.988L54.028 128.96Z" fill="#F0F0F0"/>
<path d="M17.68 84.6078H7.43597V128.96H17.68V84.6078Z" fill="#E6E6E6"/>
<path d="M55.972 84.6078H15.98V126.188H55.972V84.6078Z" fill="#F0F0F0"/>
<path d="M36.628 87.3719V120.54H54.46V87.3719H36.628Z" fill="#E6E6E6"/>
<path d="M17.488 87.3719L17.488 120.54H35.32V87.3719H17.488Z" fill="#E6E6E6"/>
<path d="M28.172 88.6398H24.644C23.1655 88.6544 21.7297 88.1442 20.592 87.1998H32.224C31.0862 88.1442 29.6505 88.6544 28.172 88.6398Z" fill="#F0F0F0"/>
<path d="M47.492 88.6398H43.964C42.4854 88.6551 41.0494 88.1448 39.912 87.1998H51.544C50.4063 88.1442 48.9705 88.6544 47.492 88.6398Z" fill="#F0F0F0"/>
<path d="M17.928 128.96H15.98V124.444H19.968L17.928 128.96Z" fill="#F0F0F0"/>
<path d="M25.368 80.376C25.368 80.376 25.672 84.608 37.332 84.608C48.992 84.608 49.296 80.376 49.296 80.376H25.368Z" fill="#E6E6E6"/>
<path d="M71.328 99.3479L158.856 99.3479V92.0199L71.328 92.0199V99.3479Z" fill="#EBEBEB"/>
<path d="M71.332 99.3479H96.176V92.0199H71.332V99.3479Z" fill="#E0E0E0"/>
<path d="M153.62 128.96H158.86V99.348H153.62V128.96Z" fill="#EBEBEB"/>
<path d="M153.62 101.4L158.86 100.376V99.3479H153.62V101.4Z" fill="#E0E0E0"/>
<path d="M71.328 128.96H76.568V99.348H71.328V128.96Z" fill="#E0E0E0"/>
<path d="M90.936 128.96H96.176V99.348H90.936V128.96Z" fill="#EBEBEB"/>
<path d="M90.936 101.4L96.176 100.376V99.3479H90.936V101.4Z" fill="#E0E0E0"/>
<path d="M137.216 128.96H142.456V99.348H137.216V128.96Z" fill="#E0E0E0"/>
<path d="M80 147.024C122.833 147.024 157.556 144.997 157.556 142.496C157.556 139.995 122.833 137.968 80 137.968C37.167 137.968 2.444 139.995 2.444 142.496C2.444 144.997 37.167 147.024 80 147.024Z" fill="#F5F5F5"/>
<path d="M73.004 27.732H25.288C24.5325 27.7242 23.7836 27.8736 23.0889 28.1708C22.3942 28.468 21.7689 28.9065 21.2528 29.4584C20.7367 30.0102 20.341 30.6634 20.0909 31.3764C19.8408 32.0894 19.7417 32.8466 19.8 33.6L26.64 135.36C26.7691 136.945 27.4837 138.426 28.6447 139.513C29.8056 140.6 31.3298 141.215 32.92 141.24H80.636C81.3927 141.249 82.1428 141.099 82.8385 140.801C83.5341 140.504 84.16 140.064 84.6762 139.511C85.1923 138.957 85.5873 138.302 85.8359 137.588C86.0845 136.873 86.1813 136.114 86.12 135.36L79.28 33.6C79.1482 32.0176 78.4329 30.5407 77.2731 29.4563C76.1132 28.3718 74.5917 27.7573 73.004 27.732Z" fill="#82DDFF"/>
<path opacity="0.3" d="M73.004 27.732H25.288C24.5325 27.7242 23.7836 27.8736 23.0889 28.1708C22.3942 28.468 21.7689 28.9065 21.2528 29.4584C20.7367 30.0102 20.341 30.6634 20.0909 31.3764C19.8408 32.0894 19.7417 32.8466 19.8 33.6L26.64 135.36C26.7691 136.945 27.4837 138.426 28.6447 139.513C29.8056 140.6 31.3298 141.215 32.92 141.24H80.636C81.3927 141.249 82.1428 141.099 82.8385 140.801C83.5341 140.504 84.16 140.064 84.6762 139.511C85.1923 138.957 85.5873 138.302 85.8359 137.588C86.0845 136.873 86.1813 136.114 86.12 135.36L79.28 33.6C79.1482 32.0176 78.4329 30.5407 77.2731 29.4563C76.1132 28.3718 74.5917 27.7573 73.004 27.732Z" fill="white"/>
<path d="M19.8585 49.5355L19.4594 49.5623L20.1037 59.1607L20.5028 59.1339L19.8585 49.5355Z" fill="#82DDFF"/>
<path d="M20.8571 64.1804L20.458 64.2073L20.7475 68.5095L21.1466 68.4827L20.8571 64.1804Z" fill="#82DDFF"/>
<path d="M30.104 136.4C30.1366 136.788 30.0266 137.174 29.7947 137.487C29.5628 137.8 29.2249 138.017 28.8443 138.098C28.4637 138.18 28.0664 138.12 27.7269 137.929C27.3874 137.739 27.129 137.431 27 137.064C26.8011 136.523 26.6799 135.956 26.64 135.38L19.8 33.6001C19.7595 33.0271 19.8053 32.4514 19.936 31.8921C20.0164 31.5109 20.2331 31.1722 20.5455 30.9394C20.8578 30.7066 21.2443 30.5958 21.6326 30.6277C22.0208 30.6596 22.3841 30.832 22.6542 31.1127C22.9244 31.3933 23.0829 31.7629 23.1 32.1521L30.104 136.4Z" fill="#82DDFF"/>
<path d="M80.636 139.332H36.304C35.2033 139.302 34.1518 138.87 33.3489 138.116C32.546 137.363 32.0475 136.341 31.948 135.244L25.108 33.488C25.0642 32.9966 25.1242 32.5016 25.2842 32.0349C25.4442 31.5683 25.7006 31.1406 26.0367 30.7796C26.3729 30.4185 26.7812 30.1323 27.2353 29.9394C27.6893 29.7465 28.1788 29.6513 28.672 29.66H73.004C74.1041 29.6896 75.1551 30.1218 75.9579 30.8744C76.7607 31.6271 77.2596 32.6481 77.36 33.744L84.2 135.504C84.2426 135.995 84.1817 136.49 84.0212 136.956C83.8607 137.422 83.6043 137.849 83.2684 138.21C82.9325 138.57 82.5247 138.857 82.0712 139.05C81.6178 139.243 81.1289 139.339 80.636 139.332ZM28.672 30.088C28.2376 30.08 27.8064 30.1637 27.4065 30.3335C27.0066 30.5034 26.647 30.7556 26.3511 31.0737C26.0552 31.3919 25.8297 31.7688 25.6892 32.18C25.5488 32.5911 25.4966 33.0273 25.536 33.46L32.376 135.2C32.4649 136.189 32.9141 137.112 33.6382 137.791C34.3624 138.471 35.311 138.862 36.304 138.888H80.636C81.0704 138.896 81.5016 138.812 81.9015 138.642C82.3014 138.473 82.661 138.22 82.9569 137.902C83.2528 137.584 83.4783 137.207 83.6188 136.796C83.7592 136.385 83.8114 135.949 83.772 135.516L76.932 33.76C76.8431 32.7706 76.3939 31.8484 75.6698 31.1685C74.9456 30.4886 73.997 30.0984 73.004 30.072L28.672 30.088Z" fill="white"/>
<g opacity="0.5">
<path d="M69.5947 75.8419C76.3553 68.6927 75.3572 56.7707 67.3654 49.2132C59.3736 41.6557 47.4144 41.3247 40.6538 48.4738C33.8932 55.6229 34.8913 67.545 42.8831 75.1025C50.8749 82.66 62.8341 82.991 69.5947 75.8419Z" fill="#82DDFF"/>
<path d="M66.7001 73.1085C72.1082 67.3895 71.3098 57.8524 64.9166 51.8067C58.5235 45.761 48.9567 45.4962 43.5485 51.2152C38.1403 56.9342 38.9388 66.4713 45.3319 72.517C51.725 78.5627 61.2919 78.8275 66.7001 73.1085Z" fill="white"/>
<path d="M63.8031 70.3888C67.8596 66.1006 67.262 58.9483 62.4684 54.4136C57.6747 49.8789 50.5003 49.679 46.4438 53.9671C42.3873 58.2552 42.9848 65.4076 47.7785 69.9423C52.5722 74.477 59.7466 74.6769 63.8031 70.3888Z" fill="#82DDFF"/>
<path d="M60.9136 67.6366C63.6184 64.7763 63.2192 60.0065 60.0218 56.9829C56.8244 53.9593 52.0398 53.8269 49.3349 56.6872C46.6301 59.5475 47.0293 64.3173 50.2267 67.3409C53.4241 70.3645 58.2088 70.4969 60.9136 67.6366Z" fill="white"/>
<path d="M58.0177 64.9115C59.3703 63.4816 59.1711 61.0967 57.5727 59.5846C55.9743 58.0725 53.5819 58.0059 52.2293 59.4358C50.8766 60.8657 51.0758 63.2507 52.6742 64.7628C54.2726 66.2748 56.665 66.3415 58.0177 64.9115Z" fill="#82DDFF"/>
</g>
<path d="M58.756 87.8041C58.684 87.8041 58.616 87.8041 58.544 87.8041C57.995 86.7441 57.1685 85.853 56.1526 85.226C55.1368 84.599 53.9697 84.2596 52.776 84.2441C52.1638 84.2436 51.5552 84.338 50.972 84.5241C50.3967 83.4697 49.551 82.5874 48.5218 81.9681C47.4927 81.3488 46.3171 81.0147 45.116 81.0001C44.3611 80.989 43.6114 81.1271 42.9099 81.4064C42.2084 81.6857 41.569 82.1007 41.0283 82.6277C40.4876 83.1546 40.0562 83.7831 39.7589 84.4772C39.4617 85.1712 39.3044 85.9171 39.296 86.6721C38.699 86.7074 38.115 86.8618 37.5786 87.1263C37.0421 87.3908 36.5641 87.7601 36.1727 88.2123C35.7812 88.6645 35.4843 89.1905 35.2994 89.7593C35.1145 90.3281 35.0453 90.9282 35.096 91.5241C35.1997 92.8378 35.7904 94.0654 36.7525 94.966C37.7145 95.8666 38.9783 96.3753 40.296 96.3921H59.344C59.8969 96.3985 60.4451 96.2893 60.9533 96.0714C61.4616 95.8536 61.9186 95.5319 62.2953 95.127C62.6719 94.7222 62.9597 94.243 63.1403 93.7204C63.321 93.1978 63.3903 92.6432 63.344 92.0921C63.2496 90.9348 62.7272 89.8542 61.8789 89.0613C61.0305 88.2684 59.9171 87.8202 58.756 87.8041Z" fill="white"/>
<path d="M70.888 41.2641H70.724C70.2959 40.4382 69.6515 39.7441 68.8597 39.2558C68.0678 38.7676 67.1582 38.5036 66.228 38.4921C65.7503 38.4911 65.2754 38.5639 64.82 38.7081C64.371 37.887 63.7116 37.2002 62.9096 36.718C62.1076 36.2358 61.1918 35.9756 60.256 35.9641C59.0713 35.947 57.9282 36.4007 57.0777 37.2257C56.2273 38.0506 55.739 39.1794 55.72 40.3641C55.2544 40.3918 54.7991 40.5124 54.3808 40.7187C53.9626 40.9251 53.5898 41.213 53.2845 41.5657C52.9792 41.9183 52.7476 42.3284 52.6033 42.7719C52.4589 43.2154 52.4048 43.6833 52.444 44.1481C52.5256 45.1713 52.9863 46.1272 53.7358 46.8286C54.4853 47.53 55.4696 47.9264 56.496 47.9401H71.344C71.7756 47.9461 72.2036 47.8617 72.6006 47.6923C72.9976 47.5229 73.3547 47.2722 73.6489 46.9565C73.9432 46.6407 74.1681 46.2669 74.3092 45.859C74.4502 45.4511 74.5043 45.0182 74.468 44.5881C74.3888 43.6891 73.9789 42.8514 73.3175 42.2373C72.6561 41.6233 71.7904 41.2765 70.888 41.2641Z" fill="white"/>
<path opacity="0.3" d="M76.8 103.544H49.376C49.1778 103.542 48.9813 103.581 48.7991 103.659C48.6169 103.737 48.453 103.852 48.3178 103.997C48.1826 104.142 48.0792 104.313 48.0142 104.501C47.9491 104.688 47.9239 104.887 47.94 105.084L49.052 121.44C49.084 121.856 49.2705 122.244 49.5748 122.529C49.8791 122.815 50.2791 122.975 50.696 122.98H54.376L54.684 127.504L58.896 122.98H78.096C78.2944 122.983 78.4911 122.944 78.6737 122.867C78.8562 122.789 79.0204 122.674 79.1556 122.529C79.2909 122.384 79.3943 122.212 79.4592 122.024C79.524 121.837 79.5488 121.638 79.532 121.44L78.424 105.084C78.3907 104.672 78.2064 104.287 77.9067 104.003C77.607 103.719 77.2129 103.556 76.8 103.544Z" fill="white"/>
<path d="M76.588 114.296H51.044L50.904 112.228H76.452L76.588 114.296Z" fill="white"/>
<path d="M68.8 118.592H51.336L51.196 116.524H68.66L68.8 118.592Z" fill="white"/>
<path d="M76.3 110H50.752L50.612 107.932H76.16L76.3 110Z" fill="white"/>
<path d="M98.256 34.3999L99.308 35.1559C99.6733 35.4226 100.041 35.6746 100.412 35.9119C101.152 36.4039 101.896 36.8959 102.648 37.3439C103.4 37.7919 104.16 38.2159 104.912 38.5919C105.617 38.9473 106.347 39.2508 107.096 39.4999C106.93 39.4588 106.757 39.4506 106.588 39.4759C106.487 39.4883 106.388 39.5167 106.296 39.5599C106.18 39.6199 106.216 39.6239 106.276 39.5879C106.507 39.4275 106.716 39.2365 106.896 39.0199C107.422 38.3916 107.899 37.7229 108.32 37.0199C108.788 36.2839 109.236 35.5039 109.664 34.7039C110.092 33.9039 110.52 33.0839 110.916 32.3039L110.944 32.2519C111.147 31.8531 111.491 31.544 111.909 31.3849C112.327 31.2259 112.789 31.2282 113.206 31.3915C113.622 31.5548 113.963 31.8674 114.162 32.2683C114.36 32.6692 114.402 33.1296 114.28 33.5599C113.736 35.4657 113.048 37.3271 112.22 39.1279C111.771 40.0969 111.243 41.0267 110.64 41.9079C110.263 42.4539 109.821 42.9522 109.324 43.3919C108.96 43.7086 108.549 43.9652 108.104 44.1519C107.791 44.2802 107.463 44.3676 107.128 44.4119C106.727 44.4575 106.321 44.4345 105.928 44.3439C104.859 44.0959 103.813 43.7601 102.8 43.3399C101.852 42.954 100.925 42.5174 100.024 42.0319C99.136 41.5599 98.2707 41.0626 97.428 40.5399C97.008 40.2759 96.592 40.0079 96.18 39.7399C95.768 39.4719 95.38 39.1919 94.928 38.8639C94.423 38.3983 94.1067 37.7633 94.0394 37.0797C93.9721 36.3961 94.1584 35.7116 94.563 35.1564C94.9675 34.6013 95.562 34.2142 96.2333 34.0688C96.9047 33.9234 97.606 34.0298 98.204 34.3679L98.256 34.3999Z" fill="#82DDFF"/>
<path opacity="0.2" d="M98.256 34.3999L99.308 35.1559C99.6733 35.4226 100.041 35.6746 100.412 35.9119C101.152 36.4039 101.896 36.8959 102.648 37.3439C103.4 37.7919 104.16 38.2159 104.912 38.5919C105.617 38.9473 106.347 39.2508 107.096 39.4999C106.93 39.4588 106.757 39.4506 106.588 39.4759C106.487 39.4883 106.388 39.5167 106.296 39.5599C106.18 39.6199 106.216 39.6239 106.276 39.5879C106.507 39.4275 106.716 39.2365 106.896 39.0199C107.422 38.3916 107.899 37.7229 108.32 37.0199C108.788 36.2839 109.236 35.5039 109.664 34.7039C110.092 33.9039 110.52 33.0839 110.916 32.3039L110.944 32.2519C111.147 31.8531 111.491 31.544 111.909 31.3849C112.327 31.2259 112.789 31.2282 113.206 31.3915C113.622 31.5548 113.963 31.8674 114.162 32.2683C114.36 32.6692 114.402 33.1296 114.28 33.5599C113.736 35.4657 113.048 37.3271 112.22 39.1279C111.771 40.0969 111.243 41.0267 110.64 41.9079C110.263 42.4539 109.821 42.9522 109.324 43.3919C108.96 43.7086 108.549 43.9652 108.104 44.1519C107.791 44.2802 107.463 44.3676 107.128 44.4119C106.727 44.4575 106.321 44.4345 105.928 44.3439C104.859 44.0959 103.813 43.7601 102.8 43.3399C101.852 42.954 100.925 42.5174 100.024 42.0319C99.136 41.5599 98.2707 41.0626 97.428 40.5399C97.008 40.2759 96.592 40.0079 96.18 39.7399C95.768 39.4719 95.38 39.1919 94.928 38.8639C94.423 38.3983 94.1067 37.7633 94.0394 37.0797C93.9721 36.3961 94.1584 35.7116 94.563 35.1564C94.9675 34.6013 95.562 34.2142 96.2333 34.0688C96.9047 33.9234 97.606 34.0298 98.204 34.3679L98.256 34.3999Z" fill="black"/>
<path d="M111.924 31.5561L113.008 29.7241L115.088 31.9681C114.787 32.6198 114.245 33.129 113.576 33.3881C113.426 33.4394 113.265 33.4552 113.108 33.4344C112.95 33.4136 112.8 33.3567 112.668 33.2681L112.268 33.0121C112.035 32.8601 111.869 32.6241 111.804 32.353C111.74 32.0819 111.783 31.7965 111.924 31.5561Z" fill="#FFB573"/>
<path d="M115.956 28.6322L116.416 28.9162C116.56 29.0055 116.682 29.1274 116.77 29.272C116.859 29.4166 116.913 29.58 116.927 29.749C116.942 29.9181 116.916 30.0882 116.853 30.2457C116.79 30.4032 116.691 30.5438 116.564 30.6562L115.088 31.9682L113.008 29.7242L114.82 28.6282C114.991 28.5237 115.188 28.4688 115.389 28.4695C115.589 28.4702 115.786 28.5265 115.956 28.6322Z" fill="#FFB573"/>
<path d="M72.808 139.248L75.976 139.34L77.168 132.004L74.0039 131.912L72.808 139.248Z" fill="#FFB573"/>
<path d="M76.4759 138.448L72.9359 138C72.8766 137.991 72.816 138.005 72.7673 138.041C72.7186 138.076 72.6858 138.129 72.6759 138.188L72.1519 140.964C72.1326 141.111 72.1723 141.26 72.2622 141.377C72.3522 141.495 72.4851 141.572 72.6319 141.592C73.8679 141.728 74.4639 141.728 76.0199 141.924C76.9759 142.048 79.4679 142.648 80.7919 142.484C82.1159 142.32 81.9159 141.02 81.3399 140.972C78.7599 140.748 77.7919 139.52 76.9919 138.708C76.8532 138.567 76.6718 138.476 76.4759 138.448Z" fill="#263238"/>
<path opacity="0.2" d="M74 131.916L77.168 132.008L76.552 135.788L73.384 135.696L74 131.916Z" fill="black"/>
<path d="M91.316 61.5999C91.316 61.5999 88.552 87.8359 86.712 96.7479C84.712 106.508 78.244 135.06 78.244 135.06L72.448 134.632C72.448 134.632 75.624 105.096 78.224 95.5359C78.224 85.6079 80.624 57.7839 80.624 57.7839L91.316 61.5999Z" fill="#263238"/>
<path opacity="0.3" d="M82.08 70.4679C82.028 68.4159 80.916 67.7559 79.82 67.7799C79.42 72.7159 78.992 78.7679 78.668 84.2279C80.612 81.0759 82.224 76.1679 82.08 70.4679Z" fill="black"/>
<path d="M72.276 134.672L78.484 135.132L79.196 132.792L72.048 132.72L72.276 134.672Z" fill="white"/>
<path d="M40.684 114.66L42.68 117.128L48.652 112.82L46.652 110.356L40.684 114.66Z" fill="#FFB573"/>
<path d="M43.112 117.132L41.336 114.04C41.3079 113.988 41.2603 113.948 41.2035 113.93C41.1467 113.912 41.0851 113.917 41.032 113.944L38.5 115.2C38.3715 115.273 38.2771 115.394 38.2374 115.536C38.1977 115.679 38.2159 115.831 38.288 115.96C38.924 117.028 39.284 117.504 40.064 118.864C40.544 119.7 41.808 122.104 42.464 123.264C43.12 124.424 44.252 123.732 44.064 123.184C43.264 120.72 43.036 118.836 43.2 117.712C43.2365 117.514 43.2056 117.31 43.112 117.132Z" fill="#263238"/>
<path opacity="0.2" d="M46.652 110.356L48.652 112.824L45.572 115.04L43.572 112.576L46.652 110.356Z" fill="black"/>
<path d="M85.536 59.3439C85.536 59.3439 77.74 81.6559 74.196 90.0399C70.32 99.2199 47.14 115.524 47.14 115.524L43.48 111.008C43.48 111.008 59.232 95.2199 65.08 87.7319C68.32 77.5359 75.236 55.6599 75.236 55.6599L85.536 59.3439Z" fill="#263238"/>
<path d="M43.332 110.824L47.288 115.704L49.22 114.588L44.588 109.42L43.332 110.824Z" fill="white"/>
<path d="M91.284 61.7522L75.22 55.6602C75.62 54.1922 77.72 49.8802 79.588 43.8762C81.0007 39.4395 82.0285 34.8893 82.66 30.2762C82.6763 30.1417 82.72 30.012 82.7882 29.895C82.8565 29.7779 82.9479 29.6761 83.0568 29.5956C83.1658 29.5151 83.29 29.4576 83.4219 29.4268C83.5538 29.396 83.6906 29.3923 83.824 29.4162C84.124 29.4682 84.48 29.5362 84.872 29.6122C85.884 29.8162 87.148 30.1042 88.352 30.4722C90.6631 31.1497 92.9335 31.959 95.152 32.8962C95.8949 33.2306 96.6175 33.6086 97.316 34.0282C97.7316 34.2648 98.1171 34.5509 98.464 34.8802C98.5894 34.9808 98.6933 35.1056 98.7696 35.2471C98.8459 35.3887 98.8929 35.5441 98.908 35.7042C98.908 38.0002 96.608 46.8962 91.284 61.7522Z" fill="#F0F0F0"/>
<path d="M94.832 32.748C93.024 31.572 93.112 30.2281 93.724 28.9321C93.8776 28.6116 94.0499 28.3004 94.24 28.0001L92.5 25.0601L91.22 22.9041C90.94 25.2721 90.084 29.464 88.084 30.392C89.177 31.9354 90.7381 33.0855 92.536 33.672C95.488 34.592 94.832 32.748 94.832 32.748Z" fill="#FFB573"/>
<path d="M92.424 33.6241L92.396 32.8721L90.396 33.2641L92.424 33.6241Z" fill="#E0E0E0"/>
<path d="M92.424 33.624L92.7959 33.012L94.088 34.584L92.424 33.624Z" fill="#E0E0E0"/>
<path d="M88.356 30.032C89.5726 31.1514 90.9308 32.1062 92.396 32.872C91.596 33.364 90.836 34.66 90.548 35.732C89.9 35.28 87.308 31.016 86.948 29.844L88.356 30.032Z" fill="white"/>
<path d="M94.456 32.292C93.9823 32.6874 93.4044 32.9374 92.792 33.012C93.22 33.64 93.592 35.268 93.592 36.212C94.34 35.724 95.496 34.02 95.68 33.248L94.456 32.292Z" fill="white"/>
<path opacity="0.3" d="M94.52 32.2361C94.52 32.2361 96.268 33.0761 97.812 34.0281C98.4446 34.4181 98.9333 35.003 99.2046 35.6949C99.4759 36.3868 99.515 37.1481 99.316 37.8641C97.408 44.6081 94.832 51.1561 93.764 54.8001C92.632 58.6841 91.056 63.5561 91.056 63.5561L88.332 64.2001C88.332 64.2001 95.16 38.0841 94.52 32.2361Z" fill="black"/>
<path opacity="0.3" d="M88.316 29.7281C88.316 29.7281 85.968 29.4201 83.916 29.3281C83.1964 29.2957 82.4876 29.5124 81.9091 29.9415C81.3306 30.3706 80.9177 30.9861 80.74 31.6841C79.7 35.7961 78.932 43.6601 77.88 46.7201C76.572 50.5441 74.8 58.0001 74.8 58.0001L84.104 63.3761C84.104 63.3761 93.504 34.5001 88.316 29.7281Z" fill="black"/>
<path d="M88.316 29.7281C88.316 29.7281 85.968 29.4201 83.916 29.3281C83.1964 29.2957 82.4876 29.5124 81.9091 29.9415C81.3306 30.3706 80.9177 30.9861 80.74 31.6841C79.7 35.7961 78.284 43.4761 77.228 46.5401C75.912 50.3641 73.12 56.8641 73.12 56.8641L84.856 62.3681C84.856 62.3681 93.504 34.5001 88.316 29.7281Z" fill="#82DDFF"/>
<path opacity="0.2" d="M88.316 29.7281C88.316 29.7281 85.968 29.4201 83.916 29.3281C83.1964 29.2957 82.4876 29.5124 81.9091 29.9415C81.3306 30.3706 80.9177 30.9861 80.74 31.6841C79.7 35.7961 78.284 43.4761 77.228 46.5401C75.912 50.3641 73.12 56.8641 73.12 56.8641L84.856 62.3681C84.856 62.3681 93.504 34.5001 88.316 29.7281Z" fill="black"/>
<path d="M94.52 32.2361C94.52 32.2361 96.268 33.0761 97.812 34.0281C98.4446 34.4181 98.9333 35.003 99.2046 35.6949C99.4759 36.3868 99.515 37.1481 99.316 37.8641C97.408 44.6081 95.9 51.6761 95.14 55.3961C94.34 59.3561 93.504 62.9601 93.504 62.9601L89.104 63.5561C89.104 63.5561 95.16 38.0841 94.52 32.2361Z" fill="#82DDFF"/>
<path opacity="0.2" d="M94.52 32.2361C94.52 32.2361 96.268 33.0761 97.812 34.0281C98.4446 34.4181 98.9333 35.003 99.2046 35.6949C99.4759 36.3868 99.515 37.1481 99.316 37.8641C97.408 44.6081 95.9 51.6761 95.14 55.3961C94.34 59.3561 93.504 62.9601 93.504 62.9601L89.104 63.5561C89.104 63.5561 95.16 38.0841 94.52 32.2361Z" fill="black"/>
<path opacity="0.2" d="M94.24 28.0001C94.0495 28.3043 93.8772 28.6195 93.724 28.9441C92.868 28.4281 91.988 27.0041 92.196 26.0161C92.2613 25.687 92.3633 25.3664 92.5 25.0601L94.24 28.0001Z" fill="black"/>
<path d="M96.708 15.8721C98.836 16.1481 99.616 19.0201 98.44 20.9161C96.512 18.1201 96.708 15.8721 96.708 15.8721Z" fill="#263238"/>
<path d="M90.084 21.168C90.804 24.244 91.064 26.076 92.908 27.456C93.5022 27.9116 94.2098 28.1959 94.954 28.2782C95.6982 28.3604 96.4508 28.2375 97.1302 27.9228C97.8095 27.608 98.3899 27.1134 98.8083 26.4924C99.2267 25.8715 99.4673 25.1479 99.504 24.4C99.704 21.524 98.496 16.976 95.236 16.152C94.5347 15.9542 93.7937 15.9444 93.0874 16.1237C92.3811 16.3029 91.7345 16.6649 91.2124 17.1732C90.6903 17.6815 90.3112 18.3182 90.1131 19.0195C89.915 19.7207 89.905 20.4617 90.084 21.168Z" fill="#FFB573"/>
<path d="M91.032 23.9082C92.884 23.9602 92.596 20.8922 91.788 19.7322C94.356 20.1322 98.612 17.8642 99.04 15.4882C99.66 12.0442 94.408 12.0442 92.708 13.1402C93.44 13.1922 93.812 13.8122 93.636 14.1322C93.636 14.1322 91.1 13.3642 89.46 14.2562C90.176 14.5202 90.936 15.5522 88.212 15.8802C85.62 16.1922 86.404 18.8002 87.712 18.7522C87.016 19.8202 86.18 22.2482 87.748 23.2802C89.316 24.3122 90.388 25.6562 90.048 26.2082C90.596 26.1882 91.76 25.5282 91.032 23.9082Z" fill="#263238"/>
<path d="M88.084 18.5122C86.844 18.6322 86.132 19.6002 86.084 20.9122C86.6151 20.0084 87.2907 19.1976 88.084 18.5122Z" fill="#263238"/>
<path d="M89.344 23.9482C89.66 24.5795 90.2029 25.0681 90.864 25.3162C91.732 25.6322 92.188 24.8642 91.964 24.0082C91.76 23.2322 91.064 22.1402 90.184 22.1962C89.304 22.2522 88.96 23.1642 89.344 23.9482Z" fill="#FFB573"/>
<path d="M94.96 21.4042C95 21.6562 95.172 21.8402 95.336 21.8042C95.5 21.7682 95.6 21.5602 95.56 21.3082C95.52 21.0562 95.348 20.8682 95.18 20.9082C95.012 20.9482 94.916 21.1522 94.96 21.4042Z" fill="#263238"/>
<path d="M97.828 21.02C97.868 21.272 98.036 21.456 98.204 21.42C98.372 21.384 98.468 21.176 98.428 20.92C98.388 20.664 98.216 20.484 98.048 20.52C97.88 20.556 97.784 20.764 97.828 21.02Z" fill="#263238"/>
<path d="M96.936 21.2681C97.371 22.0012 97.9009 22.6737 98.512 23.2681C98.136 23.7441 97.34 23.6681 97.34 23.6681L96.936 21.2681Z" fill="#ED893E"/>
<path d="M96.4199 24.4722C96.1241 24.4802 95.8297 24.4279 95.5546 24.3186C95.2796 24.2092 95.0296 24.0451 94.8199 23.8362C94.8067 23.8221 94.7994 23.8036 94.7994 23.7842C94.7994 23.7649 94.8067 23.7463 94.8199 23.7322C94.827 23.7251 94.8354 23.7194 94.8447 23.7156C94.854 23.7117 94.8639 23.7097 94.874 23.7097C94.884 23.7097 94.8939 23.7117 94.9032 23.7156C94.9125 23.7194 94.9209 23.7251 94.928 23.7322C95.1597 23.9568 95.4402 24.1245 95.7477 24.2224C96.0551 24.3203 96.3811 24.3455 96.7 24.2962C96.7106 24.2927 96.7218 24.2916 96.7329 24.2929C96.744 24.2942 96.7547 24.2979 96.7642 24.3039C96.7737 24.3098 96.7817 24.3177 96.7878 24.3271C96.7939 24.3365 96.7978 24.3471 96.7993 24.3582C96.8008 24.3692 96.7998 24.3805 96.7965 24.3912C96.7931 24.4018 96.7874 24.4116 96.7798 24.4199C96.7723 24.4281 96.763 24.4345 96.7526 24.4387C96.7423 24.4429 96.7311 24.4448 96.7199 24.4442C96.6208 24.4614 96.5205 24.4708 96.4199 24.4722Z" fill="#263238"/>
<path d="M95.62 25.3041C95.3808 25.1279 95.1801 24.9046 95.0301 24.6481C94.8802 24.3915 94.7842 24.1071 94.748 23.8121C94.7468 23.7926 94.7533 23.7734 94.7659 23.7585C94.7786 23.7436 94.7965 23.7342 94.816 23.7321C94.8257 23.731 94.8356 23.7319 94.8451 23.7348C94.8545 23.7377 94.8632 23.7425 94.8707 23.7488C94.8782 23.7552 94.8843 23.763 94.8886 23.7719C94.893 23.7807 94.8955 23.7903 94.896 23.8001C94.9427 24.1194 95.0613 24.4239 95.2429 24.6907C95.4244 24.9574 95.6641 25.1795 95.944 25.3401C95.9525 25.3447 95.96 25.351 95.9661 25.3586C95.9722 25.3661 95.9766 25.3748 95.9793 25.3842C95.9819 25.3935 95.9826 25.4033 95.9813 25.4129C95.9801 25.4225 95.9769 25.4318 95.972 25.4401C95.967 25.4488 95.9603 25.4564 95.9524 25.4626C95.9445 25.4687 95.9354 25.4731 95.9258 25.4757C95.9161 25.4783 95.906 25.479 95.8961 25.4777C95.8862 25.4764 95.8766 25.4732 95.868 25.4681C95.7826 25.4177 95.6998 25.3629 95.62 25.3041Z" fill="#263238"/>
<path d="M93.916 20.6C93.8924 20.6059 93.8676 20.6059 93.844 20.6C93.8261 20.5911 93.8102 20.5787 93.7972 20.5635C93.7842 20.5483 93.7744 20.5307 93.7684 20.5116C93.7625 20.4926 93.7604 20.4725 93.7624 20.4526C93.7644 20.4327 93.7704 20.4135 93.78 20.396C93.8855 20.1816 94.0421 19.9965 94.236 19.857C94.43 19.7175 94.6552 19.6278 94.892 19.596C94.9118 19.5943 94.9317 19.5967 94.9505 19.6029C94.9693 19.6091 94.9867 19.619 95.0016 19.6321C95.0166 19.6451 95.0287 19.6611 95.0374 19.6789C95.046 19.6968 95.051 19.7162 95.052 19.736C95.0536 19.7557 95.0513 19.7756 95.0451 19.7945C95.0389 19.8133 95.0289 19.8307 95.0159 19.8456C95.0028 19.8605 94.9869 19.8727 94.9691 19.8813C94.9512 19.89 94.9318 19.895 94.912 19.896C94.7283 19.9223 94.5535 19.9924 94.4025 20.1003C94.2515 20.2082 94.1285 20.3507 94.044 20.516C94.0331 20.5409 94.0152 20.5621 93.9925 20.577C93.9698 20.5919 93.9432 20.5999 93.916 20.6Z" fill="#263238"/>
<path d="M98.892 19.872C98.8676 19.8727 98.8434 19.8672 98.8217 19.856C98.8 19.8448 98.7815 19.8283 98.768 19.808C98.6616 19.6473 98.5197 19.5131 98.3533 19.416C98.1868 19.3189 98.0002 19.2614 97.808 19.248C97.7724 19.2422 97.74 19.2239 97.7167 19.1964C97.6934 19.1689 97.6805 19.1341 97.6805 19.098C97.6805 19.0619 97.6934 19.0271 97.7167 18.9996C97.74 18.9721 97.7724 18.9538 97.808 18.948C98.0477 18.9615 98.281 19.0307 98.4893 19.1501C98.6976 19.2695 98.8752 19.4359 99.008 19.636C99.0194 19.652 99.0276 19.67 99.032 19.6892C99.0364 19.7083 99.0369 19.7282 99.0336 19.7475C99.0302 19.7669 99.023 19.7854 99.0125 19.802C99.0019 19.8185 98.9881 19.8328 98.972 19.844C98.9491 19.8619 98.921 19.8717 98.892 19.872Z" fill="#263238"/>
<path d="M84.776 34.5041C83.976 35.1561 83.132 35.8801 82.328 36.5881C81.524 37.2961 80.704 38.0241 79.928 38.7681C78.384 40.1972 76.938 41.7287 75.6 43.3521L75.144 43.9441L75.088 44.0201C75.1 44.0023 75.1107 43.9836 75.12 43.9641C75.144 43.9193 75.1641 43.8725 75.18 43.8241C75.2104 43.7435 75.2267 43.6583 75.228 43.5721C75.228 43.4361 75.204 43.4361 75.228 43.5001C75.2454 43.6232 75.2805 43.743 75.332 43.8561C75.4932 44.2338 75.6943 44.5932 75.932 44.9281C76.2075 45.3326 76.5039 45.7225 76.82 46.0961C77.464 46.8961 78.184 47.6601 78.94 48.4161C79.696 49.1721 80.496 49.9361 81.26 50.6361L81.312 50.6801C81.649 50.9829 81.8591 51.4019 81.9002 51.8531C81.9413 52.3043 81.8103 52.7544 81.5335 53.1131C81.2568 53.4718 80.8547 53.7127 80.4078 53.7874C79.961 53.8622 79.5024 53.7653 79.124 53.5161C77.1175 52.2442 75.2417 50.7771 73.524 49.1361C73.088 48.7001 72.66 48.2441 72.24 47.7401C71.7857 47.1938 71.3839 46.6059 71.04 45.9841C70.8315 45.6018 70.6614 45.1999 70.532 44.7841C70.358 44.2244 70.2955 43.6359 70.348 43.0521C70.3807 42.6864 70.4642 42.3269 70.596 41.9841C70.6651 41.8066 70.7466 41.6342 70.84 41.4681L70.984 41.2321L71.048 41.1361L71.568 40.3641C72.954 38.4291 74.4965 36.611 76.18 34.9281C76.98 34.0961 77.82 33.2841 78.672 32.5001C79.524 31.7161 80.368 30.9601 81.308 30.1921C81.8856 29.85 82.567 29.7268 83.2279 29.845C83.8887 29.9632 84.4852 30.315 84.9084 30.8361C85.3316 31.3573 85.5535 32.0132 85.5336 32.6843C85.5137 33.3554 85.2533 33.997 84.8 34.4921L84.776 34.5041Z" fill="#82DDFF"/>
<path opacity="0.2" d="M84.776 34.5041C83.976 35.1561 83.132 35.8801 82.328 36.5881C81.524 37.2961 80.704 38.0241 79.928 38.7681C78.384 40.1972 76.938 41.7287 75.6 43.3521L75.144 43.9441L75.088 44.0201C75.1 44.0023 75.1107 43.9836 75.12 43.9641C75.144 43.9193 75.1641 43.8725 75.18 43.8241C75.2104 43.7435 75.2267 43.6583 75.228 43.5721C75.228 43.4361 75.204 43.4361 75.228 43.5001C75.2454 43.6232 75.2805 43.743 75.332 43.8561C75.4932 44.2338 75.6943 44.5932 75.932 44.9281C76.2075 45.3326 76.5039 45.7225 76.82 46.0961C77.464 46.8961 78.184 47.6601 78.94 48.4161C79.696 49.1721 80.496 49.9361 81.26 50.6361L81.312 50.6801C81.649 50.9829 81.8591 51.4019 81.9002 51.8531C81.9413 52.3043 81.8103 52.7544 81.5335 53.1131C81.2568 53.4718 80.8547 53.7127 80.4078 53.7874C79.961 53.8622 79.5024 53.7653 79.124 53.5161C77.1175 52.2442 75.2417 50.7771 73.524 49.1361C73.088 48.7001 72.66 48.2441 72.24 47.7401C71.7857 47.1938 71.3839 46.6059 71.04 45.9841C70.8315 45.6018 70.6614 45.1999 70.532 44.7841C70.358 44.2244 70.2955 43.6359 70.348 43.0521C70.3807 42.6864 70.4642 42.3269 70.596 41.9841C70.6651 41.8066 70.7466 41.6342 70.84 41.4681L70.984 41.2321L71.048 41.1361L71.568 40.3641C72.954 38.4291 74.4965 36.611 76.18 34.9281C76.98 34.0961 77.82 33.2841 78.672 32.5001C79.524 31.7161 80.368 30.9601 81.308 30.1921C81.8856 29.85 82.567 29.7268 83.2279 29.845C83.8887 29.9632 84.4852 30.315 84.9084 30.8361C85.3316 31.3573 85.5535 32.0132 85.5336 32.6843C85.5137 33.3554 85.2533 33.997 84.8 34.4921L84.776 34.5041Z" fill="black"/>
<path d="M81.868 51.296L84.588 52.96L81.112 54.94C81.112 54.94 78.8 53.212 79.788 52.096L80.948 51.296C81.0849 51.207 81.2447 51.1597 81.408 51.1597C81.5713 51.1597 81.7311 51.207 81.868 51.296Z" fill="#FFB573"/>
<path d="M84.736 56.0001L83.24 56.8801C83.1365 56.9419 83.0216 56.9822 82.9022 56.9987C82.7828 57.0153 82.6612 57.0076 82.5448 56.9763C82.4284 56.9449 82.3195 56.8905 82.2245 56.8163C82.1296 56.7421 82.0505 56.6495 81.992 56.5441L81.112 54.9441L84.588 52.9641L85.148 54.9641C85.2036 55.158 85.1933 55.3649 85.1187 55.5524C85.0442 55.7399 84.9096 55.8973 84.736 56.0001Z" fill="#FFB573"/>
<path d="M110.756 27.7521L114.44 27.0281C113.428 28.8121 114.916 30.5201 116.252 31.5921C116.888 32.1041 116.44 33.0201 115.452 33.1921L113.052 33.6641C110.156 34.2481 110.756 27.7521 110.756 27.7521Z" fill="#82DDFF"/>
<path d="M109.292 28.0359L117.74 26.3999C119.059 26.137 120.22 25.3623 120.97 24.2455C121.72 23.1286 121.996 21.7603 121.74 20.4399C121.475 19.1218 120.7 17.9618 119.584 17.2126C118.467 16.4633 117.1 16.1856 115.78 16.4399L107.336 18.0959C106.018 18.3617 104.858 19.1376 104.108 20.2546C103.359 21.3715 103.082 22.7392 103.336 24.0599C103.605 25.3733 104.382 26.5274 105.497 27.2718C106.612 28.0162 107.976 28.2907 109.292 28.0359Z" fill="#82DDFF"/>
<path opacity="0.3" d="M109.292 28.0359L117.74 26.3999C119.059 26.137 120.22 25.3623 120.97 24.2455C121.72 23.1286 121.996 21.7603 121.74 20.4399C121.475 19.1218 120.7 17.9618 119.584 17.2126C118.467 16.4633 117.1 16.1856 115.78 16.4399L107.336 18.0959C106.018 18.3617 104.858 19.1376 104.108 20.2546C103.359 21.3715 103.082 22.7392 103.336 24.0599C103.605 25.3733 104.382 26.5274 105.497 27.2718C106.612 28.0162 107.976 28.2907 109.292 28.0359Z" fill="white"/>
<path d="M132.284 29.7601L117.884 29.5681C116.636 29.8121 113.484 13.6521 114.716 13.4081L127.972 7.80811L132.284 29.7601Z" fill="#82DDFF"/>
<path d="M128.98 19.0041C130.18 25.0681 131.648 29.8841 132.284 29.7601C132.92 29.6361 132.472 24.6161 131.28 18.5601C130.088 12.5041 128.612 7.6801 127.976 7.8041C127.34 7.9281 127.792 12.9361 128.98 19.0041Z" fill="#82DDFF"/>
<path opacity="0.3" d="M128.98 19.0041C130.18 25.0681 131.648 29.8841 132.284 29.7601C132.92 29.6361 132.472 24.6161 131.28 18.5601C130.088 12.5041 128.612 7.6801 127.976 7.8041C127.34 7.9281 127.792 12.9361 128.98 19.0041Z" fill="black"/>
<path d="M134.4 18.256C134.108 16.772 130.8 16.168 130.1 16.308C129.4 16.448 129.06 17.76 129.348 19.244C129.636 20.728 130.448 21.816 131.152 21.68C131.856 21.544 134.68 19.736 134.4 18.256Z" fill="#82DDFF"/>
<path d="M156.674 14.406L137.938 17.4373L138.006 17.8598L156.743 14.8285L156.674 14.406Z" fill="#82DDFF"/>
<path d="M143.855 6.31632L136.172 12.8665L136.449 13.1922L144.132 6.64202L143.855 6.31632Z" fill="#82DDFF"/>
<path d="M147.658 26.573L147.516 26.9766L150.333 27.971L150.476 27.5674L147.658 26.573Z" fill="#82DDFF"/>
<path d="M137.449 23.0949L137.313 23.5007L144.442 25.8918L144.578 25.4861L137.449 23.0949Z" fill="#82DDFF"/>
</svg>
