<svg width="31" height="35" viewBox="0 0 31 35" fill="none" xmlns="http://www.w3.org/2000/svg">
<path d="M21.625 5.46875V5.71875H21.875H29.5312C29.755 5.71875 29.9696 5.80765 30.1279 5.96588C30.2861 6.12411 30.375 6.33872 30.375 6.5625C30.375 6.78628 30.2861 7.00089 30.1279 7.15912C29.9696 7.31735 29.755 7.40625 29.5312 7.40625H28.3544H28.1236L28.1052 7.63631L26.2392 30.955C26.1563 31.9887 25.687 32.9533 24.9249 33.6565C24.1627 34.3598 23.1637 34.7502 22.1266 34.75H8.49844C7.46135 34.7502 6.46228 34.3598 5.70014 33.6565C4.93802 32.9533 4.46874 31.9888 4.38577 30.9551C4.38576 30.955 4.38576 30.955 4.38576 30.955L2.51983 7.63631L2.50142 7.40625H2.27063H1.09375C0.869974 7.40625 0.655362 7.31736 0.497128 7.15912C0.338895 7.00089 0.25 6.78628 0.25 6.5625C0.25 6.33872 0.338895 6.12411 0.497129 5.96588C0.655362 5.80764 0.869974 5.71875 1.09375 5.71875H8.75H9V5.46875V3.28125C9 2.47731 9.31936 1.7063 9.88783 1.13783C10.4563 0.569363 11.2273 0.25 12.0312 0.25H18.5938C19.3977 0.25 20.1687 0.569363 20.7372 1.13783C21.3056 1.7063 21.625 2.47731 21.625 3.28125V5.46875ZM10.6875 5.46875V5.71875H10.9375H19.6875H19.9375V5.46875V3.28125C19.9375 2.92487 19.7959 2.58308 19.5439 2.33107C19.2919 2.07907 18.9501 1.9375 18.5938 1.9375H12.0312C11.6749 1.9375 11.3331 2.07907 11.0811 2.33108C10.8291 2.58308 10.6875 2.92487 10.6875 3.28125V5.46875ZM21.9552 9.59636L21.9551 9.59635C21.5994 9.5758 21.2502 9.6973 20.9841 9.93416C20.718 10.171 20.5569 10.5038 20.5361 10.8594C20.5361 10.8594 20.5361 10.8594 20.5361 10.8595L19.4423 29.4531L19.4422 29.4531L19.442 29.4596C19.4305 29.8099 19.5563 30.1509 19.7926 30.4098C20.029 30.6687 20.3571 30.8249 20.7071 30.8453C21.057 30.8656 21.4011 30.7484 21.6658 30.5187C21.9305 30.2889 22.095 29.9648 22.1241 29.6155L22.1242 29.6155L22.1246 29.6094L23.2183 11.0156L23.2183 11.0154C23.2389 10.6597 23.1174 10.3105 22.8805 10.0444C22.6437 9.77829 22.3108 9.61714 21.9552 9.59636ZM9.96351 10.3439L9.73709 10.4499L9.96351 10.3439C9.88774 10.182 9.78045 10.0369 9.64791 9.91702C9.51537 9.79714 9.36025 9.7049 9.19162 9.6457C9.023 9.5865 8.84426 9.56153 8.66587 9.57226C8.48747 9.58298 8.31301 9.62919 8.1527 9.70816C7.99238 9.78713 7.84942 9.8973 7.7322 10.0322C7.61498 10.1671 7.52584 10.324 7.47001 10.4938C7.41447 10.6627 7.393 10.8409 7.40683 11.0181L8.5003 29.6072C8.50777 29.7849 8.55044 29.9594 8.62586 30.1205C8.70163 30.2824 8.80893 30.4275 8.94147 30.5474C9.07401 30.6672 9.22913 30.7595 9.39775 30.8187C9.56638 30.8779 9.74512 30.9028 9.92351 30.8921C10.1019 30.8814 10.2764 30.8352 10.4367 30.7562C10.597 30.6772 10.74 30.5671 10.8572 30.4322C10.9744 30.2973 11.0635 30.1404 11.1194 29.9706C11.1749 29.8017 11.1964 29.6235 11.1825 29.4463L10.0891 10.8572C10.0816 10.6795 10.0389 10.505 9.96351 10.3439ZM15.3125 9.59375C14.9561 9.59375 14.6143 9.73532 14.3623 9.98733C14.1103 10.2393 13.9688 10.5811 13.9688 10.9375V29.5312C13.9688 29.8876 14.1103 30.2294 14.3623 30.4814C14.6143 30.7334 14.9561 30.875 15.3125 30.875C15.6689 30.875 16.0107 30.7334 16.2627 30.4814C16.5147 30.2294 16.6562 29.8876 16.6562 29.5312V10.9375C16.6562 10.5811 16.5147 10.2393 16.2627 9.98733C16.0107 9.73532 15.6689 9.59375 15.3125 9.59375Z" fill="#82DDFF" stroke="white" stroke-width="0.5"/>
</svg>
